<svg width="735" height="735" xmlns="http://www.w3.org/2000/svg">
 <defs>
  <clipPath clipPathUnits="userSpaceOnUse" id="clipPath24">
   <path d="m4355.226475,2658.388023c0,1035.61 -839.53,1875.14 -1875.13,1875.14c-1035.61,0 -1875.14,-839.53 -1875.14,-1875.14c0,-1035.6 839.53,-1875.13 1875.14,-1875.13c1035.6,0 1875.13,839.53 1875.13,1875.13" id="path22"/>
  </clipPath>
  <clipPath clipPathUnits="userSpaceOnUse" id="clipPath54">
   <path d="m3162.216475,3193.308023c0,0 -47.71,453.24 -214.69,672.71c-118.28,155.45 -224.24,42.94 -491.42,-95.42c-267.18,138.36 -373.13,250.87 -491.41,95.42c-166.99,-219.47 -214.7,-672.71 -214.7,-672.71c-176.52,-19.09 -348.28,-90.65 -348.28,-90.65c181.3,-281.49 978.05,-329.2 978.05,-329.2l76.34,0l76.34,0c0,0 796.76,47.71 978.06,329.2c0,0 -171.76,71.56 -348.29,90.65" id="path52"/>
  </clipPath>
 </defs>
 <metadata id="CorelCorpID_0Corel-Layer"/>
 <g>
  <title>background</title>
  <rect fill="none" id="canvas_background" height="737" width="737" y="-1" x="-1"/>
 </g>
 <g>
  <title>Layer 1</title>
  <g id="svg_1" transform="matrix(1.46999986358643,0,0,1.46999986358643,209.99996948242188,0) ">
   <metadata transform="translate(2.842170943040401e-14,-8.163308143615723) translate(2.842170943040401e-14,0.0000389254855690524) translate(2.842170943040401e-14,-0.000042169274820480496) translate(-6.122450828552246,0) translate(-0.0000012975161780559574,0) translate(-0.0000012975161780559574,0) translate(2.842170943040401e-14,0.0000389254855690524) translate(2.842170943040401e-14,-0.30713051557540894) translate(-0.0000012975161780559574,0) translate(0.11665189266204834,0) translate(-223.51800537109375,-62.19631576538086) " id="metadata8"/>
   <g id="g10" transform="matrix(1.3333333,0,0,-1.3333333,0,666.66667) ">
    <g id="g12" transform="translate(-167.6385040283203,46.647239685058594) scale(0.10000000149011612) ">
     <path fill="#252d48" fill-rule="nonzero" d="m4355.226475,2658.388023c0,1035.61 -839.53,1875.14 -1875.13,1875.14c-1035.61,0 -1875.14,-839.53 -1875.14,-1875.14c0,-1035.6 839.53,-1875.13 1875.14,-1875.13c1035.6,0 1875.13,839.53 1875.13,1875.13" id="path16"/>
     <g id="g18">
      <g id="g20" clip-path="url(#clipPath24)">
       <path fill="#21263e" fill-rule="nonzero" d="m2480.096475,783.258023c-0.26,0 -0.52,0 -0.77,0l-1225.47,1229.93c354.26,-304.04 1202.25,-658.01 1202.25,-658.01l0,0c0,0 1040.08,434.16 1297.72,753.82l0,0l0,0c0,0 -162.86,195.44 -416.07,195.44c-37.53,0 -77,-4.29 -118.27,-14.14c0,0 138.34,143.12 195.6,248.08c49.82,91.35 60.63,160.89 62.59,177.42l0,0l0,0c-0.32,-1.2 -0.88,-2.68 -1.8,-4.43c0.45,1.17 0.86,2.32 1.23,3.41l0,0c0.01,0.03 0.02,0.07 0.03,0.1c0.01,0.02 0.01,0.03 0.02,0.05c0,0.02 0.01,0.03 0.01,0.04c0.01,0.02 0.01,0.04 0.02,0.07c0,0 0.01,0.01 0.01,0.02c0.01,0.03 0.01,0.05 0.02,0.07c0,0.01 0,0.01 0.01,0.02c17.7,55.96 -199.07,82.77 -292.47,91.67c-7.01,0.67 -13.32,1.24 -18.78,1.71c6.18,28.59 10.55,56.98 13.49,84.72c143.62,48.69 271.04,116.25 331.04,209.41c0,0 0,0 -0.01,0c0.01,0 0.01,0 0.01,0c0,0 -166.77,69.48 -340.54,89.77c-2.58,0.31 -5.17,0.6 -7.75,0.88c0,0 -47.71,453.24 -214.69,672.71c-2.25,2.95 -4.48,5.8 -6.72,8.56l1403.86,-1416.4c-99.93,-941.47 -896.6,-1674.92 -1864.57,-1674.92" id="path26"/>
      </g>
     </g>
     <path fill="#2e3d5f" fill-rule="nonzero" d="m3143.126475,2810.338023c0,0 357.84,-24.12 333.98,-95.56c-23.86,-71.43 -233.78,-309.98 -233.78,-309.98l-338.74,-28.62l238.54,434.16" id="path28"/>
     <path fill="#202439" fill-rule="nonzero" d="m2960.236475,2768.978023c0,0 445.31,-1.58 497.79,-77.92c0,0 -338.75,-362.6 -353.06,-367.36c-14.32,-4.78 -434.16,-47.72 -434.16,-47.72l289.43,493" id="path30"/>
     <path fill="#2e3d5f" fill-rule="nonzero" d="m1769.086475,2810.338023c0,0 -357.83,-24.12 -333.97,-95.56c23.85,-71.43 233.78,-309.98 233.78,-309.98l338.74,-28.62l-238.55,434.16" id="path32"/>
     <path fill="#202439" fill-rule="nonzero" d="m1951.976475,2768.978023c0,0 -445.3,-1.58 -497.78,-77.92c0,0 338.74,-362.6 353.05,-367.36c14.32,-4.78 434.17,-47.72 434.17,-47.72l-289.44,493" id="path34"/>
     <path fill="#96b5c1" fill-rule="nonzero" d="m2456.106475,2801.648023c0,0 -728.35,361.07 -728.37,189.25c-0.03,-189.25 53.61,-439.07 310.17,-588.56c111,-64.68 418.2,-409.37 418.2,-409.37c0,0 307.2,344.69 418.2,409.37c256.57,149.49 310.2,399.31 310.17,588.56c-0.02,171.82 -728.37,-189.25 -728.37,-189.25" id="path36"/>
     <path fill="#202439" fill-rule="nonzero" d="m2456.106475,2923.728023l-729.96,0c39.55,-186.86 271.94,-413.54 443.7,-413.54c200.38,0 209.92,162.65 286.26,162.65c76.34,0 85.88,-162.65 286.26,-162.65c171.76,0 395.6,202.4 443.7,413.54l-729.96,0" id="path38"/>
     <path fill="#345280" fill-rule="nonzero" d="m3219.486475,2290.298023c0,0 138.34,143.12 195.6,248.08c49.82,91.35 60.63,160.89 62.59,177.42c-3.85,-14.12 -39.2,-66.96 -339.31,-144.01c-353.06,-90.65 -601.15,-209.93 -682.26,-500.97c-81.11,291.04 -329.2,410.32 -682.25,500.97c-300.11,77.05 -335.46,129.89 -339.33,144.01c1.97,-16.53 12.78,-86.07 62.61,-177.42c57.25,-104.96 195.59,-248.08 195.59,-248.08c-319.68,76.34 -534.33,-181.3 -534.33,-181.3c257.63,-319.66 1297.71,-753.82 1297.71,-753.82c0,0 1040.08,434.16 1297.72,753.82c0,0 -214.65,257.64 -534.34,181.3" id="path40"/>
     <path fill="#345280" fill-rule="nonzero" d="m3478.086475,2663.198023c0,0 -0.11,-1.34 -0.41,-3.8c0.69,2.49 0.41,3.8 0.41,3.8" id="path42"/>
     <path fill="#345280" fill-rule="nonzero" d="m1434.536475,2659.398023c-0.3,2.46 -0.41,3.8 -0.41,3.8c0,0 -0.27,-1.31 0.41,-3.8" id="path44"/>
     <path fill="#345280" fill-rule="nonzero" d="m3162.216475,3193.308023c0,0 -47.71,453.24 -214.69,672.71c-118.28,155.45 -224.24,42.94 -491.42,-95.42c-267.18,138.36 -373.13,250.87 -491.41,95.42c-166.99,-219.47 -214.7,-672.71 -214.7,-672.71c-176.52,-19.09 -348.28,-90.65 -348.28,-90.65c181.3,-281.49 978.05,-329.2 978.05,-329.2l76.34,0l76.34,0c0,0 796.76,47.71 978.06,329.2c0,0 -171.76,71.56 -348.29,90.65" id="path46"/>
     <g id="g48">
      <g id="g50" clip-path="url(#clipPath54)">
       <path fill="#5a91ac" fill-rule="nonzero" d="m2456.106475,3317.348023c-195.56,0 -486.64,28.63 -729.96,124.05l23.85,-248.09c0,0 214.56,-124.05 706.11,-124.05c491.55,0 706.11,124.05 706.11,124.05l23.85,248.09c-243.32,-95.42 -534.39,-124.05 -729.96,-124.05" id="path56"/>
      </g>
     </g>
     <path fill="#202438" fill-rule="nonzero" d="m3477.106475,2714.778023l0,0c0.01,0.04 0.02,0.07 0.03,0.1c-0.01,-0.03 -0.02,-0.07 -0.03,-0.1l0,0m0.05,0.15c0,0.01 0.01,0.03 0.01,0.04c0,-0.01 -0.01,-0.02 -0.01,-0.04m0.03,0.11c0,0 0.01,0.01 0.01,0.02c0,-0.01 -0.01,-0.02 -0.01,-0.02m0.03,0.09c0,0.01 0.01,0.01 0.01,0.02c-0.01,-0.01 -0.01,-0.01 -0.01,-0.02m-292.46,91.69c-7.01,0.67 -13.31,1.24 -18.78,1.71l0,0c5.46,-0.47 11.77,-1.04 18.78,-1.71m325.74,295.84c-0.74,0.31 -167.14,69.53 -340.53,89.77c173.77,-20.29 340.54,-89.77 340.54,-89.77l0,0" id="path58"/>
     <path fill="#2b3858" fill-rule="nonzero" d="m3457.646475,2691.598023c-29.78,41.63 -176.94,60.88 -303.52,69.77c4.54,15.75 8.46,31.48 11.85,47.16c5.47,-0.47 11.77,-1.04 18.78,-1.71c93.37,-8.9 310.17,-35.71 292.47,-91.67c0,-0.01 -0.01,-0.01 -0.01,-0.02c-0.01,-0.02 -0.01,-0.05 -0.02,-0.07c0,-0.01 -0.01,-0.02 -0.01,-0.02c-0.01,-0.03 -0.01,-0.05 -0.02,-0.07c0,-0.01 -0.01,-0.03 -0.01,-0.04c-0.01,-0.02 -0.01,-0.03 -0.02,-0.05c-0.01,-0.03 -0.02,-0.06 -0.03,-0.1l0,0c-0.42,-1.23 -1.01,-2.63 -1.54,-3.97c-2.59,-4.66 -7.74,-11.11 -17.92,-19.21" id="path60"/>
     <path fill="#1f2235" fill-rule="nonzero" d="m3043.746475,2545.958023c54.39,67.28 89.06,141.37 110.38,215.41c126.58,-8.89 273.74,-28.14 303.52,-69.77c-31.9,-25.38 -113.12,-66.88 -319.28,-119.81c-32.45,-8.34 -63.99,-16.9 -94.62,-25.83" id="path62"/>
     <path fill="#84a5b3" fill-rule="nonzero" d="m2456.106475,2070.818023l0,602.02c76.34,0 85.88,-162.65 286.26,-162.65c163.31,0 373.7,182.98 435.36,382.47c0.55,0.19 1.14,0.39 1.7,0.58c-2.94,-27.75 -7.33,-56.11 -13.51,-84.71c0.02,0 0.04,0 0.06,0l0,0c-3.39,-15.68 -7.31,-31.41 -11.85,-47.16c-21.32,-74.04 -55.99,-148.13 -110.38,-215.41c-302.61,-88.19 -513.99,-210.85 -587.64,-475.14" id="path64"/>
     <path fill="#1f2235" fill-rule="nonzero" d="m2742.366475,2510.188023c-200.38,0 -209.92,162.65 -286.26,162.65l0,100.62l76.34,0c0,0 355.23,21.26 645.28,119.2c-61.66,-199.49 -272.05,-382.47 -435.36,-382.47" id="path66"/>
     <path fill="#334a75" fill-rule="nonzero" d="m2456.106475,1355.178023l0,715.64c73.65,264.29 285.03,386.95 587.64,475.14c30.63,8.93 62.17,17.49 94.62,25.83c206.16,52.93 287.38,94.43 319.28,119.81c10.18,8.1 15.33,14.55 17.92,19.21c0,-0.01 0,-0.01 0,-0.02c1.11,2 1.75,3.68 2.11,5.01c-1.96,-16.53 -12.77,-86.07 -62.59,-177.42c-57.26,-104.96 -195.6,-248.08 -195.6,-248.08l0,0l0,0c41.27,9.85 80.74,14.14 118.27,14.14c253.21,0 416.07,-195.44 416.07,-195.44c-257.64,-319.66 -1297.72,-753.82 -1297.72,-753.82" id="path68"/>
     <path fill="#334a75" fill-rule="nonzero" d="m2532.446475,2773.458023l-76.34,0l0,295.8c491.55,0 706.11,124.05 706.11,124.05l0,0c2.58,-0.28 5.17,-0.57 7.75,-0.88c173.39,-20.24 339.79,-89.46 340.53,-89.77c-60,-93.16 -187.43,-160.7 -331.07,-209.39c0,-0.01 0,-0.02 0,-0.03c-0.56,-0.19 -1.15,-0.39 -1.7,-0.58c-290.05,-97.94 -645.28,-119.2 -645.28,-119.2m-76.34,543.89l0,453.25c175.47,90.87 281.38,170.57 366.93,170.57c44.72,0 83.89,-21.79 124.49,-75.15c89.22,-117.26 144.39,-301.29 176.42,-447.23c-229.33,-77.4 -488.67,-101.44 -667.84,-101.44" id="path70"/>
     <path fill="#5284a0" fill-rule="nonzero" d="m2456.106475,3069.258023l0,248.09c179.17,0 438.51,24.04 667.84,101.44c27.92,-127.21 38.27,-225.48 38.27,-225.48c0,0 -214.56,-124.05 -706.11,-124.05" id="path72"/>
    </g>
   </g>
  </g>
 </g>
</svg>