<svg xmlns="http://www.w3.org/2000/svg" xmlns:ns2="http://design.blush" xmlns:xlink="http://www.w3.org/1999/xlink" width="264px" height="280px" viewBox="0 0 264 280" version="1.1">
    <title id="circle_Title">Avataaar/Circle</title>
    <desc>Created with python_avatars</desc>
    <defs>
        <circle id="circle_path-1" cx="120" cy="120" r="120" />
        <path d="M-3.19744231e-14,160 L-3.19744231e-14,-1.42108547e-14 L264,-1.42108547e-14 L264,160 L252,160 C252,226.27417 198.27417,280 132,280 C65.72583,280 12,226.27417 12,160 L12,160 L-3.19744231e-14,160 Z" id="circle_path-3" />
        <path d="M100,0 C130.927946,-5.68137151e-15 156,25.072054 156,56 L156.000809,62.1660527 C161.675838,63.1185422 166,68.05429 166,74 L166,88 C166,94.0524166 161.519235,99.0582945 155.693975,99.8813638 C153.627928,119.686472 141.237929,136.421678 124.001014,144.610469 L124,163 L128,163 C167.764502,163 200,195.235498 200,235 L200,244 L0,244 L0,235 C-4.86974701e-15,195.235498 32.235498,163 72,163 L76,163 L75.9999836,144.610943 C58.7625487,136.422324 46.3721119,119.686854 44.3051107,99.8809698 C38.480765,99.0582945 34,94.0524166 34,88 L34,74 C34,68.053942 38.3246685,63.1179645 44.0001873,62.1658855 L44,56 C44,25.072054 69.072054,5.68137151e-15 100,0 Z" id="circle_path-5" />
        <path d="M83,36.3476251 C83,52.6289957 105.161905,65.8276544 132.5,65.8276544 C159.838095,65.8276544 182,52.6289957 182,36.3476251 C182,34.9853134 181.844841,33.6445843 181.544472,32.3313638 C210.784239,41.4879251 232,68.792221 232,101.051724 L232,110 L32,110 L32,101.051724 C32,68.3970853 53.7386736,40.8197864 83.5337207,32.0021267 C83.1821692,33.4207025 83,34.871494 83,36.3476251 Z" id="circle_path-7" />
        <rect id="circle_path-9" x="0" y="0" width="264" height="280" />
        <path d="M74,0 C114.869071,0 148,33.1309285 148,74 L148,84.1482318 L148,197.608051 C135.525121,187.236892 119.490913,181 102,181 L102,181 L98,181 L98,162.610951 C115.530782,154.282984 128.048193,137.114792 129.791419,116.867187 C135.569129,116.002364 140,111.018625 140,105 L140,105 L140,92 C140,87.3536213 137.359271,83.3240177 133.496777,81.3301515 C132.723933,81.0500337 131.951808,80.748163 131.180891,80.4262497 C130.794819,80.3202581 130.400778,80.2331546 130,80.1659169 L130,80.1659169 L130.000458,79.9172528 C117.224481,74.2339715 104.877985,63.0706967 96.1104311,47.8848473 C93.1752556,42.8009742 90.8310687,37.5951441 89.0661426,32.3970356 C80.4313947,42.9409152 67.7445474,53.6023901 52.3415164,62.4953343 C42.777598,68.0170651 33.1467898,72.2910056 24,75.2659587 L24.0003852,137.246608 C29.6019576,148.318362 38.7728825,157.277529 50,162.610951 L50,162.610951 L50,181 L46,181 C38.3273639,181 30.9350359,182.200142 24.0004995,184.422941 L24,230 C24,244.105888 13.5691766,255.775526 0,257.716445 L0,74 C0,33.1309285 33.1309285,0 74,0 Z" id="circle_path-11" />
    </defs>
    <g id="circle_Avataaar/Circle" stroke="none" stroke-width="1" fill="none" fill-rule="evenodd">
        <g id="circle_Circle" transform="translate(12.000000, 40.000000)">
            <mask id="circle_mask-2" fill="white">
                <use xlink:href="#circle_path-1" />
            </mask>
            <use id="circle_Background-Color" fill="#FFFFFF" xlink:href="#circle_path-1" />
            <g id="circle_Fabric-Color" mask="url(#circle_mask-2)" fill="">
                <rect id="circle_ðŸ–Color" x="0" y="0" width="240" height="240" />
            </g>
        </g>
        <mask id="circle_mask-4" fill="white">
            <use xlink:href="#circle_path-3" />
        </mask>
        <g id="circle_Mask" />
        <g id="circle_Avataaar" mask="url(#circle_mask-4)">
            <g id="circle_Body" transform="translate(32.000000, 36.000000)">
                <mask id="circle_mask-6" fill="white">
                    <use xlink:href="#circle_path-5" />
                </mask>
                <use fill="#D0C6AC" xlink:href="#circle_path-5" />
                <g id="circle_Skin-Color" mask="url(#circle_mask-6)" fill="#614335">
                    <g transform="translate(-32.000000, 0.000000)" id="circle_Color">
                        <rect x="0" y="0" width="264" height="244" />
                    </g>
                </g>
                <path d="M44,94 C44,124.927946 69.072054,150 100,150 C130.927946,150 156,124.927946 156,94 L156,94 L156,102 C156,132.927946 130.927946,158 100,158 C69.072054,158 44,132.927946 44,102 Z" id="circle_Neck-Shadow" fill-opacity="0.100000001" fill="#000000" mask="url(#circle_mask-6)" />
            </g>
            <g id="circle_Clothing" transform="translate(0.000000, 170.000000)">
                
            <g id="bond_suit_Clothing/Bond Suit" stroke="none" stroke-width="1" fill="none" fill-rule="evenodd">
        <g id="bond_suit_Suit" transform="translate(31.500000, 28.600000)">
            <path d="M124.379699,3.0005061 L128.359699,3.0005061 C167.925874,3.0005061 199.999699,34.434727 199.999699,73.2118883 L199.999699,81.9883111 L0.9996985,81.9883111 L0.9996985,73.2118883 L1.0096485,72.050475 C1.6424685,33.8096507 33.4695335,3.0005061 72.6396985,3.0005061 L76.6196985,3.0005061 C76.6196985,3.0005061 76.4236835,15.1129447 100.491739,15.1129447 C124.559794,15.1129447 124.379699,3.0005061 124.379699,3.0005061" id="bond_suit_Fabric-Color" fill="#65C9FF" ns2:color="Top-500" />
            <path d="M86.846271,30.4401 L100.520301,16.6691854 L114.194331,30.4401 L142.147401,2.28791707 C137.769621,1.45386829 133.258176,1.00040488 128.639196,1.00040488 L124.619196,1.00040488 C124.619196,1.00040488 124.801101,13.5728805 100.491156,13.5728805 C76.181211,13.5728805 76.380201,1.00040488 76.380201,1.00040488 L72.360201,1.00040488 C67.753281,1.00040488 63.252891,1.44981951 58.885161,2.27981951 L86.846271,30.4401 Z" id="bond_suit_Fill-7" fill="#FFF" />
            <path d="M128.639698,0.000506097561 L124.640803,0.000506097561 L124.640803,81.988311 L200.999698,81.988311 L200.999698,72.8785549 C200.999698,32.6286159 168.603523,0.000506097561 128.639698,0.000506097561" id="bond_suit_Fill-9" fill="#191919" />
            <path d="M76.380201,0.000506097561 L72.360201,0.000506097561 C32.796366,0.000506097561 0.649431,31.9797988 0.009246,71.6730305 L0.000201,72.8785549 L0.000201,81.988311 L76.380201,81.988311 L76.380201,0.000506097561 Z" id="bond_suit_Fill-12" fill="#191919" />
            <path d="M66.873906,0.206082927 L40.132866,43.4571805 L62.584566,56.6946683 L48.757776,75.9982415 L55.328466,81.9884122 L76.380201,81.9884122 L76.380201,0.000607317073 C76.380201,0.000607317073 73.264701,0.0431195122 66.873906,0.206082927" id="bond_suit_Fill-15" fill="#2B2B2B" />
            <path d="M134.28006,0.224909756 L160.887435,43.4577878 L138.435735,56.6942634 L152.26353,75.9978366 L145.69083,81.9880073 L124.6401,81.9869951 L124.6401,-0.000809756098 C124.6401,-0.000809756098 127.889265,0.0619463415 134.28006,0.224909756" id="bond_suit_Fill-18" fill="#2B2B2B" />
            <path d="M117.319471,4.55653649 L104.309494,9.42526147 C103.959547,8.06616124 102.826255,7.06466754 101.46774,7.06466754 L99.5726387,7.06466754 C98.2087401,7.06466754 97.0727562,8.07300071 96.7272951,9.43894041 L83.6805286,4.55653649 C81.6014805,3.86379597 79.5,5.55705312 79.5,7.92546359 L79.5,20.8755099 C79.5,23.2429433 81.6014805,24.9362005 83.6805286,24.24346 L96.7272951,19.3620331 C97.0727562,20.7269957 98.2087401,21.7353289 99.5726387,21.7353289 L101.46774,21.7353289 C102.826255,21.7353289 103.959547,20.7328581 104.308597,19.3757121 L117.319471,24.24346 C119.398519,24.9362005 121.5,23.2429433 121.5,20.8755099 L121.5,7.92546359 C121.5,5.55705312 119.398519,3.86379597 117.319471,4.55653649" id="bond_suit_Fill-1" fill="#191919" />
        </g>
    </g>
</g>
            <g id="circle_Face" transform="translate(76.000000, 82.000000)" fill="#000000">
                <g id="circle_Mouth" transform="translate(2.000000, 52.000000)">    
                    
                <g id="sad_Mouth/Sad" stroke="none" stroke-width="1" fill="none" fill-rule="evenodd" fill-opacity="0.699999988">
        <path d="M40.0582943,16.6539438 C40.7076459,23.6831146 46.7016363,28.3768187 54,28.3768187 C61.3416045,28.3768187 67.3633339,23.627332 67.9526838,16.5287605 C67.9840218,16.1513016 67.0772329,15.8529531 66.6289111,16.077395 C61.0902255,18.8502083 56.8805885,20.2366149 54,20.2366149 C51.1558456,20.2366149 47.0072148,18.8804569 41.5541074,16.168141 C41.0473376,15.9160792 40.0197139,16.2363147 40.0582943,16.6539438 Z" id="sad_Mouth" fill="#000000" transform="translate(54.005357, 22.188409) scale(1, -1) translate(-54.005357, -22.188409) " />
    </g>
</g>
                <g id="circle_Nose" transform="translate(28.000000, 40.000000)" fill-opacity="0.16">
                    
                <g id="default_Nose/Default" stroke="none" stroke-width="1" fill="none" fill-rule="evenodd" fill-opacity="0.16">
        <path d="M16,8 C16,12.418278 21.372583,16 28,16 L28,16 C34.627417,16 40,12.418278 40,8" id="default_Nose" fill="#000000" />
    </g>
</g>
                <g id="circle_Eyes" transform="translate(0.000000, 8.000000)">
                    
                <g id="cry_Eyes/Cry-ðŸ˜¢" stroke="none" stroke-width="1" fill="none" fill-rule="evenodd">
        <circle id="cry_Eye" fill-opacity="0.599999964" fill="#000000" cx="30" cy="22" r="6" />
        <path d="M25,27 C25,27 19,34.2706667 19,38.2706667 C19,41.5846667 21.686,44.2706667 25,44.2706667 C28.314,44.2706667 31,41.5846667 31,38.2706667 C31,34.2706667 25,27 25,27 Z" id="cry_Drop" fill="#92D9FF" fill-rule="nonzero" />
        <circle id="cry_Eye" fill-opacity="0.599999964" fill="#000000" cx="82" cy="22" r="6" />
    </g>
</g>
                <g id="circle_Eyebrow" fill-opacity="0.599999964">
                    
                <g id="up_down_natural_Eyebrow/Natural/Up-Down-Natural" stroke="none" stroke-width="1" fill="none" fill-rule="evenodd" fill-opacity="0.599999964">
        <path d="M22.7663531,1.57844898 L23.6772984,1.17582144 C28.9190996,-0.905265751 36.8645466,-0.0328729562 41.7227321,2.29911638 C42.2897848,2.57148957 41.9021563,3.4519421 41.3211012,3.40711006 C26.4021788,2.25602197 16.3582869,11.5525942 12.9460869,17.8470939 C12.8449215,18.0337142 12.5391523,18.05489 12.4635344,17.8808353 C10.156283,12.5620676 16.9134476,3.89614725 22.7663531,1.57844898 Z" id="up_down_natural_Eye-Browse-Reddit" fill="#000000" />
        <path d="M86.535177,12.0246305 C92.3421916,12.2928751 101.730304,16.5124899 101.488432,22.3684172 C101.480419,22.5600881 101.1989,22.6442368 101.06135,22.496811 C98.306449,19.5374968 78.7459953,16.5471364 71.8564209,18.1317995 C71.2258949,18.2770375 70.7468448,17.6550104 71.1462176,17.2056651 C74.5683263,13.3574126 81.3327077,11.7792465 86.535177,12.0246305 Z" id="up_down_natural_Eyebrow" fill="#000000" transform="translate(86.246508, 17.285912) rotate(5.000000) translate(-86.246508, -17.285912) " />
    </g>
</g>
            </g>
            <g id="circle_Top">
                
            <g id="bride_Hairstyle/Bride" stroke="none" stroke-width="1" fill="none" fill-rule="evenodd">
        <g id="bride_Facial-Hair" transform="translate(49.000000, 72.000000)"><defs>
        <path d="M65.1802189,77.7372986 C67.3631845,76.1045334 80.4065113,75.4786511 82.757829,74.0894494 C83.4916461,73.6553857 84.0610723,73.215719 84.4997781,72.7800074 C84.938814,73.215719 85.5085703,73.6553857 86.2423874,74.0894494 C88.593375,75.4786511 101.636702,76.1045334 103.819667,77.7372986 C106.030032,79.3908276 107.643571,83.1846831 107.466966,86.15095 C107.255041,89.7101408 103.361486,98.2028927 93.6723269,99.1811016 C91.5576925,96.8281927 88.2368647,95.3104528 84.4997781,95.3104528 C80.7633517,95.3104528 77.4421938,96.8281927 75.3275594,99.1811016 C65.6387308,98.2028927 61.7451757,89.7101408 61.5332501,86.15095 C61.3566455,83.1846831 62.9701849,79.3908276 65.1802189,77.7372986 M103.141638,94.9063813 C103.142958,94.9057221 103.144609,94.905063 103.145929,94.9047334 C103.144278,94.905063 103.142958,94.9057221 103.141638,94.9063813 M65.8453747,94.9014375 C65.8493359,94.9030855 65.8565982,94.9057221 65.8618798,94.9076997 C65.8565982,94.9057221 65.8509864,94.9034151 65.8453747,94.9014375 M144.86259,55.9853335 C144.47439,50.0303878 143.277769,44.1519058 142.233986,38.2862777 C141.952739,36.7072349 140.423706,26 139.734783,26 C139.502391,35.1094058 138.701893,44.0803858 137.669664,53.1393651 C137.361018,55.8475668 137.037848,58.5564277 136.825262,61.2741874 C136.653609,63.4695546 136.959614,66.1220564 136.427819,68.2455739 C135.749129,70.9524573 132.348087,73.4783984 129.702978,74.410795 C123.102915,76.7373371 117.597802,67.1077689 111.960977,64.2911336 C104.643272,60.6347152 92.0637391,59.7639895 84.5816434,64.5297918 C76.9361472,59.7639895 64.356614,60.6347152 57.0389092,64.2911336 C51.4024147,67.1077689 45.8969708,76.7373371 39.2972383,74.410795 C36.6521296,73.4783984 33.2504268,70.9524573 32.572397,68.2455739 C32.0402723,66.1220564 32.346277,63.4695546 32.174954,61.2741874 C31.9623682,58.5564277 31.6388681,55.8475668 31.3302226,53.1393651 C30.2983232,44.0803858 29.4974953,35.1094058 29.2654335,26 C28.5761802,26 27.0468169,36.7072349 26.7658999,38.2862777 C25.7221169,44.1519058 24.5258266,50.0303878 24.1376265,55.9853335 C23.738533,62.1047422 24.2148704,68.1674622 25.4695887,74.1632765 C26.0687242,77.0277016 26.7685407,79.8756475 27.518863,82.7041478 C28.352701,85.8467429 27.198994,91.9661516 27.5723395,95.1921317 C28.2787581,101.29572 31.1542781,113.199679 34.3833375,118.45096 C35.9440605,120.989096 37.7734867,122.573742 39.816489,124.619148 C41.7825775,126.58809 42.6038717,129.640049 44.7260985,131.73687 C48.6820428,135.645092 54.4456266,137.971304 60.3656788,138.543134 C65.6773527,143.050212 74.505605,146 84.4997781,146 C94.4946114,146 103.322534,143.050212 108.634538,138.543134 C114.55393,137.971304 120.317843,135.645092 124.274118,131.73687 C126.396015,129.640049 127.217309,126.58809 129.183727,124.619148 C131.2264,122.573742 133.055826,120.989096 134.616879,118.45096 C137.845608,113.199679 140.721458,101.29572 141.427547,95.1921317 C141.800892,91.9661516 140.647185,85.8467429 141.481353,82.7041478 C142.231676,79.8756475 142.931162,77.0277016 143.530628,74.1632765 C144.784686,68.1674622 145.261353,62.1047422 144.86259,55.9853335 Z" id="beard_magestic_path-1" />
    </defs>
    <g id="beard_magestic_Facial-Hair/Beard-Magestic" stroke="none" stroke-width="1" fill="none" fill-rule="evenodd">
        <mask id="beard_magestic_mask-2" fill="white">
            <use xlink:href="#beard_magestic_path-1" />
        </mask>
        <use id="beard_magestic_Glorious-Beard" fill="#5E7AA9" xlink:href="#beard_magestic_path-1" />
        <g id="beard_magestic_Facial-Hair-Color" mask="url(#beard_magestic_mask-2)" fill="#E8E1E1">
            <rect id="beard_magestic_Color" x="0" y="0" width="168" height="152" />
        </g>
    </g>
</g>
        <g id="bride_Accessory" transform="translate(62.000000, 85.000000)" />
        <g id="bride_Group-6" transform="translate(69.000000, -55.000000)">
            <path d="M117.8748,169.5479 C118.7828,164.0989 128.5908,155.7439 128.5908,143.3939 C128.5908,138.5909 126.4058,107.1459 99.6728,92.0579 C99.7838,91.2529 99.8448,90.4379 99.8448,89.6119 C99.8448,86.7789 99.1598,84.0599 97.9158,81.5219 C114.7568,73.6399 125.8518,60.2059 125.8518,44.9529 C125.8518,20.6779 97.7598,0.9999 63.1068,0.9999 C28.4548,0.9999 0.3628,20.6779 0.3628,44.9529 C0.3628,60.7919 12.3268,74.6689 30.2638,82.4039 C29.2808,84.6869 28.7458,87.1059 28.7458,89.6119 C28.7458,90.5299 28.8218,91.4349 28.9598,92.3259 C3.6398,106.6659 1.0898,135.5739 1.0898,146.8449 C1.0898,162.1009 20.5238,181.3539 20.5238,191.3429 C20.5238,201.3319 -0.0002,208.0529 -0.0002,218.2239 C-0.0002,228.3949 13.2588,235.4779 15.2568,240.1999 C17.2548,244.9219 12.7138,250.1779 12.7138,256.0019 C12.7138,263.4479 24.1558,265.4459 24.1558,265.4459 C11.6238,256.3649 24.5198,244.5599 24.5198,238.5659 C24.5198,232.5719 11.9868,231.6639 11.9868,220.4029 C11.9868,209.1429 32.3298,206.0549 32.3298,192.6139 C32.3298,179.1739 19.2518,161.9079 19.2518,151.7369 C19.2518,141.5659 21.6138,123.9599 37.4148,123.9599 C53.2158,123.9599 51.5818,134.4939 65.2638,134.4939 C78.9448,134.4939 87.3618,126.1399 97.3518,126.1399 C107.3408,126.1399 113.8788,135.5839 113.8788,144.1199 C113.8788,152.6569 104.0708,159.0139 104.0708,171.0009 C104.0708,182.9879 115.4168,189.7079 115.4168,198.4259 C115.4168,207.1449 98.9858,213.8639 98.9858,223.4899 C98.9858,233.1169 106.7958,234.5689 113.5158,240.7449 C120.2358,246.9199 107.1588,254.0039 104.7978,259.8159 C102.4368,265.6279 108.0668,268.8969 108.0668,268.8969 C103.3448,259.2709 122.9608,254.0039 122.9608,245.6489 C122.9608,233.4809 111.0308,229.2409 111.0308,223.4289 C111.0308,214.0459 126.4108,209.1429 126.4108,195.1569 C126.4108,188.0739 116.9668,174.9969 117.8748,169.5479" id="bride_Hair-Color" fill="#A55728" ns2:color="Hair-500" />
            <path d="M65.2634,84.0025 C79.8114,84.0025 91.0234,87.1765 99.6724,92.0575 C99.7844,91.2525 99.8444,90.4375 99.8444,89.6125 C99.8444,75.8585 83.9284,64.7095 64.2954,64.7095 C44.6614,64.7095 28.7454,75.8585 28.7454,89.6125 C28.7454,90.5295 28.8224,91.4345 28.9594,92.3265 C37.9154,87.2545 49.7144,84.0025 65.2634,84.0025" id="bride_Fill-4" fill-opacity=".8" fill="#FFF" />
        </g>
    </g>
</g>
        </g>
    </g>
</svg>