<svg xmlns="http://www.w3.org/2000/svg" xmlns:ns2="http://design.blush" xmlns:xlink="http://www.w3.org/1999/xlink" width="264px" height="280px" viewBox="0 0 264 280" version="1.1">
    <title id="transparent_Title">Avataaar/Default</title>
    <desc>Created with python_avatars</desc>
    <defs>
        <path d="M100,0 C130.927946,-5.68137151e-15 156,25.072054 156,56 L156.000809,62.1660527 C161.675838,63.1185422 166,68.05429 166,74 L166,88 C166,94.0524166 161.519235,99.0582945 155.693975,99.8813638 C153.627928,119.686472 141.237929,136.421678 124.001014,144.610469 L124,163 L128,163 C167.764502,163 200,195.235498 200,235 L200,244 L0,244 L0,235 C-4.86974701e-15,195.235498 32.235498,163 72,163 L76,163 L75.9999836,144.610943 C58.7625487,136.422324 46.3721119,119.686854 44.3051107,99.8809698 C38.480765,99.0582945 34,94.0524166 34,88 L34,74 C34,68.053942 38.3246685,63.1179645 44.0001873,62.1658855 L44,56 C44,25.072054 69.072054,5.68137151e-15 100,0 Z" id="transparent_path-1" />
        <path d="M83,36.3476251 C83,52.6289957 105.161905,65.8276544 132.5,65.8276544 C159.838095,65.8276544 182,52.6289957 182,36.3476251 C182,34.9853134 181.844841,33.6445843 181.544472,32.3313638 C210.784239,41.4879251 232,68.792221 232,101.051724 L232,110 L32,110 L32,101.051724 C32,68.3970853 53.7386736,40.8197864 83.5337207,32.0021267 C83.1821692,33.4207025 83,34.871494 83,36.3476251 Z" id="transparent_path-3" />
        <rect id="transparent_path-5" x="0" y="0" width="264" height="280" />
        <path d="M74,0 C114.869071,0 148,33.1309285 148,74 L148,84.1482318 L148,197.608051 C135.525121,187.236892 119.490913,181 102,181 L102,181 L98,181 L98,162.610951 C115.530782,154.282984 128.048193,137.114792 129.791419,116.867187 C135.569129,116.002364 140,111.018625 140,105 L140,105 L140,92 C140,87.3536213 137.359271,83.3240177 133.496777,81.3301515 C132.723933,81.0500337 131.951808,80.748163 131.180891,80.4262497 C130.794819,80.3202581 130.400778,80.2331546 130,80.1659169 L130,80.1659169 L130.000458,79.9172528 C117.224481,74.2339715 104.877985,63.0706967 96.1104311,47.8848473 C93.1752556,42.8009742 90.8310687,37.5951441 89.0661426,32.3970356 C80.4313947,42.9409152 67.7445474,53.6023901 52.3415164,62.4953343 C42.777598,68.0170651 33.1467898,72.2910056 24,75.2659587 L24.0003852,137.246608 C29.6019576,148.318362 38.7728825,157.277529 50,162.610951 L50,162.610951 L50,181 L46,181 C38.3273639,181 30.9350359,182.200142 24.0004995,184.422941 L24,230 C24,244.105888 13.5691766,255.775526 0,257.716445 L0,74 C0,33.1309285 33.1309285,0 74,0 Z" id="transparent_path-7" />
    </defs>
    <g id="transparent_Avataaar/Default" stroke="none" stroke-width="1" fill="none" fill-rule="evenodd">
        <g id="transparent_Body" transform="translate(32.000000, 36.000000)">
            <mask id="transparent_mask-2" fill="white">
                <use xlink:href="#transparent_path-1" />
            </mask>
            <use fill="#D0C6AC" xlink:href="#transparent_path-1" />
            <g id="transparent_Skin-Color" mask="url(#transparent_mask-2)" fill="#F8D25C">
                <g transform="translate(-32.000000, 0.000000)" id="transparent_Color">
                    <rect x="0" y="0" width="264" height="244" />
                </g>
            </g>
            <path d="M44,94 C44,124.927946 69.072054,150 100,150 C130.927946,150 156,124.927946 156,94 L156,94 L156,102 C156,132.927946 130.927946,158 100,158 C69.072054,158 44,132.927946 44,102 Z" id="transparent_Neck-Shadow" fill-opacity="0.100000001" fill="#000000" mask="url(#transparent_mask-2)" />
        </g>
        <g id="transparent_Clothing" transform="translate(0.000000, 170.000000)">
            
        <g id="chef_Clothing/Chef" stroke="none" stroke-width="1" fill="none" fill-rule="evenodd">
        <path d="M104,29.0517235 L160,29.0517235 C199.764502,29.0517235 232,61.2872215 232,101.051724 L232,110 L232,110 L32,110 L32,101.051724 C32,61.2872215 64.235498,29.0517235 104,29.0517235 Z" id="chef_Fabric-Color" fill="#3C4F5C" />
        <polyline id="chef_Path-10" stroke-opacity=".206" stroke="#979797" stroke-width="4" points="136 29 97 70 97 110" />
        <path d="M107.127,19.0853917 C113.854,20.6843917 131.291,23.5633917 158.064,19.1733917 C159.566,18.9273917 160.991,19.7773917 160.991,20.9203917 L160.991,31.3083917 C160.991,32.0803917 160.333,32.7653917 159.346,33.0073917 C152.963,34.5713917 129.018,39.5293917 105.502,32.5903917 C104.591,32.3203917 104,31.6523917 104,30.9243917 L104,20.7953917 C104,19.5853917 105.577,18.7173917 107.127,19.0853917" id="chef_Fill-1" fill="#F7F9F9" />
        <circle id="chef_Oval" fill-opacity=".502" fill="#D8D8D8" cx="115" cy="79" r="4" />
        <polygon id="chef_Path-11" fill="#60ADE6" points="160.991 75 186.16092 62.6280915 186.16092 75" ns2:color="Top-500" />
    </g>
</g>
        <g id="transparent_Face" transform="translate(76.000000, 82.000000)" fill="#000000">
            <g id="transparent_Mouth" transform="translate(2.000000, 52.000000)">    
                
            <g id="default_Mouth/Default" stroke="none" stroke-width="1" fill="none" fill-rule="evenodd" fill-opacity="0.699999988">
        <path d="M40,15 C40,22.7319865 46.2680135,29 54,29 L54,29 C61.7319865,29 68,22.7319865 68,15" id="default_Mouth" fill="#000000" />
    </g>
</g>
            <g id="transparent_Nose" transform="translate(28.000000, 40.000000)" fill-opacity="0.16">
                
            <g id="default_Nose/Default" stroke="none" stroke-width="1" fill="none" fill-rule="evenodd" fill-opacity="0.16">
        <path d="M16,8 C16,12.418278 21.372583,16 28,16 L28,16 C34.627417,16 40,12.418278 40,8" id="default_Nose" fill="#000000" />
    </g>
</g>
            <g id="transparent_Eyes" transform="translate(0.000000, 8.000000)">
                
            <g id="happy_Eyes/Happy-ðŸ˜" stroke="none" stroke-width="1" fill="none" fill-rule="evenodd" fill-opacity="0.599999964">
        <path d="M16.1601674,22.4473116 C18.006676,18.648508 22.1644225,16 26.9975803,16 C31.8136766,16 35.9591217,18.629842 37.8153518,22.4071242 C38.3667605,23.5291977 37.5821037,24.4474817 36.790607,23.7670228 C34.3395063,21.6597833 30.8587163,20.3437884 26.9975803,20.3437884 C23.2572061,20.3437884 19.8737584,21.5787519 17.4375392,23.5716412 C16.5467928,24.3002944 15.6201012,23.5583844 16.1601674,22.4473116 Z" id="happy_Squint" fill="#000000" />
        <path d="M74.1601674,22.4473116 C76.006676,18.648508 80.1644225,16 84.9975803,16 C89.8136766,16 93.9591217,18.629842 95.8153518,22.4071242 C96.3667605,23.5291977 95.5821037,24.4474817 94.790607,23.7670228 C92.3395063,21.6597833 88.8587163,20.3437884 84.9975803,20.3437884 C81.2572061,20.3437884 77.8737584,21.5787519 75.4375392,23.5716412 C74.5467928,24.3002944 73.6201012,23.5583844 74.1601674,22.4473116 Z" id="happy_Squint" fill="#000000" />
    </g>
</g>
            <g id="transparent_Eyebrow" fill-opacity="0.599999964">
                
            <g id="up_down_Eyebrow/Outline/Up-Down" stroke="none" stroke-width="1" fill="none" fill-rule="evenodd" fill-opacity="0.599999964">
        <path d="M15.5914402,14.1619718 C20.0874642,7.83556966 29.6031809,4.65350252 39.3473715,7.79575991 C40.3986323,8.13476518 41.5256656,7.55736801 41.8646708,6.50610724 C42.2036761,5.45484647 41.6262789,4.32781316 40.5750182,3.98880789 C29.1665516,0.309863172 17.8358054,4.09887835 12.3309495,11.8448183 C11.6910852,12.7451779 11.9022584,13.9937761 12.8026181,14.6336404 C13.7029777,15.2735046 14.9515759,15.0623314 15.5914402,14.1619718 Z" id="up_down_Eyebrow" fill="#000000" fill-rule="nonzero" />
        <path d="M73.6376405,21.1577995 C77.5525501,15.6490895 88.2853148,12.56006 97.5304219,14.8304032 C98.6031199,15.0938282 99.6862617,14.4377829 99.9496867,13.3650849 C100.213112,12.2923868 99.5570664,11.2092451 98.4843684,10.9458201 C87.7477584,8.30920485 75.3194947,11.8862211 70.3771498,18.840646 C69.7372855,19.7410057 69.9484587,20.9896038 70.8488184,21.6294681 C71.749178,22.2693324 72.9977762,22.0581591 73.6376405,21.1577995 Z" id="up_down_Eyebrow" fill="#000000" fill-rule="nonzero" transform="translate(85.007549, 16.038421) scale(-1, 1) translate(-85.007549, -16.038421) " />
    </g>
</g>
        </g>
        <g id="transparent_Top">
            
        <g id="loose_hair_Hairstyle/Loose hair" stroke="none" stroke-width="1" fill="none" fill-rule="evenodd" transform="translate(-1, 0)">
        <g id="loose_hair_Accessory" transform="translate(62.000000, 85.000000)" />
        <path d="M248.9316,185.8679 C227.6806,173.0629 234.2196,160.8039 236.1266,151.8129 C238.0346,142.8219 233.1296,127.2929 226.5916,121.2999 C220.0526,115.3059 207.2476,96.7809 213.5146,80.1619 C216.2336,72.9509 212.2876,54.6889 202.8896,45.2899 C193.4906,35.8899 179.7326,37.9339 174.0106,30.5779 C169.5946,24.9009 157.9366,9.5999 140.2286,9.5999 C122.5196,9.5999 115.4366,19.9529 107.8086,25.1289 C100.1806,30.3059 89.0106,25.1289 80.5646,32.7579 C72.1196,40.3859 68.8496,49.3759 68.8496,69.5359 C68.8496,89.6969 32.9946,100.5949 31.2536,124.1599 C30.2396,137.8809 43.2406,143.3669 43.2406,155.3539 C43.2406,167.3419 12.9996,175.7879 12.9996,194.5859 C12.9996,210.1149 24.9876,217.7429 30.4356,220.4679 C34.3556,222.4279 33.9606,234.3959 39.6786,240.7579 C51.1186,216.1309 76.0526,199.0449 104.9946,199.0449 L108.9946,199.0449 L108.9946,180.6559 C101.7626,177.2209 95.3876,172.2769 90.2666,166.2379 C91.2026,159.9859 89.0526,151.6059 83.7936,137.8259 C81.0146,130.5459 82.6186,119.6039 86.5576,115.3059 C92.5516,108.7679 93.6416,97.5969 93.6416,97.5969 C93.0636,102.2189 93.9556,106.6439 95.1756,110.2089 C95.8526,112.1889 98.7426,112.1079 99.2696,110.0819 C101.6846,100.8209 110.6416,92.5819 113.8026,83.9759 C116.5326,76.5419 113.8026,61.6359 113.8026,61.6359 C116.8476,76.0759 127.0776,84.8769 134.9166,89.6549 C136.8016,90.8029 138.9366,88.7289 137.9026,86.7799 C132.6306,76.8509 134.7236,64.0879 134.7236,64.0879 C136.1526,76.3469 143.2256,85.0659 157.1196,91.6039 C171.0136,98.1419 174.5556,103.0469 174.5556,112.3089 C174.5556,115.8659 175.6396,118.6989 176.9756,120.8399 C178.1776,122.7669 181.1046,122.0129 181.3536,119.7559 C182.0326,113.6089 185.7256,108.2229 185.7256,108.2229 C185.1836,119.0599 186.6816,127.7849 188.7826,134.9479 C187.0276,155.1799 174.5156,172.3319 156.9946,180.6549 L156.9936,199.0449 L160.9936,199.0449 C166.3236,199.0449 171.5146,199.6259 176.5136,200.7229 C176.5076,200.7279 176.5006,200.7319 176.4946,200.7359 C176.4946,200.7359 165.9936,210.3229 161.4646,220.6539 C160.2256,223.4779 163.9666,225.8459 165.9916,223.5189 C166.9636,222.3999 168.0886,221.4269 169.3796,220.7399 C169.3796,220.7399 159.3776,236.3809 166.2696,250.7359 C167.3496,252.9869 170.6496,252.6919 171.3266,250.2889 C172.4966,246.1369 174.4366,240.7879 177.2806,237.4949 C177.2806,237.4949 169.4106,258.1669 188.2456,268.4279 C190.1316,269.4549 192.4046,267.9089 192.1956,265.7709 C191.8326,262.0789 192.0506,257.0079 194.9886,253.2959 C199.1386,248.0539 215.4406,243.1469 225.9256,239.9049 C225.9346,239.9249 225.9456,239.9429 225.9546,239.9629 C228.2436,239.2779 230.3736,238.5709 232.3096,237.8439 C232.3276,237.8379 232.3496,237.8299 232.3686,237.8229 C232.3776,237.8199 232.3876,237.8149 232.3976,237.8119 C234.4236,237.0469 236.2316,236.2599 237.7616,235.4509 C256.8316,225.3709 262.6356,194.1249 248.9316,185.8679" id="loose_hair_Hair-Color" fill="#C93305" ns2:color="Hair-500" />
        <path d="M182.5146,156.2127 C176.8766,166.8587 167.9086,175.4707 156.9946,180.6547 L156.9936,199.0447 L160.9936,199.0447 C166.3186,199.0447 171.5006,199.6397 176.4946,200.7357 C184.6146,192.2167 191.9846,178.0807 182.5146,156.2127" id="loose_hair_Fill-4" fill-opacity=".24" fill="#000" />
        <path d="M108.9946,199.0447 L108.9946,180.6557 C101.8026,177.2387 95.4556,172.3317 90.3486,166.3367 C90.1316,171.2767 89.0936,177.5687 85.7416,182.5987 C82.4426,187.5457 79.4976,195.4047 81.3696,203.0277 C88.7716,200.4567 96.7166,199.0447 104.9946,199.0447 L108.9946,199.0447 Z" id="loose_hair_Fill-6" fill-opacity=".24" fill="#000" />
    </g>
</g>
    </g>
</svg>