<?xml version="1.0" encoding="UTF-8" standalone="no"?>
<!DOCTYPE svg PUBLIC "-//W3C//DTD SVG 1.1//EN" "http://www.w3.org/Graphics/SVG/1.1/DTD/svg11.dtd">
<svg xmlns="http://www.w3.org/2000/svg" version="1.1" viewBox="0 0 300 300">
<g stroke-width="2.0" fill="none" stroke-linecap="butt">
<path stroke="#a9625b" vector-effect="non-scaling-stroke" d="
  M 109.96 17.75
  Q 110.39 24.32 110.06 30.89
  Q 110.05 31.21 109.54 33.00
  Q 109.14 34.40 110.50 35.29"
/>
<path stroke="#59646f" vector-effect="non-scaling-stroke" d="
  M 110.50 35.29
  Q 108.51 35.30 109.25 36.54"
/>
<path stroke="#a8b3ba" vector-effect="non-scaling-stroke" d="
  M 109.25 36.54
  Q 93.67 38.23 78.25 41.04"
/>
<path stroke="#9eaab0" vector-effect="non-scaling-stroke" d="
  M 78.25 41.04
  Q 69.31 43.40 66.49 52.25
  Q 65.44 55.54 65.29 59.00
  Q 64.46 78.37 64.48 97.75
  Q 64.48 106.47 66.25 115.01
  Q 66.68 117.06 68.73 117.50
  Q 71.60 118.10 73.44 120.31
  Q 74.48 121.56 75.35 128.32
  Q 77.03 141.25 79.80 153.99
  Q 80.69 158.11 82.79 161.75"
/>
<path stroke="#92a0aa" vector-effect="non-scaling-stroke" d="
  M 82.79 161.75
  Q 84.28 165.51 88.06 165.19
  Q 89.93 165.03 90.29 166.25"
/>
<path stroke="#a4b0ba" vector-effect="non-scaling-stroke" d="
  M 90.29 166.25
  Q 90.07 168.34 89.46 170.32
  Q 88.91 172.08 87.27 173.67
  Q 84.12 176.71 81.10 179.88
  Q 80.91 180.08 80.66 180.74
  L 79.71 183.25"
/>
<path stroke="#9ba9b2" vector-effect="non-scaling-stroke" d="
  M 79.71 183.25
  L 76.93 183.35
  C 76.66 183.36 76.36 183.52 76.10 183.80
  Q 70.98 189.29 66.00 194.92
  Q 57.96 203.99 56.42 206.46
  Q 52.15 213.29 51.46 221.75"
/>
<path stroke="#49545c" vector-effect="non-scaling-stroke" d="
  M 51.46 221.75
  Q 50.55 221.92 50.50 222.75
  Q 50.12 229.15 53.96 234.75"
/>
<path stroke="#3f4952" vector-effect="non-scaling-stroke" d="
  M 53.96 234.75
  L 57.02 238.97
  C 57.30 239.36 57.89 239.53 58.52 239.40
  L 61.71 238.75"
/>
<path stroke="#516a7c" vector-effect="non-scaling-stroke" d="
  M 61.71 238.75
  Q 63.43 241.05 66.05 241.30
  Q 69.12 241.58 69.41 241.62
  Q 71.23 241.88 73.05 241.44
  Q 73.99 241.22 74.44 241.41
  Q 75.34 241.80 75.04 243.00"
/>
<path stroke="#405666" vector-effect="non-scaling-stroke" d="
  M 75.04 243.00
  Q 74.42 243.73 75.27 243.89
  Q 86.25 246.01 97.25 248.04"
/>
<path stroke="#454f59" vector-effect="non-scaling-stroke" d="
  M 97.25 248.04
  Q 98.89 252.21 102.50 254.71"
/>
<path stroke="#92a0aa" vector-effect="non-scaling-stroke" d="
  M 102.50 254.71
  Q 102.09 255.42 102.94 256.06
  Q 105.58 258.05 107.79 258.61
  Q 115.75 260.63 123.75 262.54"
/>
<path stroke="#59646f" vector-effect="non-scaling-stroke" d="
  M 123.75 262.54
  Q 124.64 267.07 128.50 269.71"
/>
<path stroke="#49545c" vector-effect="non-scaling-stroke" d="
  M 128.50 269.71
  Q 130.12 271.50 132.50 272.04"
/>
<path stroke="#5e7081" vector-effect="non-scaling-stroke" d="
  M 132.50 272.04
  Q 133.27 274.51 130.31 275.38
  Q 128.17 276.01 125.94 275.95
  Q 112.20 275.60 97.27 275.85
  Q 91.62 275.95 83.28 276.84
  Q 76.28 277.59 69.26 277.97
  C 68.95 277.99 68.64 278.10 68.35 278.30
  Q 67.99 278.54 67.81 278.56
  Q 62.12 279.20 59.25 281.75
  Q 56.45 284.24 59.94 285.56
  Q 64.05 287.12 67.91 287.10
  Q 69.99 287.09 71.56 287.34
  Q 73.39 287.63 75.24 287.73
  Q 78.21 287.87 80.69 288.38
  Q 86.88 289.66 93.21 289.28
  Q 96.31 289.09 99.25 289.57
  Q 105.35 290.56 110.50 290.00
  Q 113.38 289.68 115.72 289.97
  Q 119.75 290.46 120.84 290.43
  Q 127.47 290.28 134.11 290.36
  Q 137.23 290.40 142.24 290.02
  Q 146.33 289.72 150.41 289.84
  Q 162.12 290.18 162.60 290.17
  Q 185.59 289.91 208.59 290.19
  Q 208.64 290.20 216.90 290.66
  Q 223.23 291.01 229.47 289.72
  Q 229.52 289.71 233.41 288.43
  Q 235.68 287.68 238.50 287.75
  Q 240.85 287.80 243.75 287.20
  Q 245.21 286.89 248.74 285.56
  Q 252.16 284.27 255.77 283.59
  C 256.03 283.54 256.31 283.70 256.43 283.98
  Q 257.03 285.33 257.94 283.94
  Q 259.71 281.24 257.20 281.32
  Q 257.04 281.33 255.21 281.70
  Q 252.06 282.34 249.61 280.10
  C 249.40 279.91 249.25 279.62 249.18 279.26
  Q 248.93 278.08 248.08 277.37
  Q 247.39 276.80 245.75 276.72
  Q 243.38 276.59 238.00 276.00
  Q 224.11 274.48 203.75 274.44
  Q 197.32 274.43 191.00 273.25
  Q 189.13 272.90 189.21 271.00"
/>
<path stroke="#444e57" vector-effect="non-scaling-stroke" d="
  M 189.21 271.00
  L 189.54 270.50"
/>
<path stroke="#49545c" vector-effect="non-scaling-stroke" d="
  M 189.54 270.50
  Q 194.69 265.74 198.75 260.04"
/>
<path stroke="#3f4952" vector-effect="non-scaling-stroke" d="
  M 198.75 260.04
  L 202.25 255.79"
/>
<path stroke="#7d8c98" vector-effect="non-scaling-stroke" d="
  M 202.25 255.79
  Q 210.63 252.73 217.19 251.19
  Q 223.38 249.73 225.46 244.00"
/>
<path stroke="#454f59" vector-effect="non-scaling-stroke" d="
  M 225.46 244.00
  Q 227.96 239.66 228.06 234.64
  C 228.07 234.48 228.01 234.35 227.92 234.30
  L 227.75 234.21"
/>
<path stroke="#7e8d9a" vector-effect="non-scaling-stroke" d="
  M 227.75 234.21
  Q 228.48 233.74 228.50 233.25
  Q 228.67 227.91 229.11 222.58
  Q 229.31 220.19 230.57 218.41
  Q 231.80 216.68 233.94 213.94
  Q 239.49 206.83 239.21 197.00"
/>
<path stroke="#93a1ab" vector-effect="non-scaling-stroke" d="
  M 239.21 197.00
  Q 240.28 186.50 239.22 176.00
  Q 237.96 163.58 235.96 151.25"
/>
<path stroke="#8796a1" vector-effect="non-scaling-stroke" d="
  M 235.96 151.25
  L 236.21 142.75"
/>
<path stroke="#9eaab0" vector-effect="non-scaling-stroke" d="
  M 236.21 142.75
  Q 236.32 139.16 235.75 133.25
  Q 233.15 106.44 228.64 82.97
  Q 224.49 61.41 216.99 40.79
  Q 215.98 38.01 214.27 35.69
  Q 213.03 34.01 210.92 33.47
  Q 207.78 32.67 204.50 32.57
  Q 185.87 31.98 167.25 32.71"
/>
<path stroke="#59646f" vector-effect="non-scaling-stroke" d="
  M 167.25 32.71
  Q 167.39 31.39 166.00 31.46"
/>
<path stroke="#987271" vector-effect="non-scaling-stroke" d="
  M 166.00 31.46
  Q 167.06 25.64 165.75 19.25
  Q 165.25 16.81 165.04 12.75"
/>
<path stroke="#49545c" vector-effect="non-scaling-stroke" d="
  M 165.04 12.75
  Q 166.13 8.99 162.66 9.18
  Q 161.39 9.25 161.34 9.25
  Q 143.37 9.38 125.48 11.06
  Q 118.46 11.72 111.69 13.69
  Q 108.80 14.54 108.11 17.26
  C 108.02 17.60 108.09 17.94 108.29 18.17
  Q 109.04 19.03 109.96 17.75"
/>
<path stroke="#794a41" vector-effect="non-scaling-stroke" d="
  M 165.04 12.75
  Q 164.69 13.04 163.30 11.75
  C 162.92 11.40 162.41 11.22 161.90 11.24
  L 141.75 12.21"
/>
<path stroke="#6d7374" vector-effect="non-scaling-stroke" d="
  M 141.75 12.21
  L 126.00 13.21"
/>
<path stroke="#8a3a2b" vector-effect="non-scaling-stroke" d="
  M 126.00 13.21
  Q 118.78 13.26 112.50 15.25
  Q 110.71 15.82 109.96 17.75"
/>
<path stroke="#994b3e" vector-effect="non-scaling-stroke" d="
  M 116.75 34.54
  L 110.50 35.29"
/>
<path stroke="#885b54" vector-effect="non-scaling-stroke" d="
  M 166.00 31.46
  Q 164.29 31.90 162.55 31.87
  Q 159.51 31.82 159.44 31.82
  Q 138.07 32.81 116.75 34.54"
/>
<path stroke="#d85840" vector-effect="non-scaling-stroke" d="
  M 116.75 34.54
  Q 114.38 34.87 115.38 33.84
  C 115.59 33.63 115.89 33.48 116.25 33.42
  L 120.50 32.79"
/>
<path stroke="#e06438" vector-effect="non-scaling-stroke" d="
  M 120.50 32.79
  L 121.50 32.71"
/>
<path stroke="#dc513f" vector-effect="non-scaling-stroke" d="
  M 121.50 32.71
  Q 126.31 32.25 131.12 32.17
  Q 136.79 32.08 140.72 31.71
  Q 151.29 30.70 161.18 30.29
  Q 164.59 30.15 164.29 26.75
  Q 163.85 21.66 163.41 16.93
  Q 163.19 14.55 162.49 13.76
  Q 161.21 12.33 158.50 13.54"
/>
<path stroke="#e06438" vector-effect="non-scaling-stroke" d="
  M 158.50 13.54
  Q 155.77 13.04 154.75 13.25
  Q 153.01 13.61 151.34 13.26
  Q 149.09 12.78 148.09 12.84
  Q 145.54 12.98 143.00 13.21"
/>
<path stroke="#bb9189" vector-effect="non-scaling-stroke" d="
  M 143.00 13.21
  Q 143.62 11.79 141.75 12.21"
/>
<path stroke="#d48d6b" vector-effect="non-scaling-stroke" d="
  M 143.00 13.21
  L 130.50 14.04"
/>
<path stroke="#cc8173" vector-effect="non-scaling-stroke" d="
  M 130.50 14.04
  Q 128.02 14.45 126.00 13.21"
/>
<path stroke="#8e9393" vector-effect="non-scaling-stroke" d="
  M 167.25 32.71
  Q 146.71 33.20 126.25 35.04"
/>
<path stroke="#989c9d" vector-effect="non-scaling-stroke" d="
  M 126.25 35.04
  L 109.25 36.54"
/>
<path stroke="#f54d21" vector-effect="non-scaling-stroke" d="
  M 158.50 13.54
  Q 156.18 15.04 152.25 15.00
  Q 146.97 14.95 140.59 15.93
  C 139.73 16.06 139.22 16.97 139.55 17.77
  Q 142.26 24.34 138.31 29.37
  C 138.13 29.60 137.82 29.72 137.50 29.70
  Q 134.73 29.48 132.08 30.12
  Q 131.03 30.38 129.38 30.44
  Q 127.95 30.49 126.64 31.05
  Q 124.96 31.77 124.12 31.97
  Q 122.79 32.28 121.50 32.71"
/>
<path stroke="#f15422" vector-effect="non-scaling-stroke" d="
  M 120.50 32.79
  Q 118.10 33.32 117.79 31.50
  C 117.75 31.24 117.84 30.92 118.05 30.61
  Q 118.83 29.48 118.69 28.16
  Q 118.52 26.44 118.52 26.31
  Q 118.55 24.19 118.52 22.06
  Q 118.52 21.99 118.17 19.48
  Q 117.90 17.49 119.18 15.70
  C 119.35 15.46 119.58 15.31 119.83 15.28
  L 130.50 14.04"
/>
<path stroke="#edefee" vector-effect="non-scaling-stroke" d="
  M 78.29 105.25
  Q 79.44 106.59 80.69 105.94
  Q 83.71 104.34 84.99 100.50
  Q 88.73 89.19 94.56 78.81
  Q 98.51 71.77 105.97 55.84
  Q 106.61 54.46 108.49 49.37
  Q 109.69 46.10 111.49 43.10
  Q 112.69 41.09 112.56 39.60
  Q 112.25 36.10 108.10 37.89
  Q 104.10 39.61 99.75 39.25
  Q 98.64 39.16 98.25 39.71"
/>
<path stroke="#f2f4f3" vector-effect="non-scaling-stroke" d="
  M 98.25 39.71
  Q 95.60 40.05 93.03 40.74
  Q 90.76 41.34 87.87 41.82
  Q 82.96 42.63 78.54 45.00"
/>
<path stroke="#bcc4c5" vector-effect="non-scaling-stroke" d="
  M 236.21 142.75
  Q 226.70 142.41 224.50 143.25
  Q 220.65 144.71 216.55 145.03
  C 216.27 145.05 215.96 145.17 215.67 145.38
  L 214.00 146.54"
/>
<path stroke="#b3bcbe" vector-effect="non-scaling-stroke" d="
  M 214.00 146.54
  Q 212.87 132.16 211.88 117.76
  Q 211.64 114.25 208.30 113.48
  Q 204.94 112.69 201.50 112.97
  Q 179.25 114.77 156.99 116.35
  Q 134.97 117.91 111.55 120.14
  Q 110.05 120.28 108.71 120.99
  Q 107.42 121.66 107.75 122.96"
/>
<path stroke="#75858a" vector-effect="non-scaling-stroke" d="
  M 107.75 122.96
  Q 105.63 124.53 106.00 128.00
  Q 107.12 138.54 107.54 158.25"
/>
<path stroke="#c7cfce" vector-effect="non-scaling-stroke" d="
  M 107.54 158.25
  Q 107.74 160.86 106.05 159.41
  C 105.79 159.18 105.48 159.05 105.18 159.03
  Q 101.75 158.81 98.36 159.21
  Q 95.87 159.50 91.60 159.75
  Q 87.06 160.03 82.79 161.75"
/>
<path stroke="#dde1de" vector-effect="non-scaling-stroke" d="
  M 78.25 41.04
  L 78.54 45.00"
/>
<path stroke="#e8ebe9" vector-effect="non-scaling-stroke" d="
  M 78.54 45.00
  Q 77.23 49.30 77.28 53.74
  Q 77.35 60.14 77.35 60.26
  Q 76.90 71.38 77.29 82.50"
/>
<path stroke="#e3e6e4" vector-effect="non-scaling-stroke" d="
  M 77.29 82.50
  L 78.29 105.25"
/>
<path stroke="#dde1de" vector-effect="non-scaling-stroke" d="
  M 78.29 105.25
  L 79.70 123.75
  C 79.72 124.04 79.96 124.27 80.25 124.26
  Q 83.31 124.16 84.44 120.94
  Q 87.29 112.78 93.50 104.75
  Q 95.21 102.53 98.14 95.41
  Q 100.42 89.88 102.43 85.92
  Q 104.28 82.27 106.11 78.61
  Q 106.52 77.78 109.48 71.15
  Q 111.44 66.78 114.50 61.50
  Q 118.71 54.25 122.51 43.42
  Q 122.91 42.27 123.82 40.74
  Q 124.59 39.44 125.14 38.03
  Q 125.26 37.72 125.25 37.06
  Q 125.25 36.05 126.25 35.60
  C 126.39 35.54 126.46 35.38 126.39 35.26
  L 126.25 35.04"
/>
<path stroke="#f8f8f8" vector-effect="non-scaling-stroke" d="
  M 77.29 82.50
  Q 77.46 83.70 78.22 83.92
  Q 78.77 84.08 79.54 83.51
  Q 81.94 81.75 83.65 79.36
  Q 86.49 75.40 86.78 75.00
  Q 89.21 71.70 90.81 67.06
  Q 91.80 64.19 93.95 60.96
  Q 96.17 57.59 97.29 55.05
  Q 99.28 50.55 101.46 46.14
  Q 101.65 45.76 102.09 45.41
  Q 103.38 44.39 102.91 42.73
  Q 102.78 42.24 102.82 41.76
  Q 102.91 40.76 102.50 39.92
  C 102.36 39.64 102.07 39.47 101.75 39.49
  L 98.25 39.71"
/>
<path stroke="#9ca8af" vector-effect="non-scaling-stroke" d="
  M 214.00 146.54
  Q 214.41 151.13 213.25 155.54"
/>
<path stroke="#b3bcbe" vector-effect="non-scaling-stroke" d="
  M 213.25 155.54
  L 212.50 155.46"
/>
<path stroke="#556874" vector-effect="non-scaling-stroke" d="
  M 212.50 155.46
  Q 211.12 135.35 211.00 129.50
  Q 210.87 123.26 209.25 117.24
  C 208.98 116.25 208.12 115.54 207.10 115.47
  Q 201.00 115.03 194.50 115.51
  Q 170.25 117.33 146.00 119.25
  Q 119.64 121.33 107.75 122.96"
/>
<path stroke="#75858a" vector-effect="non-scaling-stroke" d="
  M 212.50 155.46
  L 194.50 157.29"
/>
<path stroke="#546771" vector-effect="non-scaling-stroke" d="
  M 194.50 157.29
  Q 175.33 158.00 156.25 159.96"
/>
<path stroke="#5a6c76" vector-effect="non-scaling-stroke" d="
  M 156.25 159.96
  L 149.00 160.46"
/>
<path stroke="#63757e" vector-effect="non-scaling-stroke" d="
  M 149.00 160.46
  L 146.00 160.79"
/>
<path stroke="#697b83" vector-effect="non-scaling-stroke" d="
  M 146.00 160.79
  L 109.31 163.50
  C 108.46 163.56 107.73 162.81 107.69 161.85
  L 107.54 158.25"
/>
<path stroke="#b1bcbf" vector-effect="non-scaling-stroke" d="
  M 235.96 151.25
  Q 233.44 151.96 231.50 153.79"
/>
<path stroke="#aab5b9" vector-effect="non-scaling-stroke" d="
  M 231.50 153.79
  Q 230.06 153.62 227.94 154.44
  Q 224.92 155.60 218.75 155.71"
/>
<path stroke="#b1bcbf" vector-effect="non-scaling-stroke" d="
  M 218.75 155.71
  L 213.54 156.00"
/>
<path stroke="#bcc4c5" vector-effect="non-scaling-stroke" d="
  M 213.54 156.00
  L 213.25 155.54"
/>
<path stroke="#b5bfc2" vector-effect="non-scaling-stroke" d="
  M 146.00 160.79
  Q 146.37 161.52 146.66 162.28
  Q 146.94 163.00 146.91 163.88
  Q 146.64 171.56 146.75 179.25
  Q 146.82 183.93 144.09 192.71
  Q 144.09 192.72 143.63 193.57
  Q 143.34 194.11 143.79 194.75"
/>
<path stroke="#a6b1b5" vector-effect="non-scaling-stroke" d="
  M 143.79 194.75
  Q 142.32 195.32 140.75 195.21"
/>
<path stroke="#c4ced0" vector-effect="non-scaling-stroke" d="
  M 140.75 195.21
  Q 142.70 188.51 143.25 186.25
  Q 146.09 174.67 142.76 163.01
  Q 142.16 160.91 140.16 161.77
  Q 138.43 162.52 137.59 163.98
  Q 137.38 164.34 136.38 167.00
  Q 134.42 172.20 134.25 179.25
  Q 134.02 188.67 135.50 194.96"
/>
<path stroke="#a6b1b5" vector-effect="non-scaling-stroke" d="
  M 135.50 194.96
  Q 125.32 194.50 115.25 192.96"
/>
<path stroke="#c4ced0" vector-effect="non-scaling-stroke" d="
  M 115.25 192.96
  Q 116.93 189.87 115.39 187.38
  Q 113.77 184.74 113.60 184.32
  Q 111.73 179.81 108.88 175.85
  Q 108.00 174.63 107.27 172.75
  Q 106.62 171.09 105.61 169.60
  Q 105.37 169.25 105.26 168.70
  Q 105.08 167.74 104.30 167.25
  Q 103.34 166.67 103.27 166.62
  Q 99.89 164.06 95.50 165.21"
/>
<path stroke="#ced5d7" vector-effect="non-scaling-stroke" d="
  M 95.50 165.21
  Q 94.03 165.27 92.57 165.43
  Q 92.48 165.44 91.44 165.40
  Q 90.57 165.37 90.29 166.25"
/>
<path stroke="#c8d0cf" vector-effect="non-scaling-stroke" d="
  M 213.54 156.00
  Q 217.60 160.51 219.00 166.46"
/>
<path stroke="#6d706d" vector-effect="non-scaling-stroke" d="
  M 219.00 166.46
  Q 213.60 165.20 209.19 167.69
  Q 204.35 170.42 201.78 175.98
  Q 197.05 186.21 202.04 196.25"
/>
<path stroke="#757876" vector-effect="non-scaling-stroke" d="
  M 202.04 196.25
  L 202.79 197.50"
/>
<path stroke="#797d7b" vector-effect="non-scaling-stroke" d="
  M 202.79 197.50
  Q 205.34 201.60 209.00 203.25
  Q 215.54 206.19 221.45 201.71
  Q 224.77 199.19 226.71 195.50"
/>
<path stroke="#757876" vector-effect="non-scaling-stroke" d="
  M 226.71 195.50
  Q 227.89 193.81 228.25 191.79"
/>
<path stroke="#6f7270" vector-effect="non-scaling-stroke" d="
  M 228.25 191.79
  Q 230.26 186.43 229.46 180.75"
/>
<path stroke="#b3bcbe" vector-effect="non-scaling-stroke" d="
  M 230.71 180.75
  Q 232.81 196.09 220.25 204.29"
/>
<path stroke="#c7cfce" vector-effect="non-scaling-stroke" d="
  M 220.25 204.29
  L 213.44 205.97
  Q 212.44 206.21 211.84 206.66
  Q 207.29 210.09 203.81 211.56
  Q 202.09 212.29 198.31 215.49
  Q 198.23 215.56 196.02 217.84
  Q 194.67 219.23 193.00 219.75
  Q 189.67 220.79 188.83 223.82
  Q 187.00 230.40 184.31 224.37
  Q 183.80 223.24 183.96 225.00"
/>
<path stroke="#6d706d" vector-effect="non-scaling-stroke" d="
  M 183.96 225.00
  L 183.46 223.75"
/>
<path stroke="#c1c9c8" vector-effect="non-scaling-stroke" d="
  M 183.46 223.75
  Q 183.65 222.35 182.79 221.25"
/>
<path stroke="#6f7270" vector-effect="non-scaling-stroke" d="
  M 182.79 221.25
  Q 182.11 216.56 178.00 214.71"
/>
<path stroke="#96a2a7" vector-effect="non-scaling-stroke" d="
  M 178.00 214.71
  Q 176.85 213.68 175.25 214.04"
/>
<path stroke="#6f7270" vector-effect="non-scaling-stroke" d="
  M 175.25 214.04
  Q 168.87 213.88 165.75 208.68
  C 165.59 208.42 165.29 208.28 165.00 208.33
  Q 161.46 209.02 163.87 212.72
  Q 164.84 214.23 166.16 214.57
  L 175.54 217.00"
/>
<path stroke="#c8d0cf" vector-effect="non-scaling-stroke" d="
  M 175.54 217.00
  Q 174.65 219.10 172.13 218.21
  C 171.83 218.10 171.49 218.16 171.25 218.38
  Q 169.43 220.02 167.22 220.78
  Q 164.27 221.81 163.19 222.51
  Q 157.85 225.97 152.75 229.79"
/>
<path stroke="#6d706d" vector-effect="non-scaling-stroke" d="
  M 152.75 229.79
  L 150.75 227.71"
/>
<path stroke="#757876" vector-effect="non-scaling-stroke" d="
  M 150.75 227.71
  Q 147.98 226.34 145.00 227.29"
/>
<path stroke="#7a7e7d" vector-effect="non-scaling-stroke" d="
  M 145.00 227.29
  Q 137.71 229.17 130.75 232.04"
/>
<path stroke="#d9deda" vector-effect="non-scaling-stroke" d="
  M 130.75 232.04
  Q 130.01 231.82 131.48 230.69
  Q 132.18 230.15 132.52 229.34
  Q 134.76 224.05 137.46 220.12
  Q 138.50 218.61 139.38 216.47
  Q 140.38 214.06 141.69 212.94
  Q 144.54 210.51 145.44 208.69
  Q 146.21 207.13 147.10 206.18
  Q 149.02 204.15 149.10 204.03
  Q 151.50 200.42 152.90 196.29
  Q 153.00 196.02 153.50 195.57
  L 155.79 193.50"
/>
<path stroke="#7f8280" vector-effect="non-scaling-stroke" d="
  M 155.79 193.50
  Q 159.01 200.03 161.22 206.97
  Q 161.69 208.46 162.52 207.47
  Q 162.83 207.10 163.27 206.89
  Q 164.30 206.40 164.46 205.25"
/>
<path stroke="#d9deda" vector-effect="non-scaling-stroke" d="
  M 164.46 205.25
  L 164.52 204.27
  Q 164.57 203.53 164.83 204.29
  Q 165.82 207.21 168.83 207.43
  Q 169.08 207.44 169.28 207.51
  Q 171.05 208.15 169.37 208.08
  C 169.22 208.08 169.11 208.23 169.17 208.36
  Q 169.52 209.09 170.19 208.44
  Q 173.20 205.49 174.99 202.45
  Q 176.85 199.30 178.20 197.56
  Q 181.59 193.18 184.25 187.25
  Q 186.09 183.14 189.51 178.39
  Q 190.99 176.34 191.87 173.86
  Q 192.65 171.66 193.76 169.04
  Q 194.18 168.05 195.03 167.39
  Q 197.29 165.66 198.32 162.80
  Q 198.36 162.67 198.61 162.10
  Q 199.10 161.01 197.74 161.16
  C 197.47 161.20 197.19 161.07 197.00 160.82
  Q 196.42 160.08 195.49 160.98
  Q 193.87 162.54 191.61 163.30
  Q 190.84 163.55 190.24 164.09
  Q 187.86 166.22 184.33 167.11
  Q 182.22 167.64 180.49 168.95
  Q 177.62 171.12 173.06 173.56
  Q 168.48 176.02 166.25 178.21"
/>
<path stroke="#dfe4e0" vector-effect="non-scaling-stroke" d="
  M 166.25 178.21
  Q 164.91 179.86 162.93 179.84
  C 162.67 179.84 162.45 179.62 162.39 179.32
  Q 162.22 178.45 161.50 177.96"
/>
<path stroke="#b2babc" vector-effect="non-scaling-stroke" d="
  M 161.50 177.96
  Q 175.46 164.96 193.23 158.11
  Q 193.33 158.07 193.98 157.54
  Q 194.19 157.37 194.50 157.29"
/>
<path stroke="#c4cbcc" vector-effect="non-scaling-stroke" d="
  M 154.46 185.75
  Q 153.95 186.75 153.32 187.68
  Q 153.00 188.16 153.07 188.54
  Q 153.20 189.31 154.27 188.79
  Q 155.98 187.96 157.25 189.21"
/>
<path stroke="#acb6ba" vector-effect="non-scaling-stroke" d="
  M 157.25 189.21
  L 156.00 190.04"
/>
<path stroke="#646a6c" vector-effect="non-scaling-stroke" d="
  M 156.00 190.04
  Q 154.04 189.78 154.46 191.75"
/>
<path stroke="#bec6c6" vector-effect="non-scaling-stroke" d="
  M 154.46 191.75
  Q 154.21 189.91 152.97 190.65
  C 152.69 190.82 152.37 190.86 152.09 190.77
  Q 150.60 190.31 149.00 190.46"
/>
<path stroke="#a6b0b4" vector-effect="non-scaling-stroke" d="
  M 149.00 190.46
  Q 148.43 185.46 149.25 181.75
  Q 150.03 178.24 150.22 175.27
  Q 150.59 169.64 150.69 168.76
  Q 151.13 164.79 151.00 161.50
  Q 150.94 159.94 149.00 160.46"
/>
<path stroke="#bec6c8" vector-effect="non-scaling-stroke" d="
  M 161.50 177.96
  L 154.46 185.75"
/>
<path stroke="#97a2a8" vector-effect="non-scaling-stroke" d="
  M 154.46 185.75
  Q 153.16 184.57 153.32 182.73
  Q 153.44 181.41 153.48 180.08
  Q 153.52 178.89 153.85 177.47
  Q 154.71 173.78 154.56 168.19
  Q 154.49 165.33 156.39 161.40
  Q 156.46 161.27 156.83 160.78
  Q 157.31 160.14 156.25 159.96"
/>
<path stroke="#c7cfce" vector-effect="non-scaling-stroke" d="
  M 149.00 190.46
  Q 148.37 190.38 148.00 190.71"
/>
<path stroke="#cdd4d4" vector-effect="non-scaling-stroke" d="
  M 148.00 190.71
  L 144.54 195.00"
/>
<path stroke="#a0abb0" vector-effect="non-scaling-stroke" d="
  M 144.54 195.00
  Q 144.29 194.60 143.79 194.75"
/>
<path stroke="#626768" vector-effect="non-scaling-stroke" d="
  M 223.00 168.29
  L 219.00 166.46"
/>
<path stroke="#a1acb2" vector-effect="non-scaling-stroke" d="
  M 232.21 160.25
  Q 230.71 159.00 229.43 159.98
  C 229.19 160.16 229.07 160.47 229.10 160.81
  Q 229.35 164.06 230.34 166.60
  Q 230.84 167.89 230.98 169.09
  L 231.95 177.01
  C 231.99 177.28 231.85 177.57 231.59 177.77
  Q 230.28 178.80 230.71 180.75"
/>
<path stroke="#c1c9c8" vector-effect="non-scaling-stroke" d="
  M 230.71 180.75
  Q 230.06 180.61 229.46 180.75"
/>
<path stroke="#5d6364" vector-effect="non-scaling-stroke" d="
  M 229.46 180.75
  L 229.29 180.75"
/>
<path stroke="#5b6061" vector-effect="non-scaling-stroke" d="
  M 229.29 180.75
  Q 228.59 173.23 223.00 168.29"
/>
<path stroke="#b6c0c3" vector-effect="non-scaling-stroke" d="
  M 223.00 168.29
  Q 226.04 163.40 225.14 157.23
  C 225.01 156.37 224.26 155.74 223.38 155.74
  L 218.75 155.71"
/>
<path stroke="#a8b3b9" vector-effect="non-scaling-stroke" d="
  M 239.21 197.00
  Q 237.97 198.20 236.69 197.26
  C 236.45 197.09 236.31 196.79 236.32 196.45
  Q 236.38 193.28 236.25 184.00
  Q 236.08 171.34 232.21 160.25"
/>
<path stroke="#b6c0c3" vector-effect="non-scaling-stroke" d="
  M 232.21 160.25
  Q 231.61 158.33 230.75 156.50
  Q 230.04 154.98 231.50 153.79"
/>
<path stroke="#afb9be" vector-effect="non-scaling-stroke" d="
  M 140.75 195.21
  L 135.50 194.96"
/>
<path stroke="#afb9be" vector-effect="non-scaling-stroke" d="
  M 115.25 192.96
  L 113.00 192.96"
/>
<path stroke="#c5cfd1" vector-effect="non-scaling-stroke" d="
  M 113.00 192.96
  L 104.75 191.79"
/>
<path stroke="#d7dee0" vector-effect="non-scaling-stroke" d="
  M 104.75 191.79
  Q 105.17 191.76 105.56 191.61
  Q 105.93 191.47 106.16 191.08
  Q 108.16 187.76 106.63 184.59
  Q 105.13 181.46 105.09 181.36
  Q 103.35 176.81 100.26 173.07
  Q 98.69 171.17 97.92 169.46
  Q 97.01 167.47 96.10 165.48
  C 96.05 165.37 95.92 165.28 95.75 165.25
  L 95.50 165.21"
/>
<path stroke="#cfd6d8" vector-effect="non-scaling-stroke" d="
  M 104.75 191.79
  Q 95.70 191.13 87.21 188.00"
/>
<path stroke="#9ca8b1" vector-effect="non-scaling-stroke" d="
  M 87.21 188.00
  L 88.41 176.82
  Q 88.47 176.24 88.05 176.64
  L 84.00 180.54"
/>
<path stroke="#cfd6d8" vector-effect="non-scaling-stroke" d="
  M 84.00 180.54
  Q 81.73 180.62 81.29 182.75"
/>
<path stroke="#7b7e80" vector-effect="non-scaling-stroke" d="
  M 81.29 182.75
  Q 81.00 183.07 80.96 183.50"
/>
<path stroke="#9ca8b1" vector-effect="non-scaling-stroke" d="
  M 80.96 183.50
  L 79.79 183.75"
/>
<path stroke="#d7dee0" vector-effect="non-scaling-stroke" d="
  M 79.79 183.75
  L 79.71 183.25"
/>
<path stroke="#858886" vector-effect="non-scaling-stroke" d="
  M 164.46 205.25
  Q 164.13 204.99 164.21 204.50"
/>
<path stroke="#cdd5d4" vector-effect="non-scaling-stroke" d="
  M 164.21 204.50
  Q 164.35 200.72 162.79 197.25"
/>
<path stroke="#e5eae6" vector-effect="non-scaling-stroke" d="
  M 162.79 197.25
  Q 165.04 198.44 166.00 196.25
  Q 167.86 192.00 170.22 189.22
  Q 173.52 185.33 173.75 182.50
  Q 174.05 178.89 176.97 176.31
  C 177.61 175.74 177.91 174.89 177.79 174.05
  Q 177.37 171.12 175.72 173.00
  Q 175.00 173.82 174.45 174.18
  Q 170.60 176.67 166.25 178.21"
/>
<path stroke="#111212" vector-effect="non-scaling-stroke" d="
  M 228.25 191.79
  Q 227.28 191.52 226.60 190.87
  C 226.39 190.68 226.24 190.37 226.17 190.00
  Q 225.69 187.55 223.88 186.00
  Q 223.29 185.50 221.82 184.97
  Q 220.73 184.57 219.70 183.97
  Q 217.80 182.85 217.72 185.06
  Q 217.62 188.31 214.54 190.79
  Q 212.51 192.43 210.58 191.12
  C 210.32 190.94 210.15 190.64 210.12 190.32
  Q 209.92 188.33 210.92 186.61
  C 211.08 186.33 211.14 186.01 211.09 185.70
  Q 210.82 184.07 211.25 182.00
  Q 211.96 178.58 208.50 178.46"
/>
<path stroke="#323c43" vector-effect="non-scaling-stroke" d="
  M 175.25 214.04
  Q 176.30 215.22 178.00 214.71"
/>
<path stroke="#5d6364" vector-effect="non-scaling-stroke" d="
  M 182.79 221.25
  Q 181.51 222.84 179.54 222.75"
/>
<path stroke="#646a6b" vector-effect="non-scaling-stroke" d="
  M 179.54 222.75
  Q 178.76 218.95 175.54 217.00"
/>
<path stroke="#858886" vector-effect="non-scaling-stroke" d="
  M 155.79 193.50
  L 154.46 191.75"
/>
<path stroke="#5b6061" vector-effect="non-scaling-stroke" d="
  M 183.46 223.75
  Q 181.16 223.14 180.68 224.75
  Q 180.48 225.42 180.90 227.10
  Q 181.19 228.28 181.29 229.50"
/>
<path stroke="#686e71" vector-effect="non-scaling-stroke" d="
  M 142.25 253.21
  Q 139.08 253.49 136.00 252.71"
/>
<path stroke="#748994" vector-effect="non-scaling-stroke" d="
  M 136.00 252.71
  Q 133.39 252.21 132.21 250.00"
/>
<path stroke="#5b6061" vector-effect="non-scaling-stroke" d="
  M 132.21 250.00
  Q 143.30 245.32 151.71 236.75"
/>
<path stroke="#1c1d1f" vector-effect="non-scaling-stroke" d="
  M 123.50 232.46
  L 123.67 238.56
  C 123.68 238.86 123.87 239.13 124.16 239.21
  Q 129.26 240.78 133.89 238.84
  Q 137.49 237.33 138.83 236.48
  Q 141.33 234.90 142.14 231.75
  Q 142.24 231.33 142.09 230.78
  Q 141.53 228.71 143.81 228.31
  Q 144.31 228.23 145.00 227.29"
/>
<path stroke="#0e0f0f" vector-effect="non-scaling-stroke" d="
  M 150.75 227.71
  Q 147.45 226.50 147.63 228.95
  C 147.65 229.24 147.56 229.55 147.38 229.83
  Q 146.81 230.72 147.00 232.00
  Q 147.51 235.38 144.70 237.01
  Q 144.30 237.24 144.02 237.70
  Q 143.52 238.53 142.58 238.86
  Q 138.96 240.13 135.75 242.19
  Q 133.88 243.39 131.84 244.08
  Q 129.75 244.79 127.75 245.75
  Q 124.14 247.48 128.06 248.44
  Q 128.75 248.61 128.96 249.25"
/>
<path stroke="#283842" vector-effect="non-scaling-stroke" d="
  M 128.96 249.25
  Q 127.99 248.86 127.08 248.35
  Q 126.10 247.80 125.15 247.68
  Q 105.42 245.17 85.71 242.49
  Q 80.47 241.78 74.84 240.77
  Q 69.42 239.79 63.99 238.84
  Q 63.68 238.78 63.09 238.44
  Q 62.32 238.00 61.71 238.75"
/>
<path stroke="#202222" vector-effect="non-scaling-stroke" d="
  M 53.96 234.75
  Q 53.98 233.70 55.88 233.33
  C 56.54 233.20 56.91 232.50 56.66 231.88
  Q 54.87 227.54 56.99 223.92
  C 57.12 223.70 57.38 223.50 57.73 223.37
  Q 58.57 223.03 58.25 222.21"
/>
<path stroke="#d3dada" vector-effect="non-scaling-stroke" d="
  M 162.79 197.25
  Q 162.33 195.86 160.44 191.56
  Q 159.45 189.33 157.25 189.21"
/>
<path stroke="#1b1c1d" vector-effect="non-scaling-stroke" d="
  M 226.71 195.50
  Q 225.05 195.63 224.02 194.80
  Q 223.46 194.35 222.96 192.53
  Q 222.14 189.54 218.80 189.11
  C 218.51 189.07 218.19 189.18 217.94 189.40
  Q 213.95 192.93 208.50 192.25
  Q 206.95 192.06 205.06 192.56
  Q 202.92 193.14 203.50 195.50
  Q 203.75 196.51 202.79 197.50"
/>
<path stroke="#b6c0c3" vector-effect="non-scaling-stroke" d="
  M 179.54 222.75
  Q 177.05 224.89 173.00 226.25
  Q 169.49 227.43 159.44 231.94
  Q 157.53 232.79 156.76 233.55
  Q 156.38 233.93 155.97 234.08
  Q 154.27 234.70 153.79 236.45
  C 153.70 236.81 153.50 237.09 153.27 237.20
  Q 152.36 237.65 151.71 236.75"
/>
<path stroke="#626768" vector-effect="non-scaling-stroke" d="
  M 151.71 236.75
  Q 154.03 233.56 152.75 229.79"
/>
<path stroke="#808483" vector-effect="non-scaling-stroke" d="
  M 130.75 232.04
  Q 127.20 234.04 123.50 232.46"
/>
<path stroke="#7b7e7c" vector-effect="non-scaling-stroke" d="
  M 123.50 232.46
  L 124.21 226.25"
/>
<path stroke="#7b8b90" vector-effect="non-scaling-stroke" d="
  M 124.21 226.25
  L 124.96 224.50"
/>
<path stroke="#e5eae6" vector-effect="non-scaling-stroke" d="
  M 124.96 224.50
  Q 125.30 226.00 126.25 224.95
  Q 126.58 224.59 127.04 224.39
  Q 128.85 223.62 129.94 221.19
  Q 130.80 219.27 135.50 213.25
  Q 137.33 210.91 138.27 208.94
  Q 139.58 206.21 140.47 205.04
  Q 142.24 202.72 143.75 200.22
  Q 144.46 199.04 146.33 197.28
  Q 148.11 195.59 148.83 193.16
  Q 148.95 192.76 149.34 191.90
  Q 150.00 190.43 148.00 190.71"
/>
<path stroke="#203039" vector-effect="non-scaling-stroke" d="
  M 132.21 250.00
  Q 130.46 250.13 128.96 249.25"
/>
<path stroke="#616667" vector-effect="non-scaling-stroke" d="
  M 184.50 229.71
  L 183.96 225.00"
/>
<path stroke="#5a6167" vector-effect="non-scaling-stroke" d="
  M 227.75 234.21
  Q 196.16 239.76 164.57 245.29
  Q 161.68 245.79 158.88 247.27
  Q 153.25 250.25 148.19 252.19
  Q 145.59 253.18 142.25 253.21"
/>
<path stroke="#a1acb2" vector-effect="non-scaling-stroke" d="
  M 142.25 253.21
  Q 141.70 251.08 142.54 250.50
  Q 143.63 249.74 144.45 248.70
  Q 146.47 246.18 148.25 246.00
  Q 148.86 245.94 149.20 245.76
  Q 154.41 242.91 159.69 240.19
  Q 162.24 238.87 164.31 238.25
  Q 168.90 236.88 169.07 236.81
  Q 172.86 235.14 175.57 232.99
  Q 177.01 231.85 178.82 231.60
  Q 181.29 231.25 181.29 229.50"
/>
<path stroke="#4d5357" vector-effect="non-scaling-stroke" d="
  M 181.29 229.50
  Q 181.96 234.36 184.50 229.71"
/>
<path stroke="#a7b2b8" vector-effect="non-scaling-stroke" d="
  M 184.50 229.71
  Q 186.34 229.86 187.06 228.46
  C 187.22 228.15 187.48 227.93 187.74 227.88
  L 189.50 227.56
  C 189.84 227.50 190.14 227.36 190.35 227.15
  Q 192.99 224.58 196.13 222.74
  Q 199.63 220.68 201.59 219.29
  Q 203.86 217.68 207.00 215.75
  Q 210.37 213.68 216.00 209.25
  Q 219.21 206.73 220.25 204.29"
/>
<path stroke="#090a09" vector-effect="non-scaling-stroke" d="
  M 229.29 180.75
  Q 229.26 182.78 227.72 182.49
  Q 227.00 182.36 226.18 181.48
  Q 218.74 173.42 208.50 178.46"
/>
<path stroke="#0e0f0f" vector-effect="non-scaling-stroke" d="
  M 208.50 178.46
  Q 204.82 181.99 204.74 187.07
  Q 204.74 187.15 204.90 188.91
  Q 205.09 190.95 203.50 190.71
  Q 201.35 190.38 202.45 192.25
  Q 203.92 194.75 202.04 196.25"
/>
<path stroke="#73797a" vector-effect="non-scaling-stroke" d="
  M 164.21 204.50
  Q 161.77 198.25 159.19 192.06
  Q 158.69 190.88 156.00 190.04"
/>
<path stroke="#819096" vector-effect="non-scaling-stroke" d="
  M 124.96 224.50
  L 128.71 216.00"
/>
<path stroke="#bec6c8" vector-effect="non-scaling-stroke" d="
  M 142.75 197.04
  Q 144.08 196.43 144.54 195.00"
/>
<path stroke="#a7b2b6" vector-effect="non-scaling-stroke" d="
  M 113.00 192.96
  Q 112.06 192.98 112.28 193.38
  C 112.39 193.56 112.65 193.70 112.99 193.76
  Q 126.35 195.87 134.81 195.94
  Q 139.97 195.98 142.75 197.04"
/>
<path stroke="#d4dbdb" vector-effect="non-scaling-stroke" d="
  M 142.75 197.04
  Q 142.14 198.47 141.14 199.65
  Q 134.51 207.50 128.71 216.00"
/>
<path stroke="#6a7c84" vector-effect="non-scaling-stroke" d="
  M 128.71 216.00
  Q 128.04 215.63 127.25 215.71"
/>
<path stroke="#68a9bc" vector-effect="non-scaling-stroke" d="
  M 127.25 215.71
  L 120.79 216.00"
/>
<path stroke="#679fb1" vector-effect="non-scaling-stroke" d="
  M 120.79 216.00
  Q 114.95 212.23 108.25 214.54"
/>
<path stroke="#68a9bc" vector-effect="non-scaling-stroke" d="
  M 108.25 214.54
  Q 106.34 214.96 104.75 213.79"
/>
<path stroke="#679fb1" vector-effect="non-scaling-stroke" d="
  M 104.75 213.79
  Q 99.06 210.58 92.75 212.21"
/>
<path stroke="#68a9bc" vector-effect="non-scaling-stroke" d="
  M 92.75 212.21
  L 89.50 212.79"
/>
<path stroke="#679fb1" vector-effect="non-scaling-stroke" d="
  M 89.50 212.79
  Q 88.04 212.23 87.71 210.75"
/>
<path stroke="#8b99a2" vector-effect="non-scaling-stroke" d="
  M 87.71 210.75
  L 87.21 202.75"
/>
<path stroke="#6a6f71" vector-effect="non-scaling-stroke" d="
  M 87.21 202.75
  Q 86.98 198.71 86.98 194.67
  Q 86.97 191.82 86.03 189.54
  Q 85.00 187.08 83.81 184.69
  Q 82.86 182.77 81.29 182.75"
/>
<path stroke="#8b99a2" vector-effect="non-scaling-stroke" d="
  M 87.21 188.00
  Q 85.62 186.10 84.89 183.72
  Q 84.77 183.33 84.40 182.89
  Q 83.58 181.89 84.00 180.54"
/>
<path stroke="#374149" vector-effect="non-scaling-stroke" d="
  M 87.21 202.75
  Q 86.39 202.69 86.23 202.03
  Q 86.02 201.19 86.00 201.15
  Q 83.85 196.29 83.26 191.00
  Q 83.14 189.88 82.41 189.04
  Q 82.19 188.79 82.05 188.18
  L 80.96 183.50"
/>
<path stroke="#35718a" vector-effect="non-scaling-stroke" d="
  M 87.71 210.75
  Q 86.76 210.86 85.44 210.06
  Q 83.45 208.87 80.33 209.06
  Q 76.28 209.30 72.25 208.79"
/>
<path stroke="#617d8e" vector-effect="non-scaling-stroke" d="
  M 72.25 208.79
  Q 72.69 208.55 72.41 208.34
  Q 72.29 208.25 72.06 208.25
  Q 68.16 208.25 64.26 208.06
  Q 62.72 207.98 66.04 208.01
  C 66.36 208.01 66.64 207.83 66.77 207.54
  Q 68.79 202.86 66.21 199.25"
/>
<path stroke="#93a1a9" vector-effect="non-scaling-stroke" d="
  M 79.79 183.75
  L 66.21 199.25"
/>
<path stroke="#9bb2bd" vector-effect="non-scaling-stroke" d="
  M 66.21 199.25
  Q 61.43 203.99 57.96 209.75"
/>
<path stroke="#7dc3d2" vector-effect="non-scaling-stroke" d="
  M 57.96 209.75
  L 55.29 215.00"
/>
<path stroke="#9ba9b2" vector-effect="non-scaling-stroke" d="
  M 55.29 215.00
  Q 53.91 218.98 54.00 223.21"
/>
<path stroke="#7c8182" vector-effect="non-scaling-stroke" d="
  M 54.00 223.21
  Q 51.94 223.99 51.46 221.75"
/>
<path stroke="#284556" vector-effect="non-scaling-stroke" d="
  M 98.00 247.46
  Q 95.55 246.07 92.00 245.75
  Q 87.64 245.36 78.00 243.25
  Q 75.75 242.76 75.04 243.00"
/>
<path stroke="#596065" vector-effect="non-scaling-stroke" d="
  M 225.46 244.00
  Q 208.95 248.70 192.33 252.97
  Q 192.23 253.00 181.82 255.77
  Q 165.75 260.05 149.25 262.21"
/>
<path stroke="#6e7477" vector-effect="non-scaling-stroke" d="
  M 149.25 262.21
  Q 142.81 262.15 134.94 260.81
  Q 115.74 257.54 102.50 254.71"
/>
<path stroke="#1c2a33" vector-effect="non-scaling-stroke" d="
  M 97.25 248.04
  L 98.00 247.46"
/>
<path stroke="#2d3e49" vector-effect="non-scaling-stroke" d="
  M 98.00 247.46
  Q 113.10 249.98 128.32 251.55
  Q 129.14 251.64 132.02 252.52
  Q 133.94 253.11 136.00 252.71"
/>
<path stroke="#17242c" vector-effect="non-scaling-stroke" d="
  M 124.21 226.25
  Q 105.27 224.51 86.46 221.66
  Q 81.16 220.86 69.75 219.50
  Q 65.86 219.04 63.25 219.46"
/>
<path stroke="#405666" vector-effect="non-scaling-stroke" d="
  M 58.25 214.79
  L 63.25 219.46"
/>
<path stroke="#3f4952" vector-effect="non-scaling-stroke" d="
  M 63.25 219.46
  L 58.25 222.21"
/>
<path stroke="#49545c" vector-effect="non-scaling-stroke" d="
  M 58.25 222.21
  L 54.00 223.21"
/>
<path stroke="#1281a4" vector-effect="non-scaling-stroke" d="
  M 104.75 213.79
  Q 104.77 215.61 103.06 215.19
  Q 101.25 214.74 98.94 213.49
  C 98.66 213.34 98.33 213.28 98.00 213.31
  Q 95.21 213.59 92.75 212.21"
/>
<path stroke="#1281a4" vector-effect="non-scaling-stroke" d="
  M 89.50 212.79
  Q 89.46 213.26 89.00 213.46"
/>
<path stroke="#1f94b2" vector-effect="non-scaling-stroke" d="
  M 89.00 213.46
  L 87.25 214.04"
/>
<path stroke="#1281a4" vector-effect="non-scaling-stroke" d="
  M 87.25 214.04
  Q 85.92 213.44 83.50 213.50
  Q 80.35 213.57 77.49 211.26
  Q 77.04 210.90 76.50 211.04"
/>
<path stroke="#1f94b2" vector-effect="non-scaling-stroke" d="
  M 76.50 211.04
  Q 74.12 210.86 72.19 212.19
  Q 71.35 212.76 67.50 213.46"
/>
<path stroke="#2ca7c2" vector-effect="non-scaling-stroke" d="
  M 67.50 213.46
  L 60.75 212.71"
/>
<path stroke="#1281a4" vector-effect="non-scaling-stroke" d="
  M 108.25 214.54
  L 120.11 216.68
  C 120.28 216.71 120.47 216.57 120.56 216.35
  Q 120.64 216.16 120.79 216.00"
/>
<path stroke="#155e77" vector-effect="non-scaling-stroke" d="
  M 127.25 215.71
  Q 126.82 215.91 126.63 216.27
  C 126.47 216.59 126.26 216.82 126.03 216.92
  L 116.50 221.46"
/>
<path stroke="#209dbd" vector-effect="non-scaling-stroke" d="
  M 97.25 217.46
  Q 95.46 216.72 94.51 216.85
  Q 92.70 217.12 91.89 215.47
  Q 90.88 213.41 89.00 213.46"
/>
<path stroke="#3d839d" vector-effect="non-scaling-stroke" d="
  M 72.25 208.79
  L 71.50 208.71"
/>
<path stroke="#4b9fb6" vector-effect="non-scaling-stroke" d="
  M 71.50 208.71
  L 62.64 208.89
  C 61.79 208.91 60.95 209.30 60.29 209.97
  Q 59.64 210.63 57.96 209.75"
/>
<path stroke="#1f94b2" vector-effect="non-scaling-stroke" d="
  M 71.50 208.71
  Q 67.50 208.87 63.72 210.09
  Q 63.35 210.21 62.93 210.62
  L 60.75 212.71"
/>
<path stroke="#3ac4db" vector-effect="non-scaling-stroke" d="
  M 60.75 212.71
  Q 57.48 211.48 56.75 214.46"
/>
<path stroke="#4b96ac" vector-effect="non-scaling-stroke" d="
  M 56.75 214.46
  Q 55.87 214.38 55.29 215.00"
/>
<path stroke="#73797a" vector-effect="non-scaling-stroke" d="
  M 155.29 266.00
  L 153.75 266.46"
/>
<path stroke="#6d7374" vector-effect="non-scaling-stroke" d="
  M 153.75 266.46
  Q 152.93 266.37 152.25 266.71"
/>
<path stroke="#696e70" vector-effect="non-scaling-stroke" d="
  M 152.25 266.71
  L 147.54 266.75"
/>
<path stroke="#73797a" vector-effect="non-scaling-stroke" d="
  M 147.54 266.75
  L 139.29 265.50"
/>
<path stroke="#82898d" vector-effect="non-scaling-stroke" d="
  M 139.29 265.50
  L 123.75 262.54"
/>
<path stroke="#545a5e" vector-effect="non-scaling-stroke" d="
  M 202.25 255.79
  Q 201.53 255.67 200.82 255.85
  Q 184.57 259.94 168.25 263.71"
/>
<path stroke="#5e6468" vector-effect="non-scaling-stroke" d="
  M 168.25 263.71
  L 155.29 266.00"
/>
<path stroke="#a6b1b5" vector-effect="non-scaling-stroke" d="
  M 155.29 266.00
  Q 156.36 264.53 151.93 264.47
  C 151.51 264.47 151.23 264.04 151.39 263.65
  Q 152.20 261.70 149.25 262.21"
/>
<path stroke="#3ac4db" vector-effect="non-scaling-stroke" d="
  M 85.00 215.79
  Q 90.99 217.57 97.25 217.46"
/>
<path stroke="#2db1cd" vector-effect="non-scaling-stroke" d="
  M 97.25 217.46
  Q 100.32 218.20 103.42 218.77
  Q 104.42 218.95 106.03 218.65
  Q 107.48 218.38 108.75 218.75
  Q 111.35 219.52 113.50 219.25
  Q 115.45 219.01 116.50 221.46"
/>
<path stroke="#2f8495" vector-effect="non-scaling-stroke" d="
  M 116.50 221.46
  Q 111.01 221.42 105.56 220.71
  Q 85.19 218.06 64.81 215.44
  Q 59.63 214.77 58.25 214.79"
/>
<path stroke="#57a9bc" vector-effect="non-scaling-stroke" d="
  M 58.25 214.79
  L 56.75 214.46"
/>
<path stroke="#209dbd" vector-effect="non-scaling-stroke" d="
  M 76.50 211.04
  Q 75.38 212.64 75.50 214.46"
/>
<path stroke="#3ac4db" vector-effect="non-scaling-stroke" d="
  M 75.50 214.46
  L 67.50 213.46"
/>
<path stroke="#209dbd" vector-effect="non-scaling-stroke" d="
  M 87.25 214.04
  Q 86.42 215.34 85.00 215.79"
/>
<path stroke="#2db1cd" vector-effect="non-scaling-stroke" d="
  M 85.00 215.79
  Q 80.08 216.39 75.50 214.46"
/>
<path stroke="#202222" vector-effect="non-scaling-stroke" d="
  M 147.54 266.75
  Q 147.50 269.67 144.50 270.29"
/>
<path stroke="#252727" vector-effect="non-scaling-stroke" d="
  M 144.50 270.29
  Q 140.97 270.53 140.00 273.71"
/>
<path stroke="#3f4951" vector-effect="non-scaling-stroke" d="
  M 140.00 273.71
  L 132.50 272.04"
/>
<path stroke="#3a3d3f" vector-effect="non-scaling-stroke" d="
  M 139.29 265.50
  Q 139.17 268.76 136.00 268.75
  Q 132.31 268.74 128.04 267.46
  C 127.78 267.38 127.53 267.57 127.54 267.82
  Q 127.59 268.88 128.50 269.71"
/>
<path stroke="#3a434b" vector-effect="non-scaling-stroke" d="
  M 189.21 271.00
  Q 181.66 279.05 172.75 281.50
  Q 164.75 283.70 154.25 282.04"
/>
<path stroke="#34373a" vector-effect="non-scaling-stroke" d="
  M 154.25 282.04
  Q 158.32 282.12 154.25 281.00
  Q 152.92 280.64 148.52 277.82
  Q 148.45 277.78 146.15 275.97
  Q 144.26 274.48 141.75 274.29"
/>
<path stroke="#3a434b" vector-effect="non-scaling-stroke" d="
  M 141.75 274.29
  L 140.00 273.71"
/>
<path stroke="#1b1c1d" vector-effect="non-scaling-stroke" d="
  M 144.50 270.29
  Q 142.73 271.56 143.17 273.46
  C 143.24 273.75 143.47 273.99 143.78 274.09
  Q 149.10 275.82 154.68 275.79
  Q 156.11 275.79 157.76 276.23
  Q 159.30 276.64 160.88 276.77
  Q 161.97 276.85 164.89 277.46
  Q 167.45 278.00 169.84 276.78
  Q 171.67 275.85 171.71 275.83
  Q 174.87 274.49 178.20 273.55
  Q 180.02 273.04 179.06 271.44
  Q 178.35 270.24 174.75 270.75
  Q 168.14 271.69 161.50 271.00
  Q 158.05 270.64 156.25 269.69
  C 156.00 269.56 155.78 269.30 155.65 268.96
  Q 154.80 266.75 152.25 266.71"
/>
<path stroke="#252727" vector-effect="non-scaling-stroke" d="
  M 189.54 270.50
  Q 187.53 267.06 184.00 268.50
  Q 180.65 269.86 177.49 269.34
  Q 177.00 269.26 176.54 269.42
  Q 174.48 270.11 172.40 269.92
  Q 169.17 269.64 168.06 269.74
  Q 164.18 270.08 159.94 269.99
  C 159.66 269.98 159.31 269.86 158.95 269.64
  L 153.75 266.46"
/>
<path stroke="#202222" vector-effect="non-scaling-stroke" d="
  M 198.75 260.04
  Q 187.77 262.68 176.81 265.38
  Q 175.06 265.81 173.28 265.66
  Q 171.49 265.51 169.69 265.36
  C 169.41 265.33 169.14 265.15 168.97 264.87
  L 168.25 263.71"
/>
<path stroke="#4f5964" vector-effect="non-scaling-stroke" d="
  M 141.75 274.29
  Q 146.00 281.27 154.25 282.04"
/>
<path stroke="#fa7b11" vector-effect="non-scaling-stroke" d="
  M 130.51 27.78
  Q 132.72 28.32 134.99 27.89
  Q 136.94 27.52 138.03 26.30
  Q 139.36 24.79 139.19 22.76
  Q 138.98 20.45 137.61 18.22
  Q 135.16 14.27 129.31 16.98
  Q 127.76 17.69 127.08 19.25
  Q 125.78 22.23 127.25 25.20
  Q 128.25 27.23 130.51 27.78"
/>
<path stroke="#fc9508" vector-effect="non-scaling-stroke" d="
  M 132.09 26.94
  Q 133.62 27.82 135.11 27.24
  Q 136.76 26.59 137.51 24.46
  Q 139.03 20.15 133.94 18.06
  Q 132.27 17.38 129.02 18.85
  C 128.72 18.98 128.49 19.23 128.39 19.53
  Q 127.17 23.14 129.74 25.26
  Q 131.00 26.30 132.09 26.94"
/>
<path stroke="#c1c9c8" vector-effect="non-scaling-stroke" d="
  M 69.01 81.31
  L 69.47 83.95
  C 69.52 84.25 69.80 84.43 70.05 84.33
  Q 70.71 84.06 70.64 83.21
  Q 70.55 81.97 70.57 81.79
  Q 70.94 76.25 66.10 80.44
  C 65.55 80.92 65.41 81.73 65.78 82.36
  Q 68.13 86.42 67.50 82.25
  Q 67.32 81.04 68.44 80.85
  C 68.71 80.81 68.96 81.01 69.01 81.31"
/>
<path stroke="#688135" vector-effect="non-scaling-stroke" d="
  M 189.31 143.82
  L 189.17 138.32
  C 189.15 137.79 188.63 137.43 188.08 137.56
  L 166.89 142.72
  C 166.44 142.83 166.24 143.34 166.51 143.70
  Q 166.91 144.24 166.70 145.56
  C 166.65 145.83 166.87 146.07 167.14 146.05
  L 188.90 144.26
  C 189.14 144.24 189.32 144.05 189.31 143.82"
/>
<path stroke="#688135" vector-effect="non-scaling-stroke" d="
  M 152.00 147.29
  Q 152.95 146.97 152.85 145.99
  Q 152.79 145.41 152.85 145.01
  Q 153.08 143.32 151.25 143.71"
/>
<path stroke="#2d4632" vector-effect="non-scaling-stroke" d="
  M 151.25 143.71
  Q 147.42 141.02 144.81 140.69
  Q 140.84 140.19 136.86 139.68
  Q 136.81 139.67 134.19 139.05
  Q 131.27 138.37 129.35 140.91
  C 129.17 141.15 128.89 141.32 128.57 141.40
  Q 126.91 141.80 127.08 143.60
  Q 127.23 145.24 127.24 145.43
  Q 127.35 148.60 129.68 150.62
  C 129.91 150.83 130.22 150.96 130.56 150.99
  Q 140.93 151.96 148.50 150.25
  Q 150.36 149.83 152.00 147.29"
/>
<path stroke="#7e9628" vector-effect="non-scaling-stroke" d="
  M 151.25 143.71
  Q 141.32 143.71 131.51 142.17
  Q 129.20 141.81 129.81 143.54
  Q 129.98 144.05 129.94 144.50
  Q 129.74 146.68 130.40 148.71
  C 130.49 148.99 130.77 149.16 131.07 149.14
  L 152.00 147.29"
/>
<path stroke="#d7dee0" vector-effect="non-scaling-stroke" d="
  M 140.80 172.93
  Q 139.16 170.62 137.89 173.16
  Q 135.93 177.09 136.49 181.68
  Q 136.59 182.53 136.64 184.83
  Q 136.67 186.48 137.34 187.98
  C 137.47 188.26 137.76 188.43 138.06 188.39
  Q 140.71 188.00 141.00 185.00
  Q 141.09 184.10 142.06 180.56
  Q 143.23 176.32 140.80 172.93"
/>
<path stroke="#c5cfd1" vector-effect="non-scaling-stroke" d="
  M 107.04 197.25
  Q 108.77 196.73 109.97 194.92
  C 110.42 194.25 110.00 193.34 109.19 193.21
  L 90.91 190.25
  Q 88.77 189.90 88.14 191.91
  Q 87.36 194.43 91.12 195.97
  Q 98.54 198.98 106.49 197.70
  Q 106.67 197.67 106.75 197.55
  C 106.86 197.38 106.97 197.27 107.04 197.25"
/>
<path stroke="#209dbd" vector-effect="non-scaling-stroke" d="
  M 104.93 217.33
  Q 105.17 216.13 104.10 217.15
  C 103.90 217.34 103.85 217.62 103.98 217.80
  Q 104.14 218.02 104.36 218.02
  C 104.62 218.01 104.85 217.72 104.93 217.33"
/>
</g>
<path fill="#687b8c" d="
  M 0.00 0.00
  Q 150.00 0.00 300.00 0.00
  Q 300.00 150.00 300.00 300.00
  Q 150.00 300.00 0.00 300.00
  Q 0.00 150.00 0.00 0.00
  Z
  M 109.96 17.75
  Q 110.39 24.32 110.06 30.89
  Q 110.05 31.21 109.54 33.00
  Q 109.14 34.40 110.50 35.29
  Q 108.51 35.30 109.25 36.54
  Q 93.67 38.23 78.25 41.04
  Q 69.31 43.40 66.49 52.25
  Q 65.44 55.54 65.29 59.00
  Q 64.46 78.37 64.48 97.75
  Q 64.48 106.47 66.25 115.01
  Q 66.68 117.06 68.73 117.50
  Q 71.60 118.10 73.44 120.31
  Q 74.48 121.56 75.35 128.32
  Q 77.03 141.25 79.80 153.99
  Q 80.69 158.11 82.79 161.75
  Q 84.28 165.51 88.06 165.19
  Q 89.93 165.03 90.29 166.25
  Q 90.07 168.34 89.46 170.32
  Q 88.91 172.08 87.27 173.67
  Q 84.12 176.71 81.10 179.88
  Q 80.91 180.08 80.66 180.74
  L 79.71 183.25
  L 76.93 183.35
  C 76.66 183.36 76.36 183.52 76.10 183.80
  Q 70.98 189.29 66.00 194.92
  Q 57.96 203.99 56.42 206.46
  Q 52.15 213.29 51.46 221.75
  Q 50.55 221.92 50.50 222.75
  Q 50.12 229.15 53.96 234.75
  L 57.02 238.97
  C 57.30 239.36 57.89 239.53 58.52 239.40
  L 61.71 238.75
  Q 63.43 241.05 66.05 241.30
  Q 69.12 241.58 69.41 241.62
  Q 71.23 241.88 73.05 241.44
  Q 73.99 241.22 74.44 241.41
  Q 75.34 241.80 75.04 243.00
  Q 74.42 243.73 75.27 243.89
  Q 86.25 246.01 97.25 248.04
  Q 98.89 252.21 102.50 254.71
  Q 102.09 255.42 102.94 256.06
  Q 105.58 258.05 107.79 258.61
  Q 115.75 260.63 123.75 262.54
  Q 124.64 267.07 128.50 269.71
  Q 130.12 271.50 132.50 272.04
  Q 133.27 274.51 130.31 275.38
  Q 128.17 276.01 125.94 275.95
  Q 112.20 275.60 97.27 275.85
  Q 91.62 275.95 83.28 276.84
  Q 76.28 277.59 69.26 277.97
  C 68.95 277.99 68.64 278.10 68.35 278.30
  Q 67.99 278.54 67.81 278.56
  Q 62.12 279.20 59.25 281.75
  Q 56.45 284.24 59.94 285.56
  Q 64.05 287.12 67.91 287.10
  Q 69.99 287.09 71.56 287.34
  Q 73.39 287.63 75.24 287.73
  Q 78.21 287.87 80.69 288.38
  Q 86.88 289.66 93.21 289.28
  Q 96.31 289.09 99.25 289.57
  Q 105.35 290.56 110.50 290.00
  Q 113.38 289.68 115.72 289.97
  Q 119.75 290.46 120.84 290.43
  Q 127.47 290.28 134.11 290.36
  Q 137.23 290.40 142.24 290.02
  Q 146.33 289.72 150.41 289.84
  Q 162.12 290.18 162.60 290.17
  Q 185.59 289.91 208.59 290.19
  Q 208.64 290.20 216.90 290.66
  Q 223.23 291.01 229.47 289.72
  Q 229.52 289.71 233.41 288.43
  Q 235.68 287.68 238.50 287.75
  Q 240.85 287.80 243.75 287.20
  Q 245.21 286.89 248.74 285.56
  Q 252.16 284.27 255.77 283.59
  C 256.03 283.54 256.31 283.70 256.43 283.98
  Q 257.03 285.33 257.94 283.94
  Q 259.71 281.24 257.20 281.32
  Q 257.04 281.33 255.21 281.70
  Q 252.06 282.34 249.61 280.10
  C 249.40 279.91 249.25 279.62 249.18 279.26
  Q 248.93 278.08 248.08 277.37
  Q 247.39 276.80 245.75 276.72
  Q 243.38 276.59 238.00 276.00
  Q 224.11 274.48 203.75 274.44
  Q 197.32 274.43 191.00 273.25
  Q 189.13 272.90 189.21 271.00
  L 189.54 270.50
  Q 194.69 265.74 198.75 260.04
  L 202.25 255.79
  Q 210.63 252.73 217.19 251.19
  Q 223.38 249.73 225.46 244.00
  Q 227.96 239.66 228.06 234.64
  C 228.07 234.48 228.01 234.35 227.92 234.30
  L 227.75 234.21
  Q 228.48 233.74 228.50 233.25
  Q 228.67 227.91 229.11 222.58
  Q 229.31 220.19 230.57 218.41
  Q 231.80 216.68 233.94 213.94
  Q 239.49 206.83 239.21 197.00
  Q 240.28 186.50 239.22 176.00
  Q 237.96 163.58 235.96 151.25
  L 236.21 142.75
  Q 236.32 139.16 235.75 133.25
  Q 233.15 106.44 228.64 82.97
  Q 224.49 61.41 216.99 40.79
  Q 215.98 38.01 214.27 35.69
  Q 213.03 34.01 210.92 33.47
  Q 207.78 32.67 204.50 32.57
  Q 185.87 31.98 167.25 32.71
  Q 167.39 31.39 166.00 31.46
  Q 167.06 25.64 165.75 19.25
  Q 165.25 16.81 165.04 12.75
  Q 166.13 8.99 162.66 9.18
  Q 161.39 9.25 161.34 9.25
  Q 143.37 9.38 125.48 11.06
  Q 118.46 11.72 111.69 13.69
  Q 108.80 14.54 108.11 17.26
  C 108.02 17.60 108.09 17.94 108.29 18.17
  Q 109.04 19.03 109.96 17.75
  Z"
/>
<path fill="#2a2c2c" d="
  M 165.04 12.75
  Q 164.69 13.04 163.30 11.75
  C 162.92 11.40 162.41 11.22 161.90 11.24
  L 141.75 12.21
  L 126.00 13.21
  Q 118.78 13.26 112.50 15.25
  Q 110.71 15.82 109.96 17.75
  Q 109.04 19.03 108.29 18.17
  C 108.09 17.94 108.02 17.60 108.11 17.26
  Q 108.80 14.54 111.69 13.69
  Q 118.46 11.72 125.48 11.06
  Q 143.37 9.38 161.34 9.25
  Q 161.39 9.25 162.66 9.18
  Q 166.13 8.99 165.04 12.75
  Z"
/>
<path fill="#c76855" d="
  M 165.04 12.75
  Q 165.25 16.81 165.75 19.25
  Q 167.06 25.64 166.00 31.46
  Q 164.29 31.90 162.55 31.87
  Q 159.51 31.82 159.44 31.82
  Q 138.07 32.81 116.75 34.54
  Q 114.38 34.87 115.38 33.84
  C 115.59 33.63 115.89 33.48 116.25 33.42
  L 120.50 32.79
  L 121.50 32.71
  Q 126.31 32.25 131.12 32.17
  Q 136.79 32.08 140.72 31.71
  Q 151.29 30.70 161.18 30.29
  Q 164.59 30.15 164.29 26.75
  Q 163.85 21.66 163.41 16.93
  Q 163.19 14.55 162.49 13.76
  Q 161.21 12.33 158.50 13.54
  Q 155.77 13.04 154.75 13.25
  Q 153.01 13.61 151.34 13.26
  Q 149.09 12.78 148.09 12.84
  Q 145.54 12.98 143.00 13.21
  Q 143.62 11.79 141.75 12.21
  L 161.90 11.24
  C 162.41 11.22 162.92 11.40 163.30 11.75
  Q 164.69 13.04 165.04 12.75
  Z"
/>
<path fill="#afb9bc" d="
  M 141.75 12.21
  Q 143.62 11.79 143.00 13.21
  L 130.50 14.04
  Q 128.02 14.45 126.00 13.21
  L 141.75 12.21
  Z"
/>
<path fill="#f8601a" d="
  M 158.50 13.54
  Q 156.18 15.04 152.25 15.00
  Q 146.97 14.95 140.59 15.93
  C 139.73 16.06 139.22 16.97 139.55 17.77
  Q 142.26 24.34 138.31 29.37
  C 138.13 29.60 137.82 29.72 137.50 29.70
  Q 134.73 29.48 132.08 30.12
  Q 131.03 30.38 129.38 30.44
  Q 127.95 30.49 126.64 31.05
  Q 124.96 31.77 124.12 31.97
  Q 122.79 32.28 121.50 32.71
  L 120.50 32.79
  Q 118.10 33.32 117.79 31.50
  C 117.75 31.24 117.84 30.92 118.05 30.61
  Q 118.83 29.48 118.69 28.16
  Q 118.52 26.44 118.52 26.31
  Q 118.55 24.19 118.52 22.06
  Q 118.52 21.99 118.17 19.48
  Q 117.90 17.49 119.18 15.70
  C 119.35 15.46 119.58 15.31 119.83 15.28
  L 130.50 14.04
  L 143.00 13.21
  Q 145.54 12.98 148.09 12.84
  Q 149.09 12.78 151.34 13.26
  Q 153.01 13.61 154.75 13.25
  Q 155.77 13.04 158.50 13.54
  Z
  M 130.51 27.78
  Q 132.72 28.32 134.99 27.89
  Q 136.94 27.52 138.03 26.30
  Q 139.36 24.79 139.19 22.76
  Q 138.98 20.45 137.61 18.22
  Q 135.16 14.27 129.31 16.98
  Q 127.76 17.69 127.08 19.25
  Q 125.78 22.23 127.25 25.20
  Q 128.25 27.23 130.51 27.78
  Z"
/>
<path fill="#e9482a" d="
  M 126.00 13.21
  Q 128.02 14.45 130.50 14.04
  L 119.83 15.28
  C 119.58 15.31 119.35 15.46 119.18 15.70
  Q 117.90 17.49 118.17 19.48
  Q 118.52 21.99 118.52 22.06
  Q 118.55 24.19 118.52 26.31
  Q 118.52 26.44 118.69 28.16
  Q 118.83 29.48 118.05 30.61
  C 117.84 30.92 117.75 31.24 117.79 31.50
  Q 118.10 33.32 120.50 32.79
  L 116.25 33.42
  C 115.89 33.48 115.59 33.63 115.38 33.84
  Q 114.38 34.87 116.75 34.54
  L 110.50 35.29
  Q 109.14 34.40 109.54 33.00
  Q 110.05 31.21 110.06 30.89
  Q 110.39 24.32 109.96 17.75
  Q 110.71 15.82 112.50 15.25
  Q 118.78 13.26 126.00 13.21
  Z"
/>
<path fill="#f13928" d="
  M 121.50 32.71
  Q 122.79 32.28 124.12 31.97
  Q 124.96 31.77 126.64 31.05
  Q 127.95 30.49 129.38 30.44
  Q 131.03 30.38 132.08 30.12
  Q 134.73 29.48 137.50 29.70
  C 137.82 29.72 138.13 29.60 138.31 29.37
  Q 142.26 24.34 139.55 17.77
  C 139.22 16.97 139.73 16.06 140.59 15.93
  Q 146.97 14.95 152.25 15.00
  Q 156.18 15.04 158.50 13.54
  Q 161.21 12.33 162.49 13.76
  Q 163.19 14.55 163.41 16.93
  Q 163.85 21.66 164.29 26.75
  Q 164.59 30.15 161.18 30.29
  Q 151.29 30.70 140.72 31.71
  Q 136.79 32.08 131.12 32.17
  Q 126.31 32.25 121.50 32.71
  Z"
/>
<path fill="#fc9508" d="
  M 127.25 25.20
  Q 125.78 22.23 127.08 19.25
  Q 127.76 17.69 129.31 16.98
  Q 135.16 14.27 137.61 18.22
  Q 138.98 20.45 139.19 22.76
  Q 139.36 24.79 138.03 26.30
  Q 136.94 27.52 134.99 27.89
  Q 132.72 28.32 130.51 27.78
  Q 128.25 27.23 127.25 25.20
  Z
  M 132.09 26.94
  Q 133.62 27.82 135.11 27.24
  Q 136.76 26.59 137.51 24.46
  Q 139.03 20.15 133.94 18.06
  Q 132.27 17.38 129.02 18.85
  C 128.72 18.98 128.49 19.23 128.39 19.53
  Q 127.17 23.14 129.74 25.26
  Q 131.00 26.30 132.09 26.94
  Z"
/>
<path fill="#fc9508" d="
  M 129.74 25.26
  Q 127.17 23.14 128.39 19.53
  C 128.49 19.23 128.72 18.98 129.02 18.85
  Q 132.27 17.38 133.94 18.06
  Q 139.03 20.15 137.51 24.46
  Q 136.76 26.59 135.11 27.24
  Q 133.62 27.82 132.09 26.94
  Q 131.00 26.30 129.74 25.26
  Z"
/>
<path fill="#494d52" d="
  M 166.00 31.46
  Q 167.39 31.39 167.25 32.71
  Q 146.71 33.20 126.25 35.04
  L 109.25 36.54
  Q 108.51 35.30 110.50 35.29
  L 116.75 34.54
  Q 138.07 32.81 159.44 31.82
  Q 159.51 31.82 162.55 31.87
  Q 164.29 31.90 166.00 31.46
  Z"
/>
<path fill="#d3d8d4" d="
  M 236.21 142.75
  Q 226.70 142.41 224.50 143.25
  Q 220.65 144.71 216.55 145.03
  C 216.27 145.05 215.96 145.17 215.67 145.38
  L 214.00 146.54
  Q 212.87 132.16 211.88 117.76
  Q 211.64 114.25 208.30 113.48
  Q 204.94 112.69 201.50 112.97
  Q 179.25 114.77 156.99 116.35
  Q 134.97 117.91 111.55 120.14
  Q 110.05 120.28 108.71 120.99
  Q 107.42 121.66 107.75 122.96
  Q 105.63 124.53 106.00 128.00
  Q 107.12 138.54 107.54 158.25
  Q 107.74 160.86 106.05 159.41
  C 105.79 159.18 105.48 159.05 105.18 159.03
  Q 101.75 158.81 98.36 159.21
  Q 95.87 159.50 91.60 159.75
  Q 87.06 160.03 82.79 161.75
  Q 80.69 158.11 79.80 153.99
  Q 77.03 141.25 75.35 128.32
  Q 74.48 121.56 73.44 120.31
  Q 71.60 118.10 68.73 117.50
  Q 66.68 117.06 66.25 115.01
  Q 64.48 106.47 64.48 97.75
  Q 64.46 78.37 65.29 59.00
  Q 65.44 55.54 66.49 52.25
  Q 69.31 43.40 78.25 41.04
  L 78.54 45.00
  Q 77.23 49.30 77.28 53.74
  Q 77.35 60.14 77.35 60.26
  Q 76.90 71.38 77.29 82.50
  L 78.29 105.25
  L 79.70 123.75
  C 79.72 124.04 79.96 124.27 80.25 124.26
  Q 83.31 124.16 84.44 120.94
  Q 87.29 112.78 93.50 104.75
  Q 95.21 102.53 98.14 95.41
  Q 100.42 89.88 102.43 85.92
  Q 104.28 82.27 106.11 78.61
  Q 106.52 77.78 109.48 71.15
  Q 111.44 66.78 114.50 61.50
  Q 118.71 54.25 122.51 43.42
  Q 122.91 42.27 123.82 40.74
  Q 124.59 39.44 125.14 38.03
  Q 125.26 37.72 125.25 37.06
  Q 125.25 36.05 126.25 35.60
  C 126.39 35.54 126.46 35.38 126.39 35.26
  L 126.25 35.04
  Q 146.71 33.20 167.25 32.71
  Q 185.87 31.98 204.50 32.57
  Q 207.78 32.67 210.92 33.47
  Q 213.03 34.01 214.27 35.69
  Q 215.98 38.01 216.99 40.79
  Q 224.49 61.41 228.64 82.97
  Q 233.15 106.44 235.75 133.25
  Q 236.32 139.16 236.21 142.75
  Z
  M 69.01 81.31
  L 69.47 83.95
  C 69.52 84.25 69.80 84.43 70.05 84.33
  Q 70.71 84.06 70.64 83.21
  Q 70.55 81.97 70.57 81.79
  Q 70.94 76.25 66.10 80.44
  C 65.55 80.92 65.41 81.73 65.78 82.36
  Q 68.13 86.42 67.50 82.25
  Q 67.32 81.04 68.44 80.85
  C 68.71 80.81 68.96 81.01 69.01 81.31
  Z"
/>
<path fill="#e7eae8" d="
  M 126.25 35.04
  L 126.39 35.26
  C 126.46 35.38 126.39 35.54 126.25 35.60
  Q 125.25 36.05 125.25 37.06
  Q 125.26 37.72 125.14 38.03
  Q 124.59 39.44 123.82 40.74
  Q 122.91 42.27 122.51 43.42
  Q 118.71 54.25 114.50 61.50
  Q 111.44 66.78 109.48 71.15
  Q 106.52 77.78 106.11 78.61
  Q 104.28 82.27 102.43 85.92
  Q 100.42 89.88 98.14 95.41
  Q 95.21 102.53 93.50 104.75
  Q 87.29 112.78 84.44 120.94
  Q 83.31 124.16 80.25 124.26
  C 79.96 124.27 79.72 124.04 79.70 123.75
  L 78.29 105.25
  Q 79.44 106.59 80.69 105.94
  Q 83.71 104.34 84.99 100.50
  Q 88.73 89.19 94.56 78.81
  Q 98.51 71.77 105.97 55.84
  Q 106.61 54.46 108.49 49.37
  Q 109.69 46.10 111.49 43.10
  Q 112.69 41.09 112.56 39.60
  Q 112.25 36.10 108.10 37.89
  Q 104.10 39.61 99.75 39.25
  Q 98.64 39.16 98.25 39.71
  Q 95.60 40.05 93.03 40.74
  Q 90.76 41.34 87.87 41.82
  Q 82.96 42.63 78.54 45.00
  L 78.25 41.04
  Q 93.67 38.23 109.25 36.54
  L 126.25 35.04
  Z"
/>
<path fill="#f2f3f3" d="
  M 78.29 105.25
  L 77.29 82.50
  Q 77.46 83.70 78.22 83.92
  Q 78.77 84.08 79.54 83.51
  Q 81.94 81.75 83.65 79.36
  Q 86.49 75.40 86.78 75.00
  Q 89.21 71.70 90.81 67.06
  Q 91.80 64.19 93.95 60.96
  Q 96.17 57.59 97.29 55.05
  Q 99.28 50.55 101.46 46.14
  Q 101.65 45.76 102.09 45.41
  Q 103.38 44.39 102.91 42.73
  Q 102.78 42.24 102.82 41.76
  Q 102.91 40.76 102.50 39.92
  C 102.36 39.64 102.07 39.47 101.75 39.49
  L 98.25 39.71
  Q 98.64 39.16 99.75 39.25
  Q 104.10 39.61 108.10 37.89
  Q 112.25 36.10 112.56 39.60
  Q 112.69 41.09 111.49 43.10
  Q 109.69 46.10 108.49 49.37
  Q 106.61 54.46 105.97 55.84
  Q 98.51 71.77 94.56 78.81
  Q 88.73 89.19 84.99 100.50
  Q 83.71 104.34 80.69 105.94
  Q 79.44 106.59 78.29 105.25
  Z"
/>
<path fill="#fdfdfd" d="
  M 77.29 82.50
  Q 76.90 71.38 77.35 60.26
  Q 77.35 60.14 77.28 53.74
  Q 77.23 49.30 78.54 45.00
  Q 82.96 42.63 87.87 41.82
  Q 90.76 41.34 93.03 40.74
  Q 95.60 40.05 98.25 39.71
  L 101.75 39.49
  C 102.07 39.47 102.36 39.64 102.50 39.92
  Q 102.91 40.76 102.82 41.76
  Q 102.78 42.24 102.91 42.73
  Q 103.38 44.39 102.09 45.41
  Q 101.65 45.76 101.46 46.14
  Q 99.28 50.55 97.29 55.05
  Q 96.17 57.59 93.95 60.96
  Q 91.80 64.19 90.81 67.06
  Q 89.21 71.70 86.78 75.00
  Q 86.49 75.40 83.65 79.36
  Q 81.94 81.75 79.54 83.51
  Q 78.77 84.08 78.22 83.92
  Q 77.46 83.70 77.29 82.50
  Z"
/>
<path fill="#afb9bc" d="
  M 68.44 80.85
  Q 67.32 81.04 67.50 82.25
  Q 68.13 86.42 65.78 82.36
  C 65.41 81.73 65.55 80.92 66.10 80.44
  Q 70.94 76.25 70.57 81.79
  Q 70.55 81.97 70.64 83.21
  Q 70.71 84.06 70.05 84.33
  C 69.80 84.43 69.52 84.25 69.47 83.95
  L 69.01 81.31
  C 68.96 81.01 68.71 80.81 68.44 80.85
  Z"
/>
<path fill="#939fa8" d="
  M 214.00 146.54
  Q 214.41 151.13 213.25 155.54
  L 212.50 155.46
  Q 211.12 135.35 211.00 129.50
  Q 210.87 123.26 209.25 117.24
  C 208.98 116.25 208.12 115.54 207.10 115.47
  Q 201.00 115.03 194.50 115.51
  Q 170.25 117.33 146.00 119.25
  Q 119.64 121.33 107.75 122.96
  Q 107.42 121.66 108.71 120.99
  Q 110.05 120.28 111.55 120.14
  Q 134.97 117.91 156.99 116.35
  Q 179.25 114.77 201.50 112.97
  Q 204.94 112.69 208.30 113.48
  Q 211.64 114.25 211.88 117.76
  Q 212.87 132.16 214.00 146.54
  Z"
/>
<path fill="#17313f" d="
  M 212.50 155.46
  L 194.50 157.29
  Q 175.33 158.00 156.25 159.96
  L 149.00 160.46
  L 146.00 160.79
  L 109.31 163.50
  C 108.46 163.56 107.73 162.81 107.69 161.85
  L 107.54 158.25
  Q 107.12 138.54 106.00 128.00
  Q 105.63 124.53 107.75 122.96
  Q 119.64 121.33 146.00 119.25
  Q 170.25 117.33 194.50 115.51
  Q 201.00 115.03 207.10 115.47
  C 208.12 115.54 208.98 116.25 209.25 117.24
  Q 210.87 123.26 211.00 129.50
  Q 211.12 135.35 212.50 155.46
  Z
  M 189.31 143.82
  L 189.17 138.32
  C 189.15 137.79 188.63 137.43 188.08 137.56
  L 166.89 142.72
  C 166.44 142.83 166.24 143.34 166.51 143.70
  Q 166.91 144.24 166.70 145.56
  C 166.65 145.83 166.87 146.07 167.14 146.05
  L 188.90 144.26
  C 189.14 144.24 189.32 144.05 189.31 143.82
  Z
  M 152.00 147.29
  Q 152.95 146.97 152.85 145.99
  Q 152.79 145.41 152.85 145.01
  Q 153.08 143.32 151.25 143.71
  Q 147.42 141.02 144.81 140.69
  Q 140.84 140.19 136.86 139.68
  Q 136.81 139.67 134.19 139.05
  Q 131.27 138.37 129.35 140.91
  C 129.17 141.15 128.89 141.32 128.57 141.40
  Q 126.91 141.80 127.08 143.60
  Q 127.23 145.24 127.24 145.43
  Q 127.35 148.60 129.68 150.62
  C 129.91 150.83 130.22 150.96 130.56 150.99
  Q 140.93 151.96 148.50 150.25
  Q 150.36 149.83 152.00 147.29
  Z"
/>
<path fill="#b9d02a" d="
  M 189.31 143.82
  C 189.32 144.05 189.14 144.24 188.90 144.26
  L 167.14 146.05
  C 166.87 146.07 166.65 145.83 166.70 145.56
  Q 166.91 144.24 166.51 143.70
  C 166.24 143.34 166.44 142.83 166.89 142.72
  L 188.08 137.56
  C 188.63 137.43 189.15 137.79 189.17 138.32
  L 189.31 143.82
  Z"
/>
<path fill="#425b25" d="
  M 151.25 143.71
  Q 141.32 143.71 131.51 142.17
  Q 129.20 141.81 129.81 143.54
  Q 129.98 144.05 129.94 144.50
  Q 129.74 146.68 130.40 148.71
  C 130.49 148.99 130.77 149.16 131.07 149.14
  L 152.00 147.29
  Q 150.36 149.83 148.50 150.25
  Q 140.93 151.96 130.56 150.99
  C 130.22 150.96 129.91 150.83 129.68 150.62
  Q 127.35 148.60 127.24 145.43
  Q 127.23 145.24 127.08 143.60
  Q 126.91 141.80 128.57 141.40
  C 128.89 141.32 129.17 141.15 129.35 140.91
  Q 131.27 138.37 134.19 139.05
  Q 136.81 139.67 136.86 139.68
  Q 140.84 140.19 144.81 140.69
  Q 147.42 141.02 151.25 143.71
  Z"
/>
<path fill="#b9d02a" d="
  M 151.25 143.71
  Q 153.08 143.32 152.85 145.01
  Q 152.79 145.41 152.85 145.99
  Q 152.95 146.97 152.00 147.29
  L 131.07 149.14
  C 130.77 149.16 130.49 148.99 130.40 148.71
  Q 129.74 146.68 129.94 144.50
  Q 129.98 144.05 129.81 143.54
  Q 129.20 141.81 131.51 142.17
  Q 141.32 143.71 151.25 143.71
  Z"
/>
<path fill="#a5b0b5" d="
  M 236.21 142.75
  L 235.96 151.25
  Q 233.44 151.96 231.50 153.79
  Q 230.06 153.62 227.94 154.44
  Q 224.92 155.60 218.75 155.71
  L 213.54 156.00
  L 213.25 155.54
  Q 214.41 151.13 214.00 146.54
  L 215.67 145.38
  C 215.96 145.17 216.27 145.05 216.55 145.03
  Q 220.65 144.71 224.50 143.25
  Q 226.70 142.41 236.21 142.75
  Z"
/>
<path fill="#bdc7c9" d="
  M 235.96 151.25
  Q 237.96 163.58 239.22 176.00
  Q 240.28 186.50 239.21 197.00
  Q 237.97 198.20 236.69 197.26
  C 236.45 197.09 236.31 196.79 236.32 196.45
  Q 236.38 193.28 236.25 184.00
  Q 236.08 171.34 232.21 160.25
  Q 231.61 158.33 230.75 156.50
  Q 230.04 154.98 231.50 153.79
  Q 233.44 151.96 235.96 151.25
  Z"
/>
<path fill="#afb9bc" d="
  M 231.50 153.79
  Q 230.04 154.98 230.75 156.50
  Q 231.61 158.33 232.21 160.25
  Q 230.71 159.00 229.43 159.98
  C 229.19 160.16 229.07 160.47 229.10 160.81
  Q 229.35 164.06 230.34 166.60
  Q 230.84 167.89 230.98 169.09
  L 231.95 177.01
  C 231.99 177.28 231.85 177.57 231.59 177.77
  Q 230.28 178.80 230.71 180.75
  Q 230.06 180.61 229.46 180.75
  L 229.29 180.75
  Q 228.59 173.23 223.00 168.29
  Q 226.04 163.40 225.14 157.23
  C 225.01 156.37 224.26 155.74 223.38 155.74
  L 218.75 155.71
  Q 224.92 155.60 227.94 154.44
  Q 230.06 153.62 231.50 153.79
  Z"
/>
<path fill="#d3d8d4" d="
  M 212.50 155.46
  L 213.25 155.54
  L 213.54 156.00
  Q 217.60 160.51 219.00 166.46
  Q 213.60 165.20 209.19 167.69
  Q 204.35 170.42 201.78 175.98
  Q 197.05 186.21 202.04 196.25
  L 202.79 197.50
  Q 205.34 201.60 209.00 203.25
  Q 215.54 206.19 221.45 201.71
  Q 224.77 199.19 226.71 195.50
  Q 227.89 193.81 228.25 191.79
  Q 230.26 186.43 229.46 180.75
  Q 230.06 180.61 230.71 180.75
  Q 232.81 196.09 220.25 204.29
  L 213.44 205.97
  Q 212.44 206.21 211.84 206.66
  Q 207.29 210.09 203.81 211.56
  Q 202.09 212.29 198.31 215.49
  Q 198.23 215.56 196.02 217.84
  Q 194.67 219.23 193.00 219.75
  Q 189.67 220.79 188.83 223.82
  Q 187.00 230.40 184.31 224.37
  Q 183.80 223.24 183.96 225.00
  L 183.46 223.75
  Q 183.65 222.35 182.79 221.25
  Q 182.11 216.56 178.00 214.71
  Q 176.85 213.68 175.25 214.04
  Q 168.87 213.88 165.75 208.68
  C 165.59 208.42 165.29 208.28 165.00 208.33
  Q 161.46 209.02 163.87 212.72
  Q 164.84 214.23 166.16 214.57
  L 175.54 217.00
  Q 174.65 219.10 172.13 218.21
  C 171.83 218.10 171.49 218.16 171.25 218.38
  Q 169.43 220.02 167.22 220.78
  Q 164.27 221.81 163.19 222.51
  Q 157.85 225.97 152.75 229.79
  L 150.75 227.71
  Q 147.98 226.34 145.00 227.29
  Q 137.71 229.17 130.75 232.04
  Q 130.01 231.82 131.48 230.69
  Q 132.18 230.15 132.52 229.34
  Q 134.76 224.05 137.46 220.12
  Q 138.50 218.61 139.38 216.47
  Q 140.38 214.06 141.69 212.94
  Q 144.54 210.51 145.44 208.69
  Q 146.21 207.13 147.10 206.18
  Q 149.02 204.15 149.10 204.03
  Q 151.50 200.42 152.90 196.29
  Q 153.00 196.02 153.50 195.57
  L 155.79 193.50
  Q 159.01 200.03 161.22 206.97
  Q 161.69 208.46 162.52 207.47
  Q 162.83 207.10 163.27 206.89
  Q 164.30 206.40 164.46 205.25
  L 164.52 204.27
  Q 164.57 203.53 164.83 204.29
  Q 165.82 207.21 168.83 207.43
  Q 169.08 207.44 169.28 207.51
  Q 171.05 208.15 169.37 208.08
  C 169.22 208.08 169.11 208.23 169.17 208.36
  Q 169.52 209.09 170.19 208.44
  Q 173.20 205.49 174.99 202.45
  Q 176.85 199.30 178.20 197.56
  Q 181.59 193.18 184.25 187.25
  Q 186.09 183.14 189.51 178.39
  Q 190.99 176.34 191.87 173.86
  Q 192.65 171.66 193.76 169.04
  Q 194.18 168.05 195.03 167.39
  Q 197.29 165.66 198.32 162.80
  Q 198.36 162.67 198.61 162.10
  Q 199.10 161.01 197.74 161.16
  C 197.47 161.20 197.19 161.07 197.00 160.82
  Q 196.42 160.08 195.49 160.98
  Q 193.87 162.54 191.61 163.30
  Q 190.84 163.55 190.24 164.09
  Q 187.86 166.22 184.33 167.11
  Q 182.22 167.64 180.49 168.95
  Q 177.62 171.12 173.06 173.56
  Q 168.48 176.02 166.25 178.21
  Q 164.91 179.86 162.93 179.84
  C 162.67 179.84 162.45 179.62 162.39 179.32
  Q 162.22 178.45 161.50 177.96
  Q 175.46 164.96 193.23 158.11
  Q 193.33 158.07 193.98 157.54
  Q 194.19 157.37 194.50 157.29
  L 212.50 155.46
  Z"
/>
<path fill="#bdc7c9" d="
  M 218.75 155.71
  L 223.38 155.74
  C 224.26 155.74 225.01 156.37 225.14 157.23
  Q 226.04 163.40 223.00 168.29
  L 219.00 166.46
  Q 217.60 160.51 213.54 156.00
  L 218.75 155.71
  Z"
/>
<path fill="#919ca3" d="
  M 194.50 157.29
  Q 194.19 157.37 193.98 157.54
  Q 193.33 158.07 193.23 158.11
  Q 175.46 164.96 161.50 177.96
  L 154.46 185.75
  Q 153.16 184.57 153.32 182.73
  Q 153.44 181.41 153.48 180.08
  Q 153.52 178.89 153.85 177.47
  Q 154.71 173.78 154.56 168.19
  Q 154.49 165.33 156.39 161.40
  Q 156.46 161.27 156.83 160.78
  Q 157.31 160.14 156.25 159.96
  Q 175.33 158.00 194.50 157.29
  Z"
/>
<path fill="#bbc5c7" d="
  M 107.54 158.25
  L 107.69 161.85
  C 107.73 162.81 108.46 163.56 109.31 163.50
  L 146.00 160.79
  Q 146.37 161.52 146.66 162.28
  Q 146.94 163.00 146.91 163.88
  Q 146.64 171.56 146.75 179.25
  Q 146.82 183.93 144.09 192.71
  Q 144.09 192.72 143.63 193.57
  Q 143.34 194.11 143.79 194.75
  Q 142.32 195.32 140.75 195.21
  Q 142.70 188.51 143.25 186.25
  Q 146.09 174.67 142.76 163.01
  Q 142.16 160.91 140.16 161.77
  Q 138.43 162.52 137.59 163.98
  Q 137.38 164.34 136.38 167.00
  Q 134.42 172.20 134.25 179.25
  Q 134.02 188.67 135.50 194.96
  Q 125.32 194.50 115.25 192.96
  Q 116.93 189.87 115.39 187.38
  Q 113.77 184.74 113.60 184.32
  Q 111.73 179.81 108.88 175.85
  Q 108.00 174.63 107.27 172.75
  Q 106.62 171.09 105.61 169.60
  Q 105.37 169.25 105.26 168.70
  Q 105.08 167.74 104.30 167.25
  Q 103.34 166.67 103.27 166.62
  Q 99.89 164.06 95.50 165.21
  Q 94.03 165.27 92.57 165.43
  Q 92.48 165.44 91.44 165.40
  Q 90.57 165.37 90.29 166.25
  Q 89.93 165.03 88.06 165.19
  Q 84.28 165.51 82.79 161.75
  Q 87.06 160.03 91.60 159.75
  Q 95.87 159.50 98.36 159.21
  Q 101.75 158.81 105.18 159.03
  C 105.48 159.05 105.79 159.18 106.05 159.41
  Q 107.74 160.86 107.54 158.25
  Z"
/>
<path fill="#939fa8" d="
  M 232.21 160.25
  Q 236.08 171.34 236.25 184.00
  Q 236.38 193.28 236.32 196.45
  C 236.31 196.79 236.45 197.09 236.69 197.26
  Q 237.97 198.20 239.21 197.00
  Q 239.49 206.83 233.94 213.94
  Q 231.80 216.68 230.57 218.41
  Q 229.31 220.19 229.11 222.58
  Q 228.67 227.91 228.50 233.25
  Q 228.48 233.74 227.75 234.21
  Q 196.16 239.76 164.57 245.29
  Q 161.68 245.79 158.88 247.27
  Q 153.25 250.25 148.19 252.19
  Q 145.59 253.18 142.25 253.21
  Q 141.70 251.08 142.54 250.50
  Q 143.63 249.74 144.45 248.70
  Q 146.47 246.18 148.25 246.00
  Q 148.86 245.94 149.20 245.76
  Q 154.41 242.91 159.69 240.19
  Q 162.24 238.87 164.31 238.25
  Q 168.90 236.88 169.07 236.81
  Q 172.86 235.14 175.57 232.99
  Q 177.01 231.85 178.82 231.60
  Q 181.29 231.25 181.29 229.50
  Q 181.96 234.36 184.50 229.71
  Q 186.34 229.86 187.06 228.46
  C 187.22 228.15 187.48 227.93 187.74 227.88
  L 189.50 227.56
  C 189.84 227.50 190.14 227.36 190.35 227.15
  Q 192.99 224.58 196.13 222.74
  Q 199.63 220.68 201.59 219.29
  Q 203.86 217.68 207.00 215.75
  Q 210.37 213.68 216.00 209.25
  Q 219.21 206.73 220.25 204.29
  Q 232.81 196.09 230.71 180.75
  Q 230.28 178.80 231.59 177.77
  C 231.85 177.57 231.99 177.28 231.95 177.01
  L 230.98 169.09
  Q 230.84 167.89 230.34 166.60
  Q 229.35 164.06 229.10 160.81
  C 229.07 160.47 229.19 160.16 229.43 159.98
  Q 230.71 159.00 232.21 160.25
  Z"
/>
<path fill="#9da7ac" d="
  M 156.25 159.96
  Q 157.31 160.14 156.83 160.78
  Q 156.46 161.27 156.39 161.40
  Q 154.49 165.33 154.56 168.19
  Q 154.71 173.78 153.85 177.47
  Q 153.52 178.89 153.48 180.08
  Q 153.44 181.41 153.32 182.73
  Q 153.16 184.57 154.46 185.75
  Q 153.95 186.75 153.32 187.68
  Q 153.00 188.16 153.07 188.54
  Q 153.20 189.31 154.27 188.79
  Q 155.98 187.96 157.25 189.21
  L 156.00 190.04
  Q 154.04 189.78 154.46 191.75
  Q 154.21 189.91 152.97 190.65
  C 152.69 190.82 152.37 190.86 152.09 190.77
  Q 150.60 190.31 149.00 190.46
  Q 148.43 185.46 149.25 181.75
  Q 150.03 178.24 150.22 175.27
  Q 150.59 169.64 150.69 168.76
  Q 151.13 164.79 151.00 161.50
  Q 150.94 159.94 149.00 160.46
  L 156.25 159.96
  Z"
/>
<path fill="#afb9bc" d="
  M 149.00 160.46
  Q 150.94 159.94 151.00 161.50
  Q 151.13 164.79 150.69 168.76
  Q 150.59 169.64 150.22 175.27
  Q 150.03 178.24 149.25 181.75
  Q 148.43 185.46 149.00 190.46
  Q 148.37 190.38 148.00 190.71
  L 144.54 195.00
  Q 144.29 194.60 143.79 194.75
  Q 143.34 194.11 143.63 193.57
  Q 144.09 192.72 144.09 192.71
  Q 146.82 183.93 146.75 179.25
  Q 146.64 171.56 146.91 163.88
  Q 146.94 163.00 146.66 162.28
  Q 146.37 161.52 146.00 160.79
  L 149.00 160.46
  Z"
/>
<path fill="#dfe4e0" d="
  M 164.46 205.25
  Q 164.13 204.99 164.21 204.50
  Q 164.35 200.72 162.79 197.25
  Q 165.04 198.44 166.00 196.25
  Q 167.86 192.00 170.22 189.22
  Q 173.52 185.33 173.75 182.50
  Q 174.05 178.89 176.97 176.31
  C 177.61 175.74 177.91 174.89 177.79 174.05
  Q 177.37 171.12 175.72 173.00
  Q 175.00 173.82 174.45 174.18
  Q 170.60 176.67 166.25 178.21
  Q 168.48 176.02 173.06 173.56
  Q 177.62 171.12 180.49 168.95
  Q 182.22 167.64 184.33 167.11
  Q 187.86 166.22 190.24 164.09
  Q 190.84 163.55 191.61 163.30
  Q 193.87 162.54 195.49 160.98
  Q 196.42 160.08 197.00 160.82
  C 197.19 161.07 197.47 161.20 197.74 161.16
  Q 199.10 161.01 198.61 162.10
  Q 198.36 162.67 198.32 162.80
  Q 197.29 165.66 195.03 167.39
  Q 194.18 168.05 193.76 169.04
  Q 192.65 171.66 191.87 173.86
  Q 190.99 176.34 189.51 178.39
  Q 186.09 183.14 184.25 187.25
  Q 181.59 193.18 178.20 197.56
  Q 176.85 199.30 174.99 202.45
  Q 173.20 205.49 170.19 208.44
  Q 169.52 209.09 169.17 208.36
  C 169.11 208.23 169.22 208.08 169.37 208.08
  Q 171.05 208.15 169.28 207.51
  Q 169.08 207.44 168.83 207.43
  Q 165.82 207.21 164.83 204.29
  Q 164.57 203.53 164.52 204.27
  L 164.46 205.25
  Z"
/>
<path fill="#cdd6d8" d="
  M 140.75 195.21
  L 135.50 194.96
  Q 134.02 188.67 134.25 179.25
  Q 134.42 172.20 136.38 167.00
  Q 137.38 164.34 137.59 163.98
  Q 138.43 162.52 140.16 161.77
  Q 142.16 160.91 142.76 163.01
  Q 146.09 174.67 143.25 186.25
  Q 142.70 188.51 140.75 195.21
  Z
  M 140.80 172.93
  Q 139.16 170.62 137.89 173.16
  Q 135.93 177.09 136.49 181.68
  Q 136.59 182.53 136.64 184.83
  Q 136.67 186.48 137.34 187.98
  C 137.47 188.26 137.76 188.43 138.06 188.39
  Q 140.71 188.00 141.00 185.00
  Q 141.09 184.10 142.06 180.56
  Q 143.23 176.32 140.80 172.93
  Z"
/>
<path fill="#cdd6d8" d="
  M 115.25 192.96
  L 113.00 192.96
  L 104.75 191.79
  Q 105.17 191.76 105.56 191.61
  Q 105.93 191.47 106.16 191.08
  Q 108.16 187.76 106.63 184.59
  Q 105.13 181.46 105.09 181.36
  Q 103.35 176.81 100.26 173.07
  Q 98.69 171.17 97.92 169.46
  Q 97.01 167.47 96.10 165.48
  C 96.05 165.37 95.92 165.28 95.75 165.25
  L 95.50 165.21
  Q 99.89 164.06 103.27 166.62
  Q 103.34 166.67 104.30 167.25
  Q 105.08 167.74 105.26 168.70
  Q 105.37 169.25 105.61 169.60
  Q 106.62 171.09 107.27 172.75
  Q 108.00 174.63 108.88 175.85
  Q 111.73 179.81 113.60 184.32
  Q 113.77 184.74 115.39 187.38
  Q 116.93 189.87 115.25 192.96
  Z"
/>
<path fill="#e0e5e7" d="
  M 95.50 165.21
  L 95.75 165.25
  C 95.92 165.28 96.05 165.37 96.10 165.48
  Q 97.01 167.47 97.92 169.46
  Q 98.69 171.17 100.26 173.07
  Q 103.35 176.81 105.09 181.36
  Q 105.13 181.46 106.63 184.59
  Q 108.16 187.76 106.16 191.08
  Q 105.93 191.47 105.56 191.61
  Q 105.17 191.76 104.75 191.79
  Q 95.70 191.13 87.21 188.00
  L 88.41 176.82
  Q 88.47 176.24 88.05 176.64
  L 84.00 180.54
  Q 81.73 180.62 81.29 182.75
  Q 81.00 183.07 80.96 183.50
  L 79.79 183.75
  L 79.71 183.25
  L 80.66 180.74
  Q 80.91 180.08 81.10 179.88
  Q 84.12 176.71 87.27 173.67
  Q 88.91 172.08 89.46 170.32
  Q 90.07 168.34 90.29 166.25
  Q 90.57 165.37 91.44 165.40
  Q 92.48 165.44 92.57 165.43
  Q 94.03 165.27 95.50 165.21
  Z"
/>
<path fill="#060706" d="
  M 219.00 166.46
  L 223.00 168.29
  Q 228.59 173.23 229.29 180.75
  Q 229.26 182.78 227.72 182.49
  Q 227.00 182.36 226.18 181.48
  Q 218.74 173.42 208.50 178.46
  Q 204.82 181.99 204.74 187.07
  Q 204.74 187.15 204.90 188.91
  Q 205.09 190.95 203.50 190.71
  Q 201.35 190.38 202.45 192.25
  Q 203.92 194.75 202.04 196.25
  Q 197.05 186.21 201.78 175.98
  Q 204.35 170.42 209.19 167.69
  Q 213.60 165.20 219.00 166.46
  Z"
/>
<path fill="#e0e5e7" d="
  M 140.80 172.93
  Q 143.23 176.32 142.06 180.56
  Q 141.09 184.10 141.00 185.00
  Q 140.71 188.00 138.06 188.39
  C 137.76 188.43 137.47 188.26 137.34 187.98
  Q 136.67 186.48 136.64 184.83
  Q 136.59 182.53 136.49 181.68
  Q 135.93 177.09 137.89 173.16
  Q 139.16 170.62 140.80 172.93
  Z"
/>
<path fill="#eaefec" d="
  M 162.79 197.25
  Q 162.33 195.86 160.44 191.56
  Q 159.45 189.33 157.25 189.21
  Q 155.98 187.96 154.27 188.79
  Q 153.20 189.31 153.07 188.54
  Q 153.00 188.16 153.32 187.68
  Q 153.95 186.75 154.46 185.75
  L 161.50 177.96
  Q 162.22 178.45 162.39 179.32
  C 162.45 179.62 162.67 179.84 162.93 179.84
  Q 164.91 179.86 166.25 178.21
  Q 170.60 176.67 174.45 174.18
  Q 175.00 173.82 175.72 173.00
  Q 177.37 171.12 177.79 174.05
  C 177.91 174.89 177.61 175.74 176.97 176.31
  Q 174.05 178.89 173.75 182.50
  Q 173.52 185.33 170.22 189.22
  Q 167.86 192.00 166.00 196.25
  Q 165.04 198.44 162.79 197.25
  Z"
/>
<path fill="#586b7a" d="
  M 87.21 188.00
  Q 85.62 186.10 84.89 183.72
  Q 84.77 183.33 84.40 182.89
  Q 83.58 181.89 84.00 180.54
  L 88.05 176.64
  Q 88.47 176.24 88.41 176.82
  L 87.21 188.00
  Z"
/>
<path fill="#0b0c0c" d="
  M 229.29 180.75
  L 229.46 180.75
  Q 230.26 186.43 228.25 191.79
  Q 227.28 191.52 226.60 190.87
  C 226.39 190.68 226.24 190.37 226.17 190.00
  Q 225.69 187.55 223.88 186.00
  Q 223.29 185.50 221.82 184.97
  Q 220.73 184.57 219.70 183.97
  Q 217.80 182.85 217.72 185.06
  Q 217.62 188.31 214.54 190.79
  Q 212.51 192.43 210.58 191.12
  C 210.32 190.94 210.15 190.64 210.12 190.32
  Q 209.92 188.33 210.92 186.61
  C 211.08 186.33 211.14 186.01 211.09 185.70
  Q 210.82 184.07 211.25 182.00
  Q 211.96 178.58 208.50 178.46
  Q 218.74 173.42 226.18 181.48
  Q 227.00 182.36 227.72 182.49
  Q 229.26 182.78 229.29 180.75
  Z"
/>
<path fill="#161718" d="
  M 228.25 191.79
  Q 227.89 193.81 226.71 195.50
  Q 225.05 195.63 224.02 194.80
  Q 223.46 194.35 222.96 192.53
  Q 222.14 189.54 218.80 189.11
  C 218.51 189.07 218.19 189.18 217.94 189.40
  Q 213.95 192.93 208.50 192.25
  Q 206.95 192.06 205.06 192.56
  Q 202.92 193.14 203.50 195.50
  Q 203.75 196.51 202.79 197.50
  L 202.04 196.25
  Q 203.92 194.75 202.45 192.25
  Q 201.35 190.38 203.50 190.71
  Q 205.09 190.95 204.90 188.91
  Q 204.74 187.15 204.74 187.07
  Q 204.82 181.99 208.50 178.46
  Q 211.96 178.58 211.25 182.00
  Q 210.82 184.07 211.09 185.70
  C 211.14 186.01 211.08 186.33 210.92 186.61
  Q 209.92 188.33 210.12 190.32
  C 210.15 190.64 210.32 190.94 210.58 191.12
  Q 212.51 192.43 214.54 190.79
  Q 217.62 188.31 217.72 185.06
  Q 217.80 182.85 219.70 183.97
  Q 220.73 184.57 221.82 184.97
  Q 223.29 185.50 223.88 186.00
  Q 225.69 187.55 226.17 190.00
  C 226.24 190.37 226.39 190.68 226.60 190.87
  Q 227.28 191.52 228.25 191.79
  Z"
/>
<path fill="#bdc7c9" d="
  M 84.00 180.54
  Q 83.58 181.89 84.40 182.89
  Q 84.77 183.33 84.89 183.72
  Q 85.62 186.10 87.21 188.00
  Q 95.70 191.13 104.75 191.79
  L 113.00 192.96
  Q 112.06 192.98 112.28 193.38
  C 112.39 193.56 112.65 193.70 112.99 193.76
  Q 126.35 195.87 134.81 195.94
  Q 139.97 195.98 142.75 197.04
  Q 142.14 198.47 141.14 199.65
  Q 134.51 207.50 128.71 216.00
  Q 128.04 215.63 127.25 215.71
  L 120.79 216.00
  Q 114.95 212.23 108.25 214.54
  Q 106.34 214.96 104.75 213.79
  Q 99.06 210.58 92.75 212.21
  L 89.50 212.79
  Q 88.04 212.23 87.71 210.75
  L 87.21 202.75
  Q 86.98 198.71 86.98 194.67
  Q 86.97 191.82 86.03 189.54
  Q 85.00 187.08 83.81 184.69
  Q 82.86 182.77 81.29 182.75
  Q 81.73 180.62 84.00 180.54
  Z
  M 107.04 197.25
  Q 108.77 196.73 109.97 194.92
  C 110.42 194.25 110.00 193.34 109.19 193.21
  L 90.91 190.25
  Q 88.77 189.90 88.14 191.91
  Q 87.36 194.43 91.12 195.97
  Q 98.54 198.98 106.49 197.70
  Q 106.67 197.67 106.75 197.55
  C 106.86 197.38 106.97 197.27 107.04 197.25
  Z"
/>
<path fill="#161718" d="
  M 81.29 182.75
  Q 82.86 182.77 83.81 184.69
  Q 85.00 187.08 86.03 189.54
  Q 86.97 191.82 86.98 194.67
  Q 86.98 198.71 87.21 202.75
  Q 86.39 202.69 86.23 202.03
  Q 86.02 201.19 86.00 201.15
  Q 83.85 196.29 83.26 191.00
  Q 83.14 189.88 82.41 189.04
  Q 82.19 188.79 82.05 188.18
  L 80.96 183.50
  Q 81.00 183.07 81.29 182.75
  Z"
/>
<path fill="#cdd6d8" d="
  M 79.71 183.25
  L 79.79 183.75
  L 66.21 199.25
  Q 61.43 203.99 57.96 209.75
  L 55.29 215.00
  Q 53.91 218.98 54.00 223.21
  Q 51.94 223.99 51.46 221.75
  Q 52.15 213.29 56.42 206.46
  Q 57.96 203.99 66.00 194.92
  Q 70.98 189.29 76.10 183.80
  C 76.36 183.52 76.66 183.36 76.93 183.35
  L 79.71 183.25
  Z"
/>
<path fill="#586b7a" d="
  M 80.96 183.50
  L 82.05 188.18
  Q 82.19 188.79 82.41 189.04
  Q 83.14 189.88 83.26 191.00
  Q 83.85 196.29 86.00 201.15
  Q 86.02 201.19 86.23 202.03
  Q 86.39 202.69 87.21 202.75
  L 87.71 210.75
  Q 86.76 210.86 85.44 210.06
  Q 83.45 208.87 80.33 209.06
  Q 76.28 209.30 72.25 208.79
  Q 72.69 208.55 72.41 208.34
  Q 72.29 208.25 72.06 208.25
  Q 68.16 208.25 64.26 208.06
  Q 62.72 207.98 66.04 208.01
  C 66.36 208.01 66.64 207.83 66.77 207.54
  Q 68.79 202.86 66.21 199.25
  L 79.79 183.75
  L 80.96 183.50
  Z"
/>
<path fill="#1f2121" d="
  M 226.71 195.50
  Q 224.77 199.19 221.45 201.71
  Q 215.54 206.19 209.00 203.25
  Q 205.34 201.60 202.79 197.50
  Q 203.75 196.51 203.50 195.50
  Q 202.92 193.14 205.06 192.56
  Q 206.95 192.06 208.50 192.25
  Q 213.95 192.93 217.94 189.40
  C 218.19 189.18 218.51 189.07 218.80 189.11
  Q 222.14 189.54 222.96 192.53
  Q 223.46 194.35 224.02 194.80
  Q 225.05 195.63 226.71 195.50
  Z"
/>
<path fill="#bbc5c7" d="
  M 157.25 189.21
  Q 159.45 189.33 160.44 191.56
  Q 162.33 195.86 162.79 197.25
  Q 164.35 200.72 164.21 204.50
  Q 161.77 198.25 159.19 192.06
  Q 158.69 190.88 156.00 190.04
  L 157.25 189.21
  Z"
/>
<path fill="#2a2c2c" d="
  M 156.00 190.04
  Q 158.69 190.88 159.19 192.06
  Q 161.77 198.25 164.21 204.50
  Q 164.13 204.99 164.46 205.25
  Q 164.30 206.40 163.27 206.89
  Q 162.83 207.10 162.52 207.47
  Q 161.69 208.46 161.22 206.97
  Q 159.01 200.03 155.79 193.50
  L 154.46 191.75
  Q 154.04 189.78 156.00 190.04
  Z"
/>
<path fill="#cdd6d8" d="
  M 106.75 197.55
  Q 106.67 197.67 106.49 197.70
  Q 98.54 198.98 91.12 195.97
  Q 87.36 194.43 88.14 191.91
  Q 88.77 189.90 90.91 190.25
  L 109.19 193.21
  C 110.00 193.34 110.42 194.25 109.97 194.92
  Q 108.77 196.73 107.04 197.25
  C 106.97 197.27 106.86 197.38 106.75 197.55
  Z"
/>
<path fill="#dfe4e0" d="
  M 149.00 190.46
  Q 150.60 190.31 152.09 190.77
  C 152.37 190.86 152.69 190.82 152.97 190.65
  Q 154.21 189.91 154.46 191.75
  L 155.79 193.50
  L 153.50 195.57
  Q 153.00 196.02 152.90 196.29
  Q 151.50 200.42 149.10 204.03
  Q 149.02 204.15 147.10 206.18
  Q 146.21 207.13 145.44 208.69
  Q 144.54 210.51 141.69 212.94
  Q 140.38 214.06 139.38 216.47
  Q 138.50 218.61 137.46 220.12
  Q 134.76 224.05 132.52 229.34
  Q 132.18 230.15 131.48 230.69
  Q 130.01 231.82 130.75 232.04
  Q 127.20 234.04 123.50 232.46
  L 124.21 226.25
  L 124.96 224.50
  Q 125.30 226.00 126.25 224.95
  Q 126.58 224.59 127.04 224.39
  Q 128.85 223.62 129.94 221.19
  Q 130.80 219.27 135.50 213.25
  Q 137.33 210.91 138.27 208.94
  Q 139.58 206.21 140.47 205.04
  Q 142.24 202.72 143.75 200.22
  Q 144.46 199.04 146.33 197.28
  Q 148.11 195.59 148.83 193.16
  Q 148.95 192.76 149.34 191.90
  Q 150.00 190.43 148.00 190.71
  Q 148.37 190.38 149.00 190.46
  Z"
/>
<path fill="#eaefec" d="
  M 148.00 190.71
  Q 150.00 190.43 149.34 191.90
  Q 148.95 192.76 148.83 193.16
  Q 148.11 195.59 146.33 197.28
  Q 144.46 199.04 143.75 200.22
  Q 142.24 202.72 140.47 205.04
  Q 139.58 206.21 138.27 208.94
  Q 137.33 210.91 135.50 213.25
  Q 130.80 219.27 129.94 221.19
  Q 128.85 223.62 127.04 224.39
  Q 126.58 224.59 126.25 224.95
  Q 125.30 226.00 124.96 224.50
  L 128.71 216.00
  Q 134.51 207.50 141.14 199.65
  Q 142.14 198.47 142.75 197.04
  Q 144.08 196.43 144.54 195.00
  L 148.00 190.71
  Z"
/>
<path fill="#919ca3" d="
  M 113.00 192.96
  L 115.25 192.96
  Q 125.32 194.50 135.50 194.96
  L 140.75 195.21
  Q 142.32 195.32 143.79 194.75
  Q 144.29 194.60 144.54 195.00
  Q 144.08 196.43 142.75 197.04
  Q 139.97 195.98 134.81 195.94
  Q 126.35 195.87 112.99 193.76
  C 112.65 193.70 112.39 193.56 112.28 193.38
  Q 112.06 192.98 113.00 192.96
  Z"
/>
<path fill="#698ea1" d="
  M 66.21 199.25
  Q 68.79 202.86 66.77 207.54
  C 66.64 207.83 66.36 208.01 66.04 208.01
  Q 62.72 207.98 64.26 208.06
  Q 68.16 208.25 72.06 208.25
  Q 72.29 208.25 72.41 208.34
  Q 72.69 208.55 72.25 208.79
  L 71.50 208.71
  L 62.64 208.89
  C 61.79 208.91 60.95 209.30 60.29 209.97
  Q 59.64 210.63 57.96 209.75
  Q 61.43 203.99 66.21 199.25
  Z"
/>
<path fill="#bbc5c7" d="
  M 220.25 204.29
  Q 219.21 206.73 216.00 209.25
  Q 210.37 213.68 207.00 215.75
  Q 203.86 217.68 201.59 219.29
  Q 199.63 220.68 196.13 222.74
  Q 192.99 224.58 190.35 227.15
  C 190.14 227.36 189.84 227.50 189.50 227.56
  L 187.74 227.88
  C 187.48 227.93 187.22 228.15 187.06 228.46
  Q 186.34 229.86 184.50 229.71
  L 183.96 225.00
  Q 183.80 223.24 184.31 224.37
  Q 187.00 230.40 188.83 223.82
  Q 189.67 220.79 193.00 219.75
  Q 194.67 219.23 196.02 217.84
  Q 198.23 215.56 198.31 215.49
  Q 202.09 212.29 203.81 211.56
  Q 207.29 210.09 211.84 206.66
  Q 212.44 206.21 213.44 205.97
  L 220.25 204.29
  Z"
/>
<path fill="#0b0c0c" d="
  M 175.25 214.04
  Q 176.30 215.22 178.00 214.71
  Q 182.11 216.56 182.79 221.25
  Q 181.51 222.84 179.54 222.75
  Q 178.76 218.95 175.54 217.00
  L 166.16 214.57
  Q 164.84 214.23 163.87 212.72
  Q 161.46 209.02 165.00 208.33
  C 165.29 208.28 165.59 208.42 165.75 208.68
  Q 168.87 213.88 175.25 214.04
  Z"
/>
<path fill="#2db0cb" d="
  M 71.50 208.71
  Q 67.50 208.87 63.72 210.09
  Q 63.35 210.21 62.93 210.62
  L 60.75 212.71
  Q 57.48 211.48 56.75 214.46
  Q 55.87 214.38 55.29 215.00
  L 57.96 209.75
  Q 59.64 210.63 60.29 209.97
  C 60.95 209.30 61.79 208.91 62.64 208.89
  L 71.50 208.71
  Z"
/>
<path fill="#117799" d="
  M 71.50 208.71
  L 72.25 208.79
  Q 76.28 209.30 80.33 209.06
  Q 83.45 208.87 85.44 210.06
  Q 86.76 210.86 87.71 210.75
  Q 88.04 212.23 89.50 212.79
  Q 89.46 213.26 89.00 213.46
  L 87.25 214.04
  Q 85.92 213.44 83.50 213.50
  Q 80.35 213.57 77.49 211.26
  Q 77.04 210.90 76.50 211.04
  Q 74.12 210.86 72.19 212.19
  Q 71.35 212.76 67.50 213.46
  L 60.75 212.71
  L 62.93 210.62
  Q 63.35 210.21 63.72 210.09
  Q 67.50 208.87 71.50 208.71
  Z"
/>
<path fill="#2db0cb" d="
  M 76.50 211.04
  Q 75.38 212.64 75.50 214.46
  L 67.50 213.46
  Q 71.35 212.76 72.19 212.19
  Q 74.12 210.86 76.50 211.04
  Z"
/>
<path fill="#138aaf" d="
  M 76.50 211.04
  Q 77.04 210.90 77.49 211.26
  Q 80.35 213.57 83.50 213.50
  Q 85.92 213.44 87.25 214.04
  Q 86.42 215.34 85.00 215.79
  Q 80.08 216.39 75.50 214.46
  Q 75.38 212.64 76.50 211.04
  Z"
/>
<path fill="#117799" d="
  M 104.75 213.79
  Q 104.77 215.61 103.06 215.19
  Q 101.25 214.74 98.94 213.49
  C 98.66 213.34 98.33 213.28 98.00 213.31
  Q 95.21 213.59 92.75 212.21
  Q 99.06 210.58 104.75 213.79
  Z"
/>
<path fill="#46d7eb" d="
  M 60.75 212.71
  L 67.50 213.46
  L 75.50 214.46
  Q 80.08 216.39 85.00 215.79
  Q 90.99 217.57 97.25 217.46
  Q 100.32 218.20 103.42 218.77
  Q 104.42 218.95 106.03 218.65
  Q 107.48 218.38 108.75 218.75
  Q 111.35 219.52 113.50 219.25
  Q 115.45 219.01 116.50 221.46
  Q 111.01 221.42 105.56 220.71
  Q 85.19 218.06 64.81 215.44
  Q 59.63 214.77 58.25 214.79
  L 56.75 214.46
  Q 57.48 211.48 60.75 212.71
  Z"
/>
<path fill="#138aaf" d="
  M 92.75 212.21
  Q 95.21 213.59 98.00 213.31
  C 98.33 213.28 98.66 213.34 98.94 213.49
  Q 101.25 214.74 103.06 215.19
  Q 104.77 215.61 104.75 213.79
  Q 106.34 214.96 108.25 214.54
  L 120.11 216.68
  C 120.28 216.71 120.47 216.57 120.56 216.35
  Q 120.64 216.16 120.79 216.00
  L 127.25 215.71
  Q 126.82 215.91 126.63 216.27
  C 126.47 216.59 126.26 216.82 126.03 216.92
  L 116.50 221.46
  Q 115.45 219.01 113.50 219.25
  Q 111.35 219.52 108.75 218.75
  Q 107.48 218.38 106.03 218.65
  Q 104.42 218.95 103.42 218.77
  Q 100.32 218.20 97.25 217.46
  Q 95.46 216.72 94.51 216.85
  Q 92.70 217.12 91.89 215.47
  Q 90.88 213.41 89.00 213.46
  Q 89.46 213.26 89.50 212.79
  L 92.75 212.21
  Z
  M 104.93 217.33
  Q 105.17 216.13 104.10 217.15
  C 103.90 217.34 103.85 217.62 103.98 217.80
  Q 104.14 218.02 104.36 218.02
  C 104.62 218.01 104.85 217.72 104.93 217.33
  Z"
/>
<path fill="#2db0cb" d="
  M 89.00 213.46
  Q 90.88 213.41 91.89 215.47
  Q 92.70 217.12 94.51 216.85
  Q 95.46 216.72 97.25 217.46
  Q 90.99 217.57 85.00 215.79
  Q 86.42 215.34 87.25 214.04
  L 89.00 213.46
  Z"
/>
<path fill="#117799" d="
  M 120.79 216.00
  Q 120.64 216.16 120.56 216.35
  C 120.47 216.57 120.28 216.71 120.11 216.68
  L 108.25 214.54
  Q 114.95 212.23 120.79 216.00
  Z"
/>
<path fill="#586b7a" d="
  M 175.25 214.04
  Q 176.85 213.68 178.00 214.71
  Q 176.30 215.22 175.25 214.04
  Z"
/>
<path fill="#687b8c" d="
  M 56.75 214.46
  L 58.25 214.79
  L 63.25 219.46
  L 58.25 222.21
  L 54.00 223.21
  Q 53.91 218.98 55.29 215.00
  Q 55.87 214.38 56.75 214.46
  Z"
/>
<path fill="#17313f" d="
  M 58.25 214.79
  Q 59.63 214.77 64.81 215.44
  Q 85.19 218.06 105.56 220.71
  Q 111.01 221.42 116.50 221.46
  L 126.03 216.92
  C 126.26 216.82 126.47 216.59 126.63 216.27
  Q 126.82 215.91 127.25 215.71
  Q 128.04 215.63 128.71 216.00
  L 124.96 224.50
  L 124.21 226.25
  Q 105.27 224.51 86.46 221.66
  Q 81.16 220.86 69.75 219.50
  Q 65.86 219.04 63.25 219.46
  L 58.25 214.79
  Z"
/>
<path fill="#2db0cb" d="
  M 104.36 218.02
  Q 104.14 218.02 103.98 217.80
  C 103.85 217.62 103.90 217.34 104.10 217.15
  Q 105.17 216.13 104.93 217.33
  C 104.85 217.72 104.62 218.01 104.36 218.02
  Z"
/>
<path fill="#bdc7c9" d="
  M 175.54 217.00
  Q 178.76 218.95 179.54 222.75
  Q 177.05 224.89 173.00 226.25
  Q 169.49 227.43 159.44 231.94
  Q 157.53 232.79 156.76 233.55
  Q 156.38 233.93 155.97 234.08
  Q 154.27 234.70 153.79 236.45
  C 153.70 236.81 153.50 237.09 153.27 237.20
  Q 152.36 237.65 151.71 236.75
  Q 154.03 233.56 152.75 229.79
  Q 157.85 225.97 163.19 222.51
  Q 164.27 221.81 167.22 220.78
  Q 169.43 220.02 171.25 218.38
  C 171.49 218.16 171.83 218.10 172.13 218.21
  Q 174.65 219.10 175.54 217.00
  Z"
/>
<path fill="#161718" d="
  M 124.21 226.25
  L 123.50 232.46
  L 123.67 238.56
  C 123.68 238.86 123.87 239.13 124.16 239.21
  Q 129.26 240.78 133.89 238.84
  Q 137.49 237.33 138.83 236.48
  Q 141.33 234.90 142.14 231.75
  Q 142.24 231.33 142.09 230.78
  Q 141.53 228.71 143.81 228.31
  Q 144.31 228.23 145.00 227.29
  Q 147.98 226.34 150.75 227.71
  Q 147.45 226.50 147.63 228.95
  C 147.65 229.24 147.56 229.55 147.38 229.83
  Q 146.81 230.72 147.00 232.00
  Q 147.51 235.38 144.70 237.01
  Q 144.30 237.24 144.02 237.70
  Q 143.52 238.53 142.58 238.86
  Q 138.96 240.13 135.75 242.19
  Q 133.88 243.39 131.84 244.08
  Q 129.75 244.79 127.75 245.75
  Q 124.14 247.48 128.06 248.44
  Q 128.75 248.61 128.96 249.25
  Q 127.99 248.86 127.08 248.35
  Q 126.10 247.80 125.15 247.68
  Q 105.42 245.17 85.71 242.49
  Q 80.47 241.78 74.84 240.77
  Q 69.42 239.79 63.99 238.84
  Q 63.68 238.78 63.09 238.44
  Q 62.32 238.00 61.71 238.75
  L 58.52 239.40
  C 57.89 239.53 57.30 239.36 57.02 238.97
  L 53.96 234.75
  Q 53.98 233.70 55.88 233.33
  C 56.54 233.20 56.91 232.50 56.66 231.88
  Q 54.87 227.54 56.99 223.92
  C 57.12 223.70 57.38 223.50 57.73 223.37
  Q 58.57 223.03 58.25 222.21
  L 63.25 219.46
  Q 65.86 219.04 69.75 219.50
  Q 81.16 220.86 86.46 221.66
  Q 105.27 224.51 124.21 226.25
  Z"
/>
<path fill="#afb9bc" d="
  M 182.79 221.25
  Q 183.65 222.35 183.46 223.75
  Q 181.16 223.14 180.68 224.75
  Q 180.48 225.42 180.90 227.10
  Q 181.19 228.28 181.29 229.50
  Q 181.29 231.25 178.82 231.60
  Q 177.01 231.85 175.57 232.99
  Q 172.86 235.14 169.07 236.81
  Q 168.90 236.88 164.31 238.25
  Q 162.24 238.87 159.69 240.19
  Q 154.41 242.91 149.20 245.76
  Q 148.86 245.94 148.25 246.00
  Q 146.47 246.18 144.45 248.70
  Q 143.63 249.74 142.54 250.50
  Q 141.70 251.08 142.25 253.21
  Q 139.08 253.49 136.00 252.71
  Q 133.39 252.21 132.21 250.00
  Q 143.30 245.32 151.71 236.75
  Q 152.36 237.65 153.27 237.20
  C 153.50 237.09 153.70 236.81 153.79 236.45
  Q 154.27 234.70 155.97 234.08
  Q 156.38 233.93 156.76 233.55
  Q 157.53 232.79 159.44 231.94
  Q 169.49 227.43 173.00 226.25
  Q 177.05 224.89 179.54 222.75
  Q 181.51 222.84 182.79 221.25
  Z"
/>
<path fill="#2a2c2c" d="
  M 51.46 221.75
  Q 51.94 223.99 54.00 223.21
  L 58.25 222.21
  Q 58.57 223.03 57.73 223.37
  C 57.38 223.50 57.12 223.70 56.99 223.92
  Q 54.87 227.54 56.66 231.88
  C 56.91 232.50 56.54 233.20 55.88 233.33
  Q 53.98 233.70 53.96 234.75
  Q 50.12 229.15 50.50 222.75
  Q 50.55 221.92 51.46 221.75
  Z"
/>
<path fill="#060706" d="
  M 183.46 223.75
  L 183.96 225.00
  L 184.50 229.71
  Q 181.96 234.36 181.29 229.50
  Q 181.19 228.28 180.90 227.10
  Q 180.48 225.42 180.68 224.75
  Q 181.16 223.14 183.46 223.75
  Z"
/>
<path fill="#212326" d="
  M 145.00 227.29
  Q 144.31 228.23 143.81 228.31
  Q 141.53 228.71 142.09 230.78
  Q 142.24 231.33 142.14 231.75
  Q 141.33 234.90 138.83 236.48
  Q 137.49 237.33 133.89 238.84
  Q 129.26 240.78 124.16 239.21
  C 123.87 239.13 123.68 238.86 123.67 238.56
  L 123.50 232.46
  Q 127.20 234.04 130.75 232.04
  Q 137.71 229.17 145.00 227.29
  Z"
/>
<path fill="#060706" d="
  M 150.75 227.71
  L 152.75 229.79
  Q 154.03 233.56 151.71 236.75
  Q 143.30 245.32 132.21 250.00
  Q 130.46 250.13 128.96 249.25
  Q 128.75 248.61 128.06 248.44
  Q 124.14 247.48 127.75 245.75
  Q 129.75 244.79 131.84 244.08
  Q 133.88 243.39 135.75 242.19
  Q 138.96 240.13 142.58 238.86
  Q 143.52 238.53 144.02 237.70
  Q 144.30 237.24 144.70 237.01
  Q 147.51 235.38 147.00 232.00
  Q 146.81 230.72 147.38 229.83
  C 147.56 229.55 147.65 229.24 147.63 228.95
  Q 147.45 226.50 150.75 227.71
  Z"
/>
<path fill="#212326" d="
  M 227.75 234.21
  L 227.92 234.30
  C 228.01 234.35 228.07 234.48 228.06 234.64
  Q 227.96 239.66 225.46 244.00
  Q 208.95 248.70 192.33 252.97
  Q 192.23 253.00 181.82 255.77
  Q 165.75 260.05 149.25 262.21
  Q 142.81 262.15 134.94 260.81
  Q 115.74 257.54 102.50 254.71
  Q 98.89 252.21 97.25 248.04
  L 98.00 247.46
  Q 113.10 249.98 128.32 251.55
  Q 129.14 251.64 132.02 252.52
  Q 133.94 253.11 136.00 252.71
  Q 139.08 253.49 142.25 253.21
  Q 145.59 253.18 148.19 252.19
  Q 153.25 250.25 158.88 247.27
  Q 161.68 245.79 164.57 245.29
  Q 196.16 239.76 227.75 234.21
  Z"
/>
<path fill="#39596c" d="
  M 128.96 249.25
  Q 130.46 250.13 132.21 250.00
  Q 133.39 252.21 136.00 252.71
  Q 133.94 253.11 132.02 252.52
  Q 129.14 251.64 128.32 251.55
  Q 113.10 249.98 98.00 247.46
  Q 95.55 246.07 92.00 245.75
  Q 87.64 245.36 78.00 243.25
  Q 75.75 242.76 75.04 243.00
  Q 75.34 241.80 74.44 241.41
  Q 73.99 241.22 73.05 241.44
  Q 71.23 241.88 69.41 241.62
  Q 69.12 241.58 66.05 241.30
  Q 63.43 241.05 61.71 238.75
  Q 62.32 238.00 63.09 238.44
  Q 63.68 238.78 63.99 238.84
  Q 69.42 239.79 74.84 240.77
  Q 80.47 241.78 85.71 242.49
  Q 105.42 245.17 125.15 247.68
  Q 126.10 247.80 127.08 248.35
  Q 127.99 248.86 128.96 249.25
  Z"
/>
<path fill="#17313f" d="
  M 98.00 247.46
  L 97.25 248.04
  Q 86.25 246.01 75.27 243.89
  Q 74.42 243.73 75.04 243.00
  Q 75.75 242.76 78.00 243.25
  Q 87.64 245.36 92.00 245.75
  Q 95.55 246.07 98.00 247.46
  Z"
/>
<path fill="#919ca3" d="
  M 225.46 244.00
  Q 223.38 249.73 217.19 251.19
  Q 210.63 252.73 202.25 255.79
  Q 201.53 255.67 200.82 255.85
  Q 184.57 259.94 168.25 263.71
  L 155.29 266.00
  Q 156.36 264.53 151.93 264.47
  C 151.51 264.47 151.23 264.04 151.39 263.65
  Q 152.20 261.70 149.25 262.21
  Q 165.75 260.05 181.82 255.77
  Q 192.23 253.00 192.33 252.97
  Q 208.95 248.70 225.46 244.00
  Z"
/>
<path fill="#bbc5c7" d="
  M 102.50 254.71
  Q 115.74 257.54 134.94 260.81
  Q 142.81 262.15 149.25 262.21
  Q 152.20 261.70 151.39 263.65
  C 151.23 264.04 151.51 264.47 151.93 264.47
  Q 156.36 264.53 155.29 266.00
  L 153.75 266.46
  Q 152.93 266.37 152.25 266.71
  L 147.54 266.75
  L 139.29 265.50
  L 123.75 262.54
  Q 115.75 260.63 107.79 258.61
  Q 105.58 258.05 102.94 256.06
  Q 102.09 255.42 102.50 254.71
  Z"
/>
<path fill="#161718" d="
  M 202.25 255.79
  L 198.75 260.04
  Q 187.77 262.68 176.81 265.38
  Q 175.06 265.81 173.28 265.66
  Q 171.49 265.51 169.69 265.36
  C 169.41 265.33 169.14 265.15 168.97 264.87
  L 168.25 263.71
  Q 184.57 259.94 200.82 255.85
  Q 201.53 255.67 202.25 255.79
  Z"
/>
<path fill="#2a2c2c" d="
  M 198.75 260.04
  Q 194.69 265.74 189.54 270.50
  Q 187.53 267.06 184.00 268.50
  Q 180.65 269.86 177.49 269.34
  Q 177.00 269.26 176.54 269.42
  Q 174.48 270.11 172.40 269.92
  Q 169.17 269.64 168.06 269.74
  Q 164.18 270.08 159.94 269.99
  C 159.66 269.98 159.31 269.86 158.95 269.64
  L 153.75 266.46
  L 155.29 266.00
  L 168.25 263.71
  L 168.97 264.87
  C 169.14 265.15 169.41 265.33 169.69 265.36
  Q 171.49 265.51 173.28 265.66
  Q 175.06 265.81 176.81 265.38
  Q 187.77 262.68 198.75 260.04
  Z"
/>
<path fill="#494d52" d="
  M 123.75 262.54
  L 139.29 265.50
  Q 139.17 268.76 136.00 268.75
  Q 132.31 268.74 128.04 267.46
  C 127.78 267.38 127.53 267.57 127.54 267.82
  Q 127.59 268.88 128.50 269.71
  Q 124.64 267.07 123.75 262.54
  Z"
/>
<path fill="#2a2c2c" d="
  M 139.29 265.50
  L 147.54 266.75
  Q 147.50 269.67 144.50 270.29
  Q 140.97 270.53 140.00 273.71
  L 132.50 272.04
  Q 130.12 271.50 128.50 269.71
  Q 127.59 268.88 127.54 267.82
  C 127.53 267.57 127.78 267.38 128.04 267.46
  Q 132.31 268.74 136.00 268.75
  Q 139.17 268.76 139.29 265.50
  Z"
/>
<path fill="#1f2121" d="
  M 153.75 266.46
  L 158.95 269.64
  C 159.31 269.86 159.66 269.98 159.94 269.99
  Q 164.18 270.08 168.06 269.74
  Q 169.17 269.64 172.40 269.92
  Q 174.48 270.11 176.54 269.42
  Q 177.00 269.26 177.49 269.34
  Q 180.65 269.86 184.00 268.50
  Q 187.53 267.06 189.54 270.50
  L 189.21 271.00
  Q 181.66 279.05 172.75 281.50
  Q 164.75 283.70 154.25 282.04
  Q 158.32 282.12 154.25 281.00
  Q 152.92 280.64 148.52 277.82
  Q 148.45 277.78 146.15 275.97
  Q 144.26 274.48 141.75 274.29
  L 140.00 273.71
  Q 140.97 270.53 144.50 270.29
  Q 142.73 271.56 143.17 273.46
  C 143.24 273.75 143.47 273.99 143.78 274.09
  Q 149.10 275.82 154.68 275.79
  Q 156.11 275.79 157.76 276.23
  Q 159.30 276.64 160.88 276.77
  Q 161.97 276.85 164.89 277.46
  Q 167.45 278.00 169.84 276.78
  Q 171.67 275.85 171.71 275.83
  Q 174.87 274.49 178.20 273.55
  Q 180.02 273.04 179.06 271.44
  Q 178.35 270.24 174.75 270.75
  Q 168.14 271.69 161.50 271.00
  Q 158.05 270.64 156.25 269.69
  C 156.00 269.56 155.78 269.30 155.65 268.96
  Q 154.80 266.75 152.25 266.71
  Q 152.93 266.37 153.75 266.46
  Z"
/>
<path fill="#161718" d="
  M 147.54 266.75
  L 152.25 266.71
  Q 154.80 266.75 155.65 268.96
  C 155.78 269.30 156.00 269.56 156.25 269.69
  Q 158.05 270.64 161.50 271.00
  Q 168.14 271.69 174.75 270.75
  Q 178.35 270.24 179.06 271.44
  Q 180.02 273.04 178.20 273.55
  Q 174.87 274.49 171.71 275.83
  Q 171.67 275.85 169.84 276.78
  Q 167.45 278.00 164.89 277.46
  Q 161.97 276.85 160.88 276.77
  Q 159.30 276.64 157.76 276.23
  Q 156.11 275.79 154.68 275.79
  Q 149.10 275.82 143.78 274.09
  C 143.47 273.99 143.24 273.75 143.17 273.46
  Q 142.73 271.56 144.50 270.29
  Q 147.50 269.67 147.54 266.75
  Z"
/>
<path fill="#546575" d="
  M 189.21 271.00
  Q 189.13 272.90 191.00 273.25
  Q 197.32 274.43 203.75 274.44
  Q 224.11 274.48 238.00 276.00
  Q 243.38 276.59 245.75 276.72
  Q 247.39 276.80 248.08 277.37
  Q 248.93 278.08 249.18 279.26
  C 249.25 279.62 249.40 279.91 249.61 280.10
  Q 252.06 282.34 255.21 281.70
  Q 257.04 281.33 257.20 281.32
  Q 259.71 281.24 257.94 283.94
  Q 257.03 285.33 256.43 283.98
  C 256.31 283.70 256.03 283.54 255.77 283.59
  Q 252.16 284.27 248.74 285.56
  Q 245.21 286.89 243.75 287.20
  Q 240.85 287.80 238.50 287.75
  Q 235.68 287.68 233.41 288.43
  Q 229.52 289.71 229.47 289.72
  Q 223.23 291.01 216.90 290.66
  Q 208.64 290.20 208.59 290.19
  Q 185.59 289.91 162.60 290.17
  Q 162.12 290.18 150.41 289.84
  Q 146.33 289.72 142.24 290.02
  Q 137.23 290.40 134.11 290.36
  Q 127.47 290.28 120.84 290.43
  Q 119.75 290.46 115.72 289.97
  Q 113.38 289.68 110.50 290.00
  Q 105.35 290.56 99.25 289.57
  Q 96.31 289.09 93.21 289.28
  Q 86.88 289.66 80.69 288.38
  Q 78.21 287.87 75.24 287.73
  Q 73.39 287.63 71.56 287.34
  Q 69.99 287.09 67.91 287.10
  Q 64.05 287.12 59.94 285.56
  Q 56.45 284.24 59.25 281.75
  Q 62.12 279.20 67.81 278.56
  Q 67.99 278.54 68.35 278.30
  C 68.64 278.10 68.95 277.99 69.26 277.97
  Q 76.28 277.59 83.28 276.84
  Q 91.62 275.95 97.27 275.85
  Q 112.20 275.60 125.94 275.95
  Q 128.17 276.01 130.31 275.38
  Q 133.27 274.51 132.50 272.04
  L 140.00 273.71
  L 141.75 274.29
  Q 146.00 281.27 154.25 282.04
  Q 164.75 283.70 172.75 281.50
  Q 181.66 279.05 189.21 271.00
  Z"
/>
<path fill="#494d52" d="
  M 141.75 274.29
  Q 144.26 274.48 146.15 275.97
  Q 148.45 277.78 148.52 277.82
  Q 152.92 280.64 154.25 281.00
  Q 158.32 282.12 154.25 282.04
  Q 146.00 281.27 141.75 274.29
  Z"
/>
</svg>
