<?xml version="1.0" encoding="UTF-8" standalone="no"?>
<!DOCTYPE svg PUBLIC "-//W3C//DTD SVG 1.1//EN" "http://www.w3.org/Graphics/SVG/1.1/DTD/svg11.dtd">
<svg width="100%" height="100%" viewBox="0 0 1408 1659" version="1.1" xmlns="http://www.w3.org/2000/svg" xmlns:xlink="http://www.w3.org/1999/xlink" xml:space="preserve" xmlns:serif="http://www.serif.com/" style="fill-rule:evenodd;clip-rule:evenodd;">
    <g>
        <path d="M416.198,117.24C481.189,67.074 560.475,33.685 642.971,29.747C659.55,36.299 678.478,35.803 695.156,29.846C704.223,29.548 713.323,29.548 722.39,29.78C739.002,36.233 757.93,35.869 774.608,29.813C839.102,33.751 902.306,54.731 957.238,88.583C976.629,100.463 997.477,109.662 1016.84,121.575C1086.99,163.832 1147.51,223.992 1185.57,296.858C1215.68,354.139 1226.8,420.983 1217.17,484.948C1214.69,503.049 1206.91,519.694 1202.14,537.166C1201.29,558.113 1204.16,579.092 1202.48,600.072C1198.6,728.267 1160.55,857.256 1083.75,960.996C1099.13,984.888 1107.64,1013.71 1102.64,1042.17C1098.31,1074.73 1076.63,1101.53 1052.24,1122.08C1033.51,1127.44 1014.85,1114.44 996.285,1120.92C981.361,1126.32 972.029,1140.68 968.058,1155.47C961.175,1179.6 947.144,1201.7 927.455,1217.35C910.744,1230.85 894.728,1245.78 883.378,1264.21C850.849,1227.74 835.197,1177.54 838.937,1129.03C839.433,1120.76 839.93,1112.49 840.261,1104.21C843.603,1080.62 844.331,1056.17 839.93,1032.64C856.277,1025.46 872.525,1017.98 888.309,1009.57C904.557,1001.1 917.495,987.602 933.71,979.064C969.647,960.632 999.396,930.95 1019.98,896.369C1042.51,858.711 1049.96,814.833 1062.24,773.303C1063.56,764.203 1074.35,764.732 1080.87,761.225C1104.82,750.603 1122.2,729.59 1136.95,708.643C1161.38,673.136 1178.85,629.39 1169.98,585.743C1141.39,614.367 1110.55,642.693 1071.93,656.823C1060.88,660.562 1047.91,663.143 1037.18,657.187C1031.99,644.381 1034.07,630.019 1031.39,616.617C1024.58,578.628 1015.61,539.018 990.956,508.211C963.358,473.763 921.101,454.041 878.446,445.867C828.578,435.576 777.485,447.985 727.418,440.175C648.198,428.792 573.346,398.05 502.035,362.841C467.587,386.865 436.316,416.018 412.226,450.565C397.103,472.008 386.779,496.826 368.447,515.953C353.622,531.307 336.514,544.511 317.983,555.133C305.408,561.884 291.576,567.939 277.016,567.509C266.559,567.112 258.286,560.097 250.444,554.041C238.101,573.532 233.137,597.059 235.255,619.925C238.366,657.947 257.426,692.692 280.16,722.54C295.58,743.288 316.527,760.065 341.676,767.147C347.103,775.188 347.699,785.579 350.644,794.712C359.314,824.692 365.866,855.666 380.128,883.694C389.758,902.953 402.299,920.69 417.058,936.309C459.448,979.559 513.32,1009.08 568.119,1033.6C568.516,1068.24 568.549,1102.89 563.983,1137.3C455.841,1097.63 364.212,1018.08 304.251,920.26C250.213,831.278 220.498,728.299 214.541,624.624C217.023,614.399 217.85,603.843 217.155,593.353C215.864,574.127 219.637,554.57 214.508,535.708C217.42,479.486 228.87,423.926 245.779,370.319C254.052,337.526 263.119,304.666 278.44,274.322C308.552,210.292 358.09,156.982 416.198,117.24Z" style="fill:rgb(45,31,31);fill-rule:nonzero;stroke:rgb(45,31,31);stroke-width:1px;"/>
        <path d="M642.971,29.747C660.344,28.887 677.783,28.953 695.156,29.846C678.477,35.803 659.549,36.299 642.971,29.747Z" style="fill:rgb(7,0,0);fill-rule:nonzero;stroke:rgb(7,0,0);stroke-width:1px;"/>
        <path d="M722.389,29.78C739.795,28.953 757.201,28.887 774.607,29.813C757.929,35.869 739.001,36.233 722.389,29.78Z" style="fill:rgb(7,0,0);fill-rule:nonzero;stroke:rgb(7,0,0);stroke-width:1px;"/>
        <path d="M412.227,450.566C436.317,416.019 467.588,386.866 502.036,362.842C573.347,398.051 648.199,428.792 727.419,440.176C777.486,447.986 828.578,435.576 878.447,445.868C921.101,454.041 963.359,473.764 990.957,508.212C1015.61,539.02 1024.58,578.63 1031.39,616.618C1034.07,630.02 1031.99,644.381 1037.18,657.188C1047.91,663.144 1060.88,660.563 1071.93,656.824C1110.55,642.694 1141.39,614.368 1169.98,585.744C1178.85,629.391 1161.38,673.138 1136.95,708.644C1122.2,729.591 1104.82,750.603 1080.87,761.226C1074.35,764.734 1063.56,764.204 1062.24,773.304C1049.96,814.833 1042.51,858.712 1019.98,896.37C999.396,930.95 969.648,960.633 933.711,979.065C917.496,987.603 904.558,1001.1 888.31,1009.58C872.526,1017.98 856.278,1025.46 839.931,1032.64C802.836,1048.79 764.086,1060.87 725.072,1071.32C713.027,1074.73 700.187,1076.62 687.977,1072.88C648.433,1062.45 609.154,1050.64 571.596,1034.33C571.133,1048.36 571.265,1062.39 571.761,1076.42C643.866,1101.14 723.086,1104.18 797.31,1087.34C811.407,1084.76 824.709,1077.15 839.369,1078.5C839.336,1087.07 839.634,1095.64 840.262,1104.21C839.931,1112.49 839.435,1120.76 838.938,1129.03C835.199,1177.54 850.851,1227.74 883.379,1264.21C868.653,1287.08 866.47,1316.79 876.033,1342.07C879.574,1353.89 878.747,1366.53 882.453,1378.34C886.689,1393.36 892.083,1409.51 886.358,1424.97C880.104,1446.18 862.665,1460.77 845.325,1473.05C858.032,1475.89 870.871,1478.08 883.777,1479.66C750.255,1516.43 605.051,1507.16 476.393,1456.37C406.372,1428.24 344.988,1372.29 322.387,1298.86C343.698,1289.79 366.365,1284.63 388.238,1277.15C432.911,1263.32 477.518,1249.18 522.257,1235.52C536.221,1231.51 547.506,1220.83 553.826,1207.89C563.058,1185.72 563.257,1161 563.985,1137.3C568.552,1102.89 568.519,1068.24 568.121,1033.6C513.322,1009.08 459.45,979.559 417.06,936.309C402.301,920.69 389.76,902.953 380.13,883.694C365.868,855.666 359.316,824.693 350.646,794.712C347.701,785.579 347.105,775.188 341.678,767.147C316.529,760.066 295.582,743.288 280.162,722.54C257.428,692.692 238.368,657.946 235.257,619.925C233.139,597.059 238.103,573.531 250.446,554.041C258.289,560.097 266.561,567.112 277.018,567.509C291.578,567.939 305.41,561.884 317.985,555.133C336.516,544.511 353.624,531.307 368.449,515.953C386.78,496.828 397.104,472.009 412.227,450.566Z" style="fill:rgb(249,218,197);fill-rule:nonzero;stroke:rgb(249,218,197);stroke-width:1px;"/>
        <path d="M214.508,535.71C219.637,554.572 215.865,574.129 217.155,593.355C217.85,603.845 217.023,614.401 214.541,624.626C212.688,595.042 212.721,565.326 214.508,535.71Z" style="fill:rgb(15,1,1);fill-rule:nonzero;stroke:rgb(15,1,1);stroke-width:1px;"/>
        <path d="M571.593,1034.33C609.151,1050.64 648.43,1062.45 687.974,1072.88C700.185,1076.62 713.024,1074.73 725.069,1071.32C764.083,1060.87 802.833,1048.79 839.928,1032.64C839.068,1047.93 839.498,1063.21 839.365,1078.5C824.706,1077.15 811.403,1084.76 797.306,1087.34C723.083,1104.18 643.863,1101.14 571.757,1076.42C571.262,1062.39 571.13,1048.36 571.593,1034.33Z" style="fill:rgb(242,188,158);fill-rule:nonzero;stroke:rgb(242,188,158);stroke-width:1px;"/>
        <path d="M839.929,1032.64C844.33,1056.17 843.602,1080.62 840.26,1104.21C839.631,1095.64 839.333,1087.07 839.367,1078.5C839.498,1063.21 839.068,1047.93 839.929,1032.64Z" style="fill:rgb(2,0,0);fill-rule:nonzero;stroke:rgb(2,0,0);stroke-width:1px;"/>
        <path d="M996.284,1120.92C1014.85,1114.44 1033.51,1127.44 1052.24,1122.08C1049,1124.8 1045.76,1127.51 1042.51,1130.22C1049.23,1143.99 1057.63,1157.09 1062.1,1171.88C1074.02,1209.64 1070.87,1252 1053.07,1287.37C1048.2,1296.54 1042.25,1305.01 1036.46,1313.58C1012.63,1301.01 985.992,1292.27 958.725,1295.12C939.466,1296.9 920.009,1302.03 903.827,1312.92C892.874,1320.89 885.23,1332.34 876.03,1342.07C866.467,1316.79 868.651,1287.08 883.376,1264.21C894.726,1245.78 910.742,1230.85 927.453,1217.35C947.142,1201.7 961.173,1179.6 968.056,1155.47C972.028,1140.68 981.36,1126.32 996.284,1120.92Z" style="fill:rgb(38,32,32);fill-rule:nonzero;stroke:rgb(38,32,32);stroke-width:1px;"/>
        <path d="M295.68,1283.93C302.331,1281.58 309.115,1279.63 315.932,1277.78C318.05,1284.79 320.135,1291.84 322.385,1298.86C344.986,1372.29 406.37,1428.24 476.391,1456.37C605.049,1507.16 750.253,1516.43 883.775,1479.67C930.235,1482.61 979.177,1474.07 1017.76,1446.81C1041.42,1430.16 1060.41,1405.08 1063.23,1375.56C1068.79,1377.18 1071.83,1371.59 1074.88,1368.08C1088.97,1349.06 1100.69,1328.14 1108.5,1305.71C1111.74,1296.37 1114.62,1286.94 1117.66,1277.55C1150.19,1288.89 1182.02,1302.63 1212.07,1319.57C1245.59,1338.57 1277.95,1363.81 1293.14,1400.38C1304.83,1482.94 1271.54,1566.46 1218.89,1629.14L573.843,1629.14C566.53,1627.68 559.217,1625.96 551.738,1625.86C483.273,1626.19 414.807,1626.13 346.342,1625.89C338.896,1626.03 331.583,1627.72 324.303,1629.14L181.714,1629.14C138.927,1577.02 117.418,1507.66 124.698,1440.52C127.047,1415.67 137.074,1392.54 148.193,1370.5C167.386,1344.69 191.211,1321.76 220.894,1308.45C244.256,1295.78 271.193,1293.46 295.68,1283.93Z" style="fill:rgb(255,140,0);fill-rule:nonzero;stroke:rgb(153,51,153);stroke-width:1px;"/>
        <path d="M1036.46,1313.58C1042.25,1305.01 1048.2,1296.54 1053.07,1287.37C1071.5,1293.66 1090.1,1299.32 1108.5,1305.7C1100.69,1328.14 1088.97,1349.05 1074.88,1368.08C1071.83,1371.59 1068.79,1377.18 1063.23,1375.56C1066.44,1351.87 1055.15,1327.98 1036.46,1313.58Z" style="fill:rgb(249,218,197);fill-rule:nonzero;stroke:rgb(249,218,197);stroke-width:1px;"/>
        <path d="M903.828,1312.92C920.01,1302.03 939.467,1296.9 958.726,1295.12C985.993,1292.27 1012.63,1301.01 1036.46,1313.58C1055.15,1327.98 1066.44,1351.87 1063.23,1375.56C1060.41,1405.08 1041.42,1430.16 1017.76,1446.81C979.177,1474.07 930.235,1482.61 883.775,1479.66C870.87,1478.08 858.03,1475.89 845.323,1473.05C862.663,1460.77 880.102,1446.18 886.356,1424.96C892.081,1409.51 886.687,1393.36 882.451,1378.34C878.745,1366.53 879.572,1353.89 876.031,1342.07C885.23,1332.34 892.874,1320.89 903.828,1312.92Z" style="fill:rgb(45,31,31);fill-rule:nonzero;stroke:rgb(45,31,31);stroke-width:1px;"/>
        <path d="M100.972,1413.62C115.168,1397.73 129.166,1380.82 148.193,1370.5C137.074,1392.54 127.048,1415.67 124.698,1440.52C117.418,1507.66 138.927,1577.02 181.714,1629.14L24.83,1629.14C28.867,1552.23 51.766,1474.01 100.972,1413.62Z" style="fill:rgb(249,218,197);fill-rule:nonzero;stroke:rgb(249,218,197);stroke-width:1px;"/>
        <path d="M1293.14,1400.38C1313,1417.55 1327.36,1439.89 1339.84,1462.72C1366.57,1514.01 1379.55,1571.63 1382.42,1629.14L1218.89,1629.14C1271.54,1566.46 1304.83,1482.94 1293.14,1400.38Z" style="fill:rgb(249,218,197);fill-rule:nonzero;stroke:rgb(249,218,197);stroke-width:1px;"/>
        <path d="M324.304,1629.14C331.584,1627.72 338.897,1626.03 346.343,1625.89C414.808,1626.13 483.274,1626.19 551.739,1625.86C559.218,1625.96 566.531,1627.68 573.844,1629.14L324.304,1629.14Z" style="fill:rgb(177,92,164);fill-rule:nonzero;stroke:rgb(177,92,164);stroke-width:1px;"/>
    </g>
</svg>
